<svg width="100" height="100" viewBox="0 0 100 100" fill="none" xmlns="http://www.w3.org/2000/svg">
<rect width="100" height="100" rx="24" fill="#FF7E84"/>
<g clip-path="url(#clip0_18_4)">
<path d="M82.2656 52.4268C83.1315 53.2471 83.8037 54.2041 84.2822 55.2979C84.7607 56.3916 85 57.5423 85 58.75C85 59.9577 84.7721 61.0856 84.3164 62.1338C83.8607 63.182 83.234 64.1162 82.4365 64.9365C81.639 65.7568 80.7161 66.3835 79.668 66.8164C78.6198 67.2493 77.4805 67.4772 76.25 67.5C75.7715 67.5 75.293 67.4658 74.8145 67.3975L58.7158 75.4297C58.7386 75.5664 58.75 75.7031 58.75 75.8398C58.75 75.9766 58.75 76.1133 58.75 76.25C58.75 77.4577 58.5221 78.5856 58.0664 79.6338C57.6107 80.682 56.984 81.6162 56.1865 82.4365C55.389 83.2568 54.4661 83.8835 53.418 84.3164C52.3698 84.7493 51.2305 84.9772 50 85C48.8151 85 47.6986 84.7721 46.6504 84.3164C45.6022 83.8607 44.668 83.2454 43.8477 82.4707C43.0273 81.696 42.3893 80.7731 41.9336 79.7021C41.4779 78.6312 41.2386 77.5146 41.2158 76.3525V75.9082C41.2158 75.7715 41.2386 75.612 41.2842 75.4297L25.1855 67.3975C24.707 67.4658 24.2285 67.5 23.75 67.5C22.5423 67.5 21.4144 67.2721 20.3662 66.8164C19.318 66.3607 18.3838 65.734 17.5635 64.9365C16.7432 64.139 16.1165 63.2161 15.6836 62.168C15.2507 61.1198 15.0228 59.9805 15 58.75C15 57.1322 15.4102 55.6396 16.2305 54.2725C17.0508 52.9053 18.1787 51.8343 19.6143 51.0596L25.5957 29.1162C24.3652 27.5439 23.75 25.7552 23.75 23.75C23.75 22.5423 23.9779 21.4144 24.4336 20.3662C24.8893 19.318 25.516 18.3838 26.3135 17.5635C27.111 16.7432 28.0339 16.1165 29.082 15.6836C30.1302 15.2507 31.2695 15.0228 32.5 15C34.0723 15 35.5306 15.3874 36.875 16.1621C38.2194 16.9368 39.2904 18.0078 40.0879 19.375H59.9121C60.7096 18.0078 61.7806 16.9368 63.125 16.1621C64.4694 15.3874 65.9277 15 67.5 15C68.7077 15 69.8356 15.2279 70.8838 15.6836C71.932 16.1393 72.8662 16.766 73.6865 17.5635C74.5068 18.361 75.1335 19.2839 75.5664 20.332C75.9993 21.3802 76.2272 22.5195 76.25 23.75C76.25 24.707 76.1019 25.6299 75.8057 26.5186C75.5094 27.4072 75.0651 28.2389 74.4727 29.0137L82.2656 52.4268ZM67.5 58.75C67.5 57.4967 67.7507 56.3005 68.252 55.1611C68.7533 54.0218 69.4824 53.042 70.4395 52.2217L55.0928 40.7031L32.4316 57.6904L32.5 58.75H67.5ZM32.5 32.5C31.429 32.5 30.3809 32.3063 29.3555 31.9189L24.4336 50.0342C25.6868 50.1481 26.8604 50.5013 27.9541 51.0938C29.0479 51.6862 29.9821 52.4837 30.7568 53.4863L51.4697 37.9688L39.5068 29.0137C38.6637 30.1074 37.6383 30.9619 36.4307 31.5771C35.223 32.1924 33.9128 32.5 32.5 32.5ZM74.917 50.1025C75.0993 50.057 75.3044 50.0342 75.5322 50.0342C75.7601 50.0342 75.9766 50.0228 76.1816 50H76.5234C76.6374 50 76.7513 50.0114 76.8652 50.0342L70.8154 31.8506C69.6989 32.2835 68.5938 32.5 67.5 32.5C67.0443 32.5 66.5999 32.4658 66.167 32.3975L58.75 37.9688L74.917 50.1025ZM67.5 19.375C66.8848 19.375 66.3151 19.4889 65.791 19.7168C65.2669 19.9447 64.8112 20.2523 64.4238 20.6396C64.0365 21.027 63.7174 21.4941 63.4668 22.041C63.2161 22.5879 63.1022 23.1576 63.125 23.75C63.125 24.3652 63.2389 24.9349 63.4668 25.459C63.6947 25.9831 64.0023 26.4388 64.3896 26.8262C64.777 27.2135 65.2441 27.5326 65.791 27.7832C66.3379 28.0339 66.9076 28.1478 67.5 28.125C68.1152 28.125 68.6849 28.0111 69.209 27.7832C69.7331 27.5553 70.1888 27.2477 70.5762 26.8604C70.9635 26.473 71.2826 26.0059 71.5332 25.459C71.7839 24.9121 71.8978 24.3424 71.875 23.75C71.875 23.1348 71.7611 22.5651 71.5332 22.041C71.3053 21.5169 70.9977 21.0612 70.6104 20.6738C70.223 20.2865 69.7559 19.9674 69.209 19.7168C68.6621 19.4661 68.0924 19.3522 67.5 19.375ZM58.75 23.75H41.25L41.1816 24.8096L55.0928 35.2344L61.6895 30.2783C60.7324 29.458 60.0033 28.4782 59.502 27.3389C59.0007 26.1995 58.75 25.0033 58.75 23.75ZM32.5 19.375C31.8848 19.375 31.3151 19.4889 30.791 19.7168C30.2669 19.9447 29.8112 20.2523 29.4238 20.6396C29.0365 21.027 28.7174 21.4941 28.4668 22.041C28.2161 22.5879 28.1022 23.1576 28.125 23.75C28.125 24.3652 28.2389 24.9349 28.4668 25.459C28.6947 25.9831 29.0023 26.4388 29.3896 26.8262C29.777 27.2135 30.2441 27.5326 30.791 27.7832C31.3379 28.0339 31.9076 28.1478 32.5 28.125C33.1152 28.125 33.6849 28.0111 34.209 27.7832C34.7331 27.5553 35.1888 27.2477 35.5762 26.8604C35.9635 26.473 36.2826 26.0059 36.5332 25.459C36.7839 24.9121 36.8978 24.3424 36.875 23.75C36.875 23.1348 36.7611 22.5651 36.5332 22.041C36.3053 21.5169 35.9977 21.0612 35.6104 20.6738C35.223 20.2865 34.7559 19.9674 34.209 19.7168C33.6621 19.4661 33.0924 19.3522 32.5 19.375ZM19.375 58.75C19.375 59.3652 19.4889 59.9349 19.7168 60.459C19.9447 60.9831 20.2523 61.4388 20.6396 61.8262C21.027 62.2135 21.4941 62.5326 22.041 62.7832C22.5879 63.0339 23.1576 63.1478 23.75 63.125C24.3652 63.125 24.9349 63.0111 25.459 62.7832C25.9831 62.5553 26.4388 62.2477 26.8262 61.8604C27.2135 61.473 27.5326 61.0059 27.7832 60.459C28.0339 59.9121 28.1478 59.3424 28.125 58.75C28.125 58.1348 28.0111 57.5651 27.7832 57.041C27.5553 56.5169 27.2477 56.0612 26.8604 55.6738C26.473 55.2865 26.0059 54.9674 25.459 54.7168C24.9121 54.4661 24.3424 54.3522 23.75 54.375C23.1348 54.375 22.5651 54.4889 22.041 54.7168C21.5169 54.9447 21.0612 55.2523 20.6738 55.6396C20.2865 56.027 19.9674 56.4941 19.7168 57.041C19.4661 57.5879 19.3522 58.1576 19.375 58.75ZM50 80.625C50.6152 80.625 51.1849 80.5111 51.709 80.2832C52.2331 80.0553 52.6888 79.7477 53.0762 79.3604C53.4635 78.973 53.7826 78.5059 54.0332 77.959C54.2839 77.4121 54.3978 76.8424 54.375 76.25C54.375 75.6348 54.2611 75.0651 54.0332 74.541C53.8053 74.0169 53.4977 73.5612 53.1104 73.1738C52.723 72.7865 52.2559 72.4674 51.709 72.2168C51.1621 71.9661 50.5924 71.8522 50 71.875C49.3848 71.875 48.8151 71.9889 48.291 72.2168C47.7669 72.4447 47.3112 72.7523 46.9238 73.1396C46.5365 73.527 46.2174 73.9941 45.9668 74.541C45.7161 75.0879 45.6022 75.6576 45.625 76.25C45.625 76.8652 45.7389 77.4349 45.9668 77.959C46.1947 78.4831 46.5023 78.9388 46.8896 79.3262C47.277 79.7135 47.7441 80.0326 48.291 80.2832C48.8379 80.5339 49.4076 80.6478 50 80.625ZM50 67.5C51.4355 67.5 52.7913 67.8304 54.0674 68.4912C55.3434 69.152 56.3916 70.0863 57.2119 71.2939L70.0293 64.9023C69.7786 64.6289 69.5394 64.3441 69.3115 64.0479C69.0837 63.7516 68.8672 63.444 68.6621 63.125H31.3379C31.1556 63.444 30.9505 63.7516 30.7227 64.0479C30.4948 64.3441 30.2441 64.6289 29.9707 64.9023L42.7881 71.2939C43.5856 70.109 44.6224 69.1862 45.8984 68.5254C47.1745 67.8646 48.5417 67.5228 50 67.5ZM76.25 63.125C76.8652 63.125 77.4349 63.0111 77.959 62.7832C78.4831 62.5553 78.9388 62.2477 79.3262 61.8604C79.7135 61.473 80.0326 61.0059 80.2832 60.459C80.5339 59.9121 80.6478 59.3424 80.625 58.75C80.625 57.998 80.4427 57.2917 80.0781 56.6309C79.7135 55.9701 79.2122 55.446 78.5742 55.0586L78.54 55.0928L78.5059 55.0586L78.54 55.0244C77.8109 54.5915 77.0475 54.375 76.25 54.375C75.6348 54.375 75.0651 54.4889 74.541 54.7168C74.0169 54.9447 73.5612 55.2523 73.1738 55.6396C72.7865 56.027 72.4674 56.4941 72.2168 57.041C71.9661 57.5879 71.8522 58.1576 71.875 58.75C71.875 59.3652 71.9889 59.9349 72.2168 60.459C72.4447 60.9831 72.7523 61.4388 73.1396 61.8262C73.527 62.2135 73.9941 62.5326 74.541 62.7832C75.0879 63.0339 75.6576 63.1478 76.25 63.125Z" fill="white"/>
</g>
<defs>
<clipPath id="clip0_18_4">
<rect width="70" height="70" fill="white" transform="translate(15 15)"/>
</clipPath>
</defs>
</svg>
