<?xml version="1.0" encoding="UTF-8"?>
<svg version="1.1" viewBox="0 0 2048 2048" width="512" height="512" xmlns="http://www.w3.org/2000/svg">
<path transform="translate(942,620)" d="m0 0 992 1 15 3 12 4 14 7 13 9 12 11 9 11 8 13 7 16 4 17 1 9v1225l-3 20-7 19-8 14-10 13-10 10-10 7-14 8-15 6-18 5h-1012l-24-7-14-6-12-8-13-11-10-11-9-14-7-15-5-19-2-19v-1204l1-17 3-16 6-16 8-15 11-14 9-9 15-11 16-8 15-5 11-2z" fill="#5EB5FE"/>
<path transform="translate(134,620)" d="m0 0 472 1 18 4 15 6 16 10 14 12 11 13 9 15 6 15 3 11 2 16v551l-2 17-5 16-8 17-10 14-10 11-10 8-15 9-15 6-16 4-21 2h-456l-18-1-19-4-16-7-11-6-10-8-10-9-10-12-9-16-6-15-3-12-2-17v-272l2-9 5-8 9-8 9-3h5v-80l-10-2-10-6-6-8-3-7-1-5v-127l1-20 4-18 5-13 8-15 10-13 11-11 14-10 16-8 15-5 11-2z" fill="#FECA56"/>
<path transform="translate(132,1524)" d="m0 0h74l14 1 10 5 8 9 3 7 1 8h79l3-12 6-8 7-6 6-3 11-1h39l211 1 16 3 16 6 13 7 12 9 10 9 8 10 7 11 7 14 5 17 2 17v316l-2 17-5 16-5 12-9 14-9 11-7 7-14 10-15 8-21 7-9 2h-490l-24-7-14-6-12-8-11-9-7-7-10-13-10-19-5-17-2-10-1-11v-305l1-16 4-18 5-13 8-15 8-10 9-10 12-10 15-9 15-6 12-3 7-1z" fill="#02DB99"/>
<path transform="translate(942,620)" d="m0 0 992 1 15 3 12 4 14 7 13 9 12 11 9 11 8 13 7 16 4 17 1 9v1225l-3 20-7 19-8 14-10 13-10 10-10 7-14 8-15 6-18 5h-1012l-24-7-14-6-12-8-13-11-10-11-9-14-7-15-5-19-2-19v-1204l1-17 3-16 6-16 8-15 11-14 9-9 15-11 16-8 15-5 11-2zm-10 60-10 2-14 7-10 9-6 9-4 11-1 5-1 37v1153l1 32 4 13 6 10 7 8 13 8 10 3 33 1h961l16-3 9-5 10-9 7-9 4-8 2-9v-1221l-3-12-6-11-7-8-14-9-11-3-15-1z" fill="#010000"/>
<path transform="translate(1420,898)" d="m0 0h18l24 2 22 4 19 5 20 7 24 11 20 12 14 10 11 9 12 11 17 17 11 14 10 14 14 24 9 20 10 30 5 23 3 26v32l-2 20-5 25-6 21-10 25-12 23-12 18-10 13-12 14-14 14-8 7-21 16-22 13-23 11-25 9-25 6-20 3-11 1h-33l-26-3-24-5-27-9-18-8-21-11-12-8-16-12-13-11-19-19-9-11-11-15-12-20-12-25-8-22-5-16-5-9-7-6-7-3-14-2-1-2-2-31v-19l1-28 13-1 8-3 6-4 3-1 2-4 5-12 6-20 10-24 11-21 10-15 10-14 9-10 7-8 14-14 11-9 18-13 20-12 23-11 19-7 23-6 15-3 16-2z" fill="#FDFDFE"/>
<path transform="translate(1874,681)" d="m0 0h54l13 4 13 9 6 7 7 14 2 9v1221l-3 11-5 9-9 10-9 7-9 4-13 2h-961l-33-1-12-4-11-7-8-9-7-14-2-8-1-32v-196l1-811h1v990h8l7-1 2 1 13 2h861l26-1 16-2 16-6 14-9 9-8 8-11 7-13 3-15 1-13v-1137h-5z" fill="#21A5FE"/>
<path transform="translate(1159,1591)" d="m0 0h539l20 3 18 6 16 8 13 9 10 9 5 5 8 9 10 16 7 14 6 20 2 12v28l-4 20-7 19-8 14-8 11-9 10-8 8-16 11-16 8-13 5-19 4-11 1h-534l-21-3-21-7-17-9-12-9-12-11-9-10-10-15-8-18-4-13-3-16v-28l4-20 7-19 9-16 11-14 11-11 13-10 17-10 19-7 16-3z" fill="#010000"/>
<path transform="translate(134,620)" d="m0 0 472 1 18 4 15 6 16 10 14 12 11 13 9 15 6 15 3 11 2 16v551l-2 17-5 16-8 17-10 14-10 11-10 8-15 9-15 6-16 4-21 2h-456l-18-1-19-4-16-7-11-6-10-8-10-9-10-12-9-16-6-15-3-12-2-17v-272l2-9 5-8 9-8 9-3 7-1 9 2 8 4 8 9 3 7 1 6v228l1 47 3 13 6 11 5 6 10 7 12 5 4 1 425 1h41l16-2 12-5 10-7 7-9 5-10 2-6 1-10v-540l-2-12-7-14-9-10-10-6-12-4-97-1h-372l-16 2-12 6-9 7-7 10-4 8-2 9-1 141-3 10-6 8-7 6-9 3-6 1-12-4-9-6-6-9-3-10v-127l1-20 4-18 5-13 8-15 10-13 11-11 14-10 16-8 15-5 11-2z" fill="#010000"/>
<path transform="translate(46,427)" d="m0 0h1953l11 2 7 4 5 4 5 8 2 6v12l-4 10-7 8-7 4-7 2h-1962l-9-4-8-7-5-8-2-8 1-10 4-9 6-7 11-6z" fill="#010000"/>
<path transform="translate(132,1524)" d="m0 0h74l14 1 10 5 8 9 3 7 2 8-1 7-4 10-9 9-9 4-93 1-14 3-12 6-10 9-7 11-3 8-1 6v313l3 14 6 12 6 7 11 7 10 4 5 1h476l14-4 10-6 7-7 6-10 4-11 1-8v-300l-1-15-5-14-6-9-10-9-11-5-9-2-191-1-62-1-7-3-9-7-6-12-1-3v-7l4-12 9-10 9-5 11-1h39l211 1 16 3 16 6 13 7 12 9 10 9 8 10 7 11 7 14 5 17 2 17v316l-2 17-5 16-5 12-9 14-9 11-7 7-14 10-15 8-21 7-9 2h-490l-24-7-14-6-12-8-11-9-7-7-10-13-10-19-5-17-2-10-1-11v-305l1-16 4-18 5-13 8-15 8-10 9-10 12-10 15-9 15-6 12-3 7-1z" fill="#010000"/>
<path transform="translate(1413,838)" d="m0 0h32l23 2 29 5 26 7 22 8 24 11 17 9 19 12 15 11 17 14 17 16 1 3 3 1 7 8 10 12 14 19 11 18 10 18 11 24 8 23 7 26 4 21 3 28v39l-2 21-5 29-8 28-8 22-8 18-12 22-13 20-9 12-13 16-11 12-12 12-8 7-16 13-20 14-21 12-16 8-16 7-22 8-22 6-26 5-26 3h-41l-27-3-31-6-26-8-25-10-19-9-17-10-15-10-15-11-14-12-10-9-14-14-9-11-10-12-14-20-9-15-14-28-10-26-7-23v-15l3-7 6-8 9-6 6-2h9l10 3 6 4 6 7 4 9 10 30 8 18 11 21 12 18 8 10 11 13 18 18 14 11 17 12 15 9 25 12 25 9 25 6 21 3 11 1h33l25-3 23-5 20-6 22-9 23-12 14-9 21-16 16-15 8-8 9-11 12-16 13-21 12-25 9-25 6-25 3-20 1-12v-32l-3-26-6-26-9-27-9-20-12-21-12-17-9-11-9-10-17-17-11-9-15-11-20-12-16-8-19-8-26-8-20-4-15-2-16-1h-18l-25 2-19 3-20 5-21 7-18 8-19 10-14 9-16 12-14 12-15 15-9 11-9 12-10 15-9 16-9 19-7 19-6 20-6 10-10 7-7 2h-12l-8-3-10-9-5-10v-14l6-21 8-22 9-20 10-19 12-19 14-19 13-15 7-8h2l2-4h2l2-4 8-7 10-9 17-13 18-12 17-10 22-11 23-9 27-8 31-6 16-2z" fill="#010000"/>
<path transform="translate(1155,1652)" d="m0 0h545l13 4 13 7 11 10 7 10 6 12 3 13v16l-3 12-8 16-9 11-12 9-14 6-10 2h-539l-13-3-12-6-10-8-7-7-8-14-4-12-1-5v-17l4-16 8-14 9-10 9-7 14-7z" fill="#FECA56"/>
<path transform="translate(39)" d="m0 0h18l10 6 8 9 3 7 1 12v150l1 17 4 9 6 8 12 9 11 5 10 2h13l12-3 14-7 10-8 6-9 2-6 1-7 1-171 6-12 8-7 7-4h18l12 8 6 9 3 8v171l-3 21-6 16-6 11-9 12-9 9-12 9-16 9-12 5-14 4-19 3h-15l-15-2-14-4-16-7-16-10-13-12-8-8-9-14-5-10-5-17-2-20v-162l3-12 6-8 9-7z" fill="#010000"/>
<path transform="translate(693)" d="m0 0h17l10 6 8 9 3 7 1 167 1 12 4 9 6 8 11 8 12 6 9 2h14l12-3 16-8 10-9 5-9 2-11 1-170 4-10 6-7 11-7h17l12 7 6 8 4 10v171l-2 16-5 17-8 15-9 12-9 9-15 11-17 9-17 6-15 3-9 1h-14l-16-2-14-4-16-7-16-10-13-12-7-7-9-13-8-17-4-19-1-17v-158l2-10 6-9 7-6z" fill="#010000"/>
<path transform="translate(963)" d="m0 0h17l10 6 8 8 13 19 13 18 14 20 10 14h2l6-9 14-20 12-17 16-23 9-10 6-4 4-2h16l11 6 7 8 4 8 1 9-2 9-6 11-8 11-16 23-10 14-14 20-12 17-1 4 7 11 11 15 13 19 36 51 10 15 3 8v12l-4 9-6 8-7 4-8 3h-9l-10-3-10-9-11-15-16-23-24-34-11-16-1-2-3 1-28 40-24 34-10 14-8 8-12 5h-10l-11-4-7-6-5-8-2-6v-12l4-10 12-17 7-10 13-18 13-19 8-11 14-20 10-14-2-5-12-16-13-19-12-17-14-20-11-16-4-8-1-3v-13l6-12 8-7z" fill="#010000"/>
<path transform="translate(230,1755)" d="m0 0h260l13 2 8 4 7 8 4 8 1 5v10l-4 10-8 9-7 4-4 1h-280l-10-4-8-7-4-7-2-5v-14l6-12 8-7 9-4z" fill="#010000"/>
<path transform="translate(565)" d="m0 0h17l10 6 5 5 5 8 2 7v7l-4 13-13 31-17 40-19 45-14 33-19 45-14 33-6 11-8 7-11 4h-9l-10-3-10-9-4-8-2-7 1-10 6-16 31-73 16-38 38-90 10-23 5-8 7-6z" fill="#010000"/>
<path transform="translate(328)" d="m0 0h18l11 7 6 7 4 10v247l-4 10-7 8-8 4-7 2h-8l-10-3-10-9-5-10-1-5v-242l3-10 9-10z" fill="#010000"/>
<path transform="translate(1784)" d="m0 0h219l11 4 10 9 5 11v13l-4 9-5 7-10 6-4 1-15 1h-199l-13-2-8-5-7-8-4-10v-10l4-11 7-8 9-5z" fill="#010000"/>
<path transform="translate(1785,234)" d="m0 0h218l10 3 8 6 6 9 2 6v12l-4 10-7 8-10 5-5 1h-218l-9-3-8-6-6-10-2-6v-10l4-10 6-8 9-5z" fill="#010000"/>
<path transform="translate(1794,117)" d="m0 0h82l131 1 10 5 5 5 5 7 2 6v12l-4 10-7 8-6 4-7 2h-221l-10-4-7-6-5-8-2-7v-9l4-11 5-7 10-6 3-1z" fill="#010000"/>
<path transform="translate(352,809)" d="m0 0h175l10 3 8 7 4 5 4 12-1 11-5 10-8 8-10 4-53 1h-54l-70-1-8-3-10-9-4-8-1-3v-14l4-10 8-8 8-4z" fill="#010000"/>
<path transform="translate(352,1129)" d="m0 0h177l10 4 6 5 5 8 3 9v7l-4 11-6 8-8 6-6 2h-175l-9-3-8-6-6-8-2-7v-13l4-10 5-6 10-6z" fill="#010000"/>
<path transform="translate(352,969)" d="m0 0h176l11 4 6 5 5 8 3 10-1 10-4 9-8 9-7 4-4 1h-176l-10-4-8-7-4-6-2-7v-13l4-10 5-6 8-5z" fill="#010000"/>
<path transform="translate(190,1129)" d="m0 0h30l10 4 8 7 5 10 1 4v10l-5 12-8 8-8 4-4 1h-27l-9-3-6-4-7-8-3-7-1-10 3-12 6-8 8-6z" fill="#010000"/>
<path transform="translate(191,809)" d="m0 0h27l10 3 9 7 6 11 1 4v10l-4 10-6 8-10 6-3 1h-30l-9-3-8-6-6-10-1-3v-16l5-10 7-7 8-4z" fill="#010000"/>
<path transform="translate(191,969)" d="m0 0h28l11 4 7 6 6 11 1 4v10l-5 12-5 6-8 5-6 2h-29l-10-4-8-7-5-8-1-3v-16l6-12 9-7z" fill="#010000"/>
<path transform="translate(925,681)" d="m0 0h29v1l-26 2h-5l-1-2z" fill="#21A5FE"/>
</svg>
