<?xml version="1.0" encoding="UTF-8"?>
<svg version="1.1" viewBox="0 0 2048 2048" width="512" height="512" xmlns="http://www.w3.org/2000/svg">
<path transform="translate(360,85)" d="m0 0h171l218 1 16 3 12 5 12 7 13 12 8 11 7 14 3 10 2 13v123l-1 321-3 17-7 16-9 13-9 9-14 9-14 6-14 3-185 1h-220l-189-1-16-4-16-8-9-7-11-11-7-11-6-13-3-12-1-12v-446l2-9 6-15 6-10 11-12 10-9 15-8 15-4 6-1z" fill="#62302C"/>
<path transform="translate(238,1260)" d="m0 0h390l6 2 5 5 3 6v74h72l7 2 5 4 3 7v588l-2 6-4 5-4 2-23 1h-506l-8-2-6-5-2-5-1-75-75-1-5-3-6-7-1-7v-444l6-9 138-138z" fill="#7CD7FD"/>
<path transform="translate(1639,1331)" d="m0 0h241l17 2 15 5 13 8 11 9 10 13 8 16 3 11 1 6v549l-4 7-6 4-13 1h-174l-181 1-25-1h-302l-9-2-6-7-2-8v-172l2-14 5-15 7-12 9-11 10-9 16-9 13-4 17-2h40l17 2 15 5 16 9-1-2v-125l3-16 5-13 9-14 14-14 13-8 12-5 14-3h58l14 3 12 5 12 7v-130l4-15 7-14 6-8 11-12 10-7 14-7 10-3z" fill="#63312C"/>
<path transform="translate(1307,152)" d="m0 0h85l322 1h170l17 2 12 4 15 8 12 11 8 9 7 12 5 14 2 11v108l-3 15-6 15-7 11-11 12-3 2 2 4 11 11 7 11 7 15 3 15v108l-3 16-6 14-7 11-11 12-10 7-14 7-15 4-7 1-214 1h-366l-15-1-16-5-13-7-10-8-8-8-7-10-6-12-4-13-2-15v-96l2-14 4-13 8-15 9-11 7-6-1-4-11-11-9-14-5-12-3-12-1-10v-98l2-13 4-13 8-15 11-13 12-10 16-8 14-4z" fill="#63312D"/>
<path transform="translate(1022,641)" d="m0 0 17 1 16 4 16 8 11 7 12 11 2 1v2h2l9 11 10 13 13 22 10 21 11 28 5 14v2l21-5 30-5 22-2h26l18 2 18 4 16 6 13 7 11 8 12 12 9 14 5 10 5 17 1 7v24l-4 20-7 21-11 23-12 20-13 18-11 14-12 14-7 8 2 4 9 10 9 11 12 15 14 21 11 19 9 19 8 24 3 17v24l-5 21-8 16-8 12-12 12-14 9-15 7-20 6-18 3-13 1h-16l-24-2-26-4-23-5-4-1-4 10-10 27-11 24-9 16-10 15-7 9-9 10-9 9-12 9-15 8-20 6-5 1h-25l-17-4-19-9-11-8-10-9-10-10-13-17-9-15-12-23-11-27-7-21-2-1-22 5-32 5-24 2h-15l-21-2-18-4-19-7-14-8-10-8-10-10-10-15-5-12-3-9-2-10-1-17 2-17 4-17 7-19 9-19 13-21 12-17 11-14 12-14 8-10-6-8-9-10-11-14-10-13-12-18-9-16-10-21-6-18-4-20-1-17 2-16 5-16 8-16 8-10 3-4h2l1-3 10-8 15-9 15-6 21-5 18-2h27l29 3 33 6 11 3 1-5 7-20 11-26 8-16 8-14 12-17 9-10 7-8 12-10 13-8 13-6 17-4zm0 97-7 7-9 14-8 16-8 19-7 21 1 4 32 14 6 3 6-1 29-13 8-5-3-11-8-22-12-25-7-11-9-10zm-229 132-11 3-1 1 1 7 6 16 11 19 11 15 13 16 10 11 5-3 16-13 9-6 2-10 5-41v-5l-13-4-27-5-10-1zm435 0-23 3-22 5-5 2-1 3 3 21 4 30 9 8 17 13 3 3 4-2 13-15 11-14 12-18 8-15 5-14 1-6-7-3-5-1zm-205 75-23 13-24 15-17 11-3 4v71l2 4 20 13 28 17 17 10 5-2 26-15 25-16 12-8 1-3v-71l-5-5-15-10-21-13-24-14zm-190 145-8 8-9 11-13 17-10 16-8 16-4 12 1 5 8 2 10 1h13l20-2 22-4 14-4 1-1-1-13-5-40-5-5-14-11-10-8zm380 0-16 13-12 9-2 7-4 33-2 14 4 3 16 4 25 4 12 1h17l14-3 2-1-2-10-5-12-8-15-8-12-9-12-11-13-9-10zm-192 122-26 12-12 6 2 9 8 23 10 22 10 16 6 7 4 3 5-1 8-9 10-18 6-12 9-24 4-13-1-4-33-15-4-2z" fill="#62302C"/>
<path transform="translate(238,1260)" d="m0 0h390l6 2 5 5 3 6v74h72l7 2 5 4 3 7v588l-2 6-4 5-4 2-23 1h-506l-8-2-6-5-2-5-1-75-75-1-5-3-6-7-1-7v-444l6-9 138-138zm75 31-52 1-1 1-1 127-3 7-5 4-3 1-129 1-1 1v408l1 1h491l1-2v-495l-1-54-92-1z" fill="#62302C"/>
<path transform="translate(122,292)" d="m0 0h473l2 1 1 7v292l-1 13-3 12-7 11-4 5-9 7-9 4-9 2-5 1h-378l-17-2-11-4-10-8-7-8-6-13-2-17v-302z" fill="#FCFCFC"/>
<path transform="translate(1751,1363)" d="m0 0h130l11 2 9 4 10 7 7 8 6 12 2 9 1 40v120l-1 364-1 1h-158l-1-2-1-105v-417l-2-14-6-16-6-11z" fill="#EFC16C"/>
<path transform="translate(1302,405)" d="m0 0h400l10 4 11 8 3 3v2h2l7 12 2 5 2 16v34l-1 61-3 12-6 11-8 8-10 6-13 4-319 1h-72l-11-2-12-5-10-8-6-8-1-5h-2l-3-9-1-7v-103l5-14 5-7 1-3 9-7 1-2 8-4z" fill="#F7A085"/>
<path transform="translate(1300,186)" d="m0 0h401l8 3 9 5 9 8 8 14 3 9v107l-5 14-7 10-9 8-10 5-9 3h-394l-11-2-6-3-11-8-9-11-5-12v-111l3-11 7-11 8-8 16-8z" fill="#FDDB9F"/>
<path transform="translate(1645,1363)" d="m0 0h45l12 3 10 5 6 4 4 5 3 3 6 10 2 13 1 478v46h-133l-1-411v-114l5-15 8-11 8-7 12-6z" fill="#FDDCA0"/>
<path transform="translate(797,838)" d="m0 0h16l22 2 23 4 28 7 40 13 42 17 29 14 16 8 15 8 12 6 17 10 20 12 17 11 18 12 16 11 28 21 16 13 10 8 10 9 8 7 10 9 30 30 9 11 8 9 12 16 10 15 11 20 6 16 3 15v9l-4 10-7 8-12 6-11 3-8 1h-32l-28-4-27-6-30-9-23-8-37-15-25-12-19-9-22-12-25-14-15-9-19-12-18-12-23-16-26-20-22-18-15-13-13-12-7-7-7-6-7-8-11-11-9-11-11-13-13-18-11-19-8-17-4-14-1-7v-10l4-11 8-8 10-5 16-4zm-4 32-11 3-1 1 1 7 6 16 11 19 11 15 13 16 10 11 5-3 16-13 9-6 2-10 5-41v-5l-13-4-27-5-10-1zm230 75-23 13-24 15-17 11-3 4v71l2 4 20 13 28 17 17 10 5-2 26-15 25-16 12-8 1-3v-71l-5-5-15-10-21-13-24-14zm190 145-16 13-12 9-2 7-4 33-2 14 4 3 16 4 25 4 12 1h17l14-3 2-1-2-10-5-12-8-15-8-12-9-12-11-13-9-10z" fill="#62302C"/>
<path transform="translate(162,119)" d="m0 0h392l10 2 12 6 10 9 7 11 3 8 1 15v90l-2 1h-470l-5-1v-92l2-14 4-9 6-9 8-8 9-5 7-3z" fill="#7CD7FD"/>
<path transform="translate(630,292)" d="m0 0h158l1 1 1 76v220l-1 2v16l-4 12-3 5-4 6-5 5-9 6-6 3-7 2-4 1h-131l-1-4 2-4h2l1-4 4-10 3-11 1-14 1-5v-302z" fill="#CFCFCF"/>
<path transform="translate(642,1379)" d="m0 0h54l2 4v546l-1 1h-491l-1-1v-53l1-2 424-1 6-3 3-4 1-4 1-482z" fill="#7DD7FD"/>
<path transform="translate(1476,1545)" d="m0 0h50l12 3 8 4 10 8 9 14 2 5 1 7 1 65v70l-1 208-1 1h-131l-1-152-1-14v-174l2-12 4-9h2v-3h2l2-4 8-8 8-5 8-3z" fill="#F8A186"/>
<path transform="translate(789,806)" d="m0 0h33l26 3 26 5 30 8 33 11 37 15 24 11 33 16 19 10 26 15 28 17 33 22 18 13 19 14 16 13 14 11 14 13 8 7 12 11 25 25 9 11 9 10 15 20 12 18 12 22 7 18 4 16 1 8v12l-3 15-8 16-9 10-14 9-15 6-18 4-7 1h-33l-24-3-26-5-24-6-31-10-31-12-20-8-15-7-35-17-16-9-14-7-27-16-20-12-34-23-17-12-13-10-14-11-10-8-17-14-15-14-8-7-31-31-9-11-8-9-15-20-10-15-9-16-9-20-6-21-1-6v-16l3-14 7-14 9-11 11-8 12-6 17-5zm8 32-16 2-15 5-8 6-6 7-3 9v10l3 15 7 17 9 17 10 15 13 17 12 14 11 12 7 8 5 5 13 12 7 7 8 7 14 12 11 9 15 12 34 25 24 16 22 14 24 14 25 14 29 15 16 7 15 7 29 12 25 9 29 9 26 6 24 4 9 1h32l16-3 12-5 8-7 4-7 2-6v-9l-4-18-8-19-13-22-12-16-11-14-10-11-7-8-31-31-8-7-14-12-17-14-17-13-19-14-13-9-18-12-20-13-41-24-27-14-16-8-32-15-30-12-38-13-31-8-21-4-15-2-13-1z" fill="#7DD6FC"/>
<path transform="translate(218,1523)" d="m0 0h290l12 2 14 7 9 8 7 11 3 9 1 5v12l-3 12-9 14-8 7-11 6-8 2-294 1-12-2-12-5-12-11-7-11-3-9v-19l4-12 6-9 9-9 13-7z" fill="#62302C"/>
<path transform="translate(215,1671)" d="m0 0h295l11 2 12 6 10 9 7 11 3 9 1 5v12l-4 13-6 10-9 9-10 6-11 3h-300l-13-4-11-8-9-11-5-11-1-3v-19l3-10 7-12 10-9 12-6z" fill="#62302C"/>
<path transform="translate(1755,185)" d="m0 0h129l13 2 12 6 10 9 7 11 3 9 1 5v105l-5 15-8 11-9 7-10 5-9 2-116 1-18-1 2-6 5-8 5-15 2-12v-104l-3-16-5-13-6-10z" fill="#EFC06C"/>
<path transform="translate(1765,404)" d="m0 0h119l12 2 11 5 10 8 7 9 5 12 1 8v100l-3 14-7 12-7 7-10 6-11 3-6 1h-131l9-19 5-19 1-11v-62l-1-39-4-15-8-17-1-4z" fill="#CA7358"/>
<path transform="translate(1302,405)" d="m0 0h400l10 4 11 8 3 3v2h2l7 12 2 5 1 13h-124l-27-2h-54l-15 1-14 2-8-1h-73l-10-1h-19l-14 1-16 1-14 4-14 8-9 7-8 11-5 10-3 12-1 9-1 75-1 1h-7l-12-4-9-4-7-6-5-7-1-5h-2l-3-9-1-7v-103l5-14 5-7 1-3 9-7 1-2 8-4z" fill="#FDC7B8"/>
<path transform="translate(1300,186)" d="m0 0h401l8 3 9 5 9 8 8 14 2 7v10h-90l-35 1-9-3h-83l-12 3-5 1-4-2h-49l-30 1-8-3h-16l-10 3-16-1-16 4-12 5-10 7-8 7-8 14-4 11-2 15v76l-13-1-10-4-11-8-9-11-5-12v-111l3-11 7-11 8-8 16-8z" fill="#FEEFD0"/>
<path transform="translate(1642,1364)" d="m0 0h25l-1 4-7 8-6 12-3 13-1 10-1 53v368l1 96-1 1-20 1h-27l-1-411v-114l5-15 8-11 8-7 12-6z" fill="#FEEFD0"/>
<path transform="translate(1314,1729)" d="m0 0h43l14 3 12 6 5 4v2h2l7 10 4 11 1 16v148l-1 1h-133l-1-13v-71l1-75 4-13 6-10 10-10 14-7z" fill="#7CD7FD"/>
<path transform="translate(386,868)" d="m0 0h19l13 4 10 7 8 9 6 11 2 9 1 155h34l9 3 5 6 2 5-1 7-5 8-9 11-11 13-9 11-22 26-9 11-11 13-9 11-5 4-5 2-8-1-6-4-10-11-9-11-11-13-9-11-11-13-9-11-11-13-9-11-7-10-1-9 3-6 7-6 6-1h27l7 1v-152l2-11 7-14 6-7 10-7 9-4zm4 32-7 5-3 9-1 170-4 6-3 3-3 1-19 1 1 4 13 15 9 11 11 13 10 13 4 1 13-16 11-13 9-11 12-14 1-3-20-1-6-3-4-6-1-6-1-168-4-6-5-4-3-1z" fill="#62302C"/>
<path transform="translate(1647,854)" d="m0 0h8l8 5 12 13 8 10 11 13 9 11 11 13 9 11 11 13 11 14 4 6 1 7-5 10-3 3-4 1-38 1-1 155-4 13-7 11-9 8-12 6-9 2h-15l-13-4-10-7-9-10-5-10-2-8-1-10-1-146h-31l-9-2-6-5-3-7v-6l6-10 9-10 11-14 9-10 9-11 11-13 9-11 11-13 9-11 8-7zm3 42-11 13-9 11-11 13-9 11-6 8 2 1h10l9 1 5 3 4 7 1 169 2 7 7 6 5 2h7l7-4 4-8 1-170 3-7 5-4 10-2 13-1-6-8-13-15-11-14-10-11-6-8z" fill="#63312C"/>
<path transform="translate(1076,1553)" d="m0 0 9 1 10 7 14 12 11 9 13 11 11 9 13 11 11 9 14 12 8 7 4 7-1 9-8 10-14 11-10 9-14 11-10 9-11 9-14 12-10 8-11 9-7 4-6 1-8-3-6-7-1-4v-37h-156l-13-4-10-7-7-7-6-11-3-8-1-14 2-11 7-14 6-7 10-7 10-4 16-2h145v-36l3-7 7-6zm19 51-1 19-4 8-5 3-171 1-7 2-6 7-2 5 1 8 4 6 6 4 5 1h164l8 2 5 5 2 4 1 19 4-1 14-12 11-9 10-9 14-11 4-4-2-4-13-10-15-13-16-13-9-8z" fill="#63312D"/>
<path transform="translate(965,298)" d="m0 0 9 1 6 4 3 4 2 12-1 29h130l28 1 12 4 10 7 7 7 8 16 1 4v18l-4 12-7 11-9 8-10 5-6 2-8 1-151 1v31l-2 10-5 6-9 3-9-3-9-7-11-9-14-12-11-9-13-11-11-9-13-11-11-9-10-9-3-6v-8l6-9 14-11 10-9 14-11 10-9 11-9 13-11 11-9 13-11zm-15 52-17 14-14 12-13 11-10 8 1 4 9 7 13 11 17 14 14 12h2l2-19 4-6 5-4 58-1h91l25-1 7-4 4-7v-10l-4-6-5-4-18-1h-133l-24-1-6-4-4-6-1-18z" fill="#63312D"/>
<path transform="translate(162,119)" d="m0 0h392l10 2 12 6 10 9 7 11 3 8 1 12h-72l-2 1-7-11-10-8-8-4-10-3h-16l-12 4-9 6-7 6-7 11-2-3h-32l-4-2-6-8-7-6-12-6-8-2h-15l-10 3-8 4-5 3-7 8-6 10h-1v-5l-4 1-31 1-6-9-10-9-11-5-8-2h-15l-12 4-10 6-8 8-8 16-2 20h-1v-8l-5 1-6 11-6 13-2 14-1 28-1 4 16 1v1h-58l-5-1v-92l2-14 4-9 6-9 8-8 9-5 7-3z" fill="#CAF2FC"/>
<path transform="translate(615,119)" d="m0 0 136 1 12 4 11 8 7 8 6 13 1 5 1 40v61l-1 1h-158l-1-94-2-17-6-18-6-10z" fill="#4EB9DD"/>
<path transform="translate(119,1435)" d="m0 0h47v306l1 101 443-1v2h-491l-1-1v-90z" fill="#C9F2FC"/>
<path transform="translate(392,1375)" d="m0 0h113l14 2 12 5 10 8 7 10 4 8 2 9v13l-4 13-7 11-7 7-10 6-9 3-9 1h-120l-14-3-9-5-10-9-7-11-4-13v-13l3-11 5-10 9-10 14-8 7-2z" fill="#62302C"/>
<path transform="translate(1470,1546)" d="m0 0h32v2l-5 4-8 13-4 10-2 22v332l-27 1h-20l-1-152-1-14v-174l2-12 4-9h2v-3h2l2-4 8-8 8-5z" fill="#FDC6B8"/>
<path transform="translate(313,1291)" d="m0 0h205l92 1v49l-350-1v-47l1-1z" fill="#CAF2FC"/>
<path transform="translate(1520,230)" d="m0 0h83l13 4 7 4v2l5 2 7 8 7 14 2 9v10l-2 8-5 12-6 9-6 5h-2v2h-3v2l-11 5-9 1h-78l-16-4-8-6-5-3-4-5v-2h-2l-7-14-2-10v-9l2-10 7-14 11-11 10-6z" fill="#63302C"/>
<path transform="translate(1533,449)" d="m0 0h54l18 1 12 4 11 8 8 9 5 11 2 7v17l-4 12-7 11-10 9-12 6-10 2h-77l-14-3-12-7-9-9-7-13-2-8v-16l3-11 5-9 9-10 11-7 11-3z" fill="#62302C"/>
<path transform="translate(785,1047)" d="m0 0 5 3 16 15 2 2-1 5-10 11-10 13-13 18-9 15-8 16-5 14-2 10v13l4 10 9 8 11 5 14 3 19 1 27-2 28-5 27-7 40-13 22-9 6 1 30 18-1 3-35 14-27 10-25 8-32 8-28 5-20 2h-27l-19-3-17-5-15-8-11-10-8-13-4-11-2-14 1-16 4-17 6-15 10-20 10-16 12-16 11-14 11-12z" fill="#F59E83"/>
<path transform="translate(1227,806)" d="m0 0h30l19 3 13 4 14 7 9 7 7 7 6 10 4 9 2 9v23l-4 17-6 16-12 23-14 21-10 13-8 10-11 12-4 4-5-5-10-9-7-6 1-5 9-10 11-14 13-18 10-17 9-19 5-19v-13l-4-9-7-8-12-6-15-3-9-1h-20l-19 2-27 5-27 7-36 12-21 8-5 2-4-1-18-10-13-8v-3l33-13 26-10 24-8 31-8 25-5z" fill="#F59E83"/>
<path transform="translate(222,1702)" d="m0 0h284l10 3 5 6 2 6-1 7-5 7h-2v2l-7 2h-289l-7-4-5-6-1-9 3-6 6-6z" fill="#F8F8F8"/>
<path transform="translate(218,1555)" d="m0 0h291l5 1v2l4 2 4 7 1 6-5 10-5 3-5 1h-289l-6-3-5-6-2-5 1-8 3-5 5-2v-2z" fill="#F9F9F9"/>
<path transform="translate(949,1243)" d="m0 0 5 1 5 16 8 20 3 9h2l1 6h2l1 6h2l10 16 11 12 8 7 9 4 4 1h9l9-3 9-7 9-9 7-10 10-17 12-27 9-25 11 2 19 7v8l-3 9h-2l-1 8-6 15h-2l-1 6-9 18h-2l-1 5-1 2h-2l-2 7-3 4h-2l-2 5-7 9h-2l-2 4-10 9-13 8-15 5-4 1h-16l-15-4-13-7-9-7-7-6-9-11-8-11-10-18-8-16v-5h-2l-10-26-1-3v-9l10-4z" fill="#FCDA9E"/>
<path transform="translate(1020,673)" d="m0 0h10l14 3 14 7 11 8 4 5 7 6 5 7v2h2v3h2l2 6h2v3h2l2 7h2l18 39 4 13 3 7v6l-5 3-21 7h-4l-2-6-4-13-4-8-3-9-4-9-4-8v-2h-2l-2-4v-3h-2l-9-14-9-10-8-7-8-4-3-1h-11l-12 4-5 5-5 2-2 5-5 5-6 8-10 17-6 13-4 10-4 11-4 12h-2v6l-8-1-23-8-1-3 11-30 9-20 10-19 6-9h2l1-4 3-4h2l2-5 9-8 4-4h2l1-3 9-6 7-3 12-4z" fill="#FCD99D"/>
<path transform="translate(1314,1729)" d="m0 0h43v1l-21 1-9 12-7 15-2 8-1 15-1 149h-48l-1-13v-71l1-75 4-13 6-10 10-10 14-7z" fill="#C9F2FC"/>
<path transform="translate(1396,230)" d="m0 0h16l15 6 9 6 5 5 7 11 4 12v17l-6 16-6 8-8 8h-3v2l-11 5-10 2h-9l-16-5-7-3-1-2-5-3-5-6v-2h-2v-3h-2l-5-11-1-4v-20l4-11 6-10 7-7 11-7z" fill="#64312C"/>
<path transform="translate(351,141)" d="m0 0h15l10 3 10 5 10 9 7 11 4 12v17l-4 12-7 11-10 9-12 6-10 2h-10l-13-3-9-5-10-9-7-10-4-11-1-14 2-11 7-14 6-7h2l1-3 11-6 8-3z" fill="#62302C"/>
<path transform="translate(472,141)" d="m0 0h16l13 4 9 6 7 6 7 11 4 10 1 5v12l-3 12-6 11-6 7-10 7-9 4-9 2h-11l-12-3-11-6-11-11-7-14-2-8v-11l3-13 5-10 8-9 10-7 10-4z" fill="#62302C"/>
<path transform="translate(1394,450)" d="m0 0h19l12 4 10 7 7 7 7 12 3 12v11l-3 12-6 11-8 9-11 7-8 3-4 1h-17l-12-4-11-7-7-7-7-12-3-11v-13l3-12 4-8 9-10 9-7 7-4z" fill="#62302C"/>
<path transform="translate(229,141)" d="m0 0h15l13 4 10 6 9 9 8 16 1 4v19l-4 11-6 10-8 8-10 6-9 3-6 1h-10l-12-3-10-5-11-10-7-12-3-10v-16l2-9 7-13 10-10 14-7z" fill="#62302C"/>
<path transform="translate(389,1407)" d="m0 0h116l9 2 4 3v2h2l3 8-1 6-6 9-5 2-29 1h-90l-7-2-3-1-6-9v-9l3-6z" fill="#F9F9F9"/>
<path transform="translate(955,911)" d="m0 0 10 3 17 8 8 4-1 3-19 11-42 28-17 12-26 20-3 2-5-1-15-13-5-4-1-4 11-8 18-14 19-14 33-22 14-9z" fill="#F59E83"/>
<path transform="translate(1167,1045)" d="m0 0 7 4 12 11 6 5-2 4-14 11-13 10-15 11-13 9-24 16-16 10h-7l-30-14 1-3 19-11 20-13 32-22 28-21z" fill="#F59E83"/>
<path transform="translate(227,1315)" d="m0 0 2 1v85l-1 1h-85l1-4z" fill="#C8F3FD"/>
<path transform="translate(1525,481)" d="m0 0h72l8 3 6 7v11l-4 7-5 4-10 2h-63l-8-1-5-3-5-8-1-7 2-7 7-6z" fill="#FAFAFA"/>
<path transform="translate(1524,262)" d="m0 0h73l6 2 5 4 3 5v10l-5 9-6 3h-77l-5-2-6-6-2-10 3-8 6-5z" fill="#FBFAFA"/>
<path transform="translate(696,1381)" d="m0 0 2 2v546h-393v-1l390-1v-481z" fill="#74BFD9"/>
<path transform="translate(1765,1398)" d="m0 0h1l1 7 1 34v53l-1 436h-1l-1-105z" fill="#CA7358"/>
<path transform="translate(1400,262)" d="m0 0 10 1 8 7 2 5v7l-3 6-5 5-7 3-8-1-6-4-4-8v-9l2-5 7-6z" fill="#FBFAF9"/>
<path transform="translate(475,173)" d="m0 0h10l8 5 4 6v11l-8 9-4 2h-9l-5-2v-2l-3-1-4-6v-9l3-7 4-2v-2z" fill="#FCD99D"/>
<path transform="translate(1400,481)" d="m0 0 9 1 5 3 4 4 2 5v7l-4 8-5 4-6 2-8-1-4-2-5-6-1-4v-9l2-5 8-6z" fill="#FAFAF9"/>
<path transform="translate(353,173)" d="m0 0h12l9 8 1 2v12l-8 9-5 2h-8l-5-3-5-5-2-4v-9l6-8z" fill="#FCDA9E"/>
<path transform="translate(233,173)" d="m0 0h10l9 8 1 2v12l-6 8-5 3h-10l-8-5-3-6v-10l1-4h2l1-4 4-1v-2z" fill="#FCDA9D"/>
<path transform="translate(609,1341)" d="m0 0h1v500l-1 1h-118v-1l116-1 1-444z" fill="#4DB9DE"/>
<path transform="translate(227,1315)" d="m0 0 2 1v85l-1 1h-85l1-4 76-76 2 1-74 74v2l54 1 25 1v-81l-2 1-2-2z" fill="#CDD8DB"/>
<path transform="translate(1199,1029)" d="m0 0 4 2 7 6v2h2v2h2v2l4 2 5 5 3 2v2l4 2v2h2v2h2l6 8 5 5 7 8v2l4 2 6 7 2 5 5 5 5 7 4 7 4 6 8 16 1 6-2-3-11-20-13-19-11-14-12-14-11-12-28-28-4-3z" fill="#77C0D9"/>
<path transform="translate(736,935)" d="m0 0h2l7 11 5 6 2 5 5 5 6 8v3l3 1v2l4 2 10 13 6 8 6 6v2l4 2v2l4 2v2l3 1 7 8 10 10 2 1v2l-4-2-35-35-9-11-8-9-15-20-10-15-5-8z" fill="#6EBEDA"/>
<path transform="translate(921,1011)" d="m0 0h3v26h-3v-2l-4-1-4-3v-2l-4-1-3-3 2-4 7-5h2v-2z" fill="#F5CB92"/>
<path transform="translate(1124,1010)" d="m0 0h2v2l4 1 11 9-1 4-13 11h-3z" fill="#FDDB9E"/>
<path transform="translate(977,1354)" d="m0 0 5 2 13 9 11 4 4 1h24l12-2 1-1h5v-2l4-2 3 1-8 5-15 5-4 1h-16l-15-4-13-7-9-7z" fill="#E3A666"/>
<path transform="translate(1144,890)" d="m0 0h3l2 18-2 1-18-12v-2z" fill="#F9D396"/>
<path transform="translate(1147,1140)" d="m0 0h1v13l-1 5-7-1-10-4-1-2 15-10z" fill="#F9D498"/>
<path transform="translate(901,890)" d="m0 0 10 2 7 3v2h-2v2l-12 7-3 3h-2l1-16z" fill="#F6CD90"/>
<path transform="translate(900,1140)" d="m0 0 4 1v2l4 1 10 7v2l-14 5-4-1z" fill="#F6CE92"/>
<path transform="translate(1289,1232)" d="m0 0 3 1-9 4-18 4-7 1h-33v-3l41-1 21-5z" fill="#7AC0D9"/>
<path transform="translate(1252,1083)" d="m0 0 4 2 6 7 2 5 5 5 5 7 4 7 4 6 8 16 1 6-2-3-11-20-13-19-11-14z" fill="#75C0D9"/>
<path transform="translate(939,1297)" d="m0 0h2l8 16 10 17 11 14 4 4 3 6-4-2-12-14-10-16-12-23z" fill="#E09C66"/>
<path transform="translate(1124,1010)" d="m0 0h2v2l4 1 11 9-2 1-5-3-7 6h-2v11h-1z" fill="#EAB76D"/>
<path transform="translate(1323,1138)" d="m0 0 2 1 5 17 2 13v12l-3 15-2 5h-1v-6l2-7v-25l-3-16z" fill="#76C0D9"/>
<path transform="translate(1057,1320)" d="m0 0 1 3-7 8-12 9-7 3h-13l-8-2-8-5-8-7-1-4 7 6 8 6 11 4h9l9-3 9-7 9-9z" fill="#DB9264"/>
<path transform="translate(789,806)" d="m0 0h33l4 2-40 1-4 1-8 1-11 2 1-2 17-4z" fill="#85C2D7"/>
<path transform="translate(721,847)" d="m0 0h2l-1 9-2 3-1 11v12l2 16-2-2-3-14v-16l3-14z" fill="#80C1D8"/>
<path transform="translate(227,1315)" d="m0 0 2 1v85h-3l1-2v-79l-2 1-2-2z" fill="#CED3D4"/>
<path transform="translate(1090,1254)" d="m0 0h1l-1 8-8 20-8 16-5 9-2-1 8-15 11-26z" fill="#DF9D64"/>
<path transform="translate(783,998)" d="m0 0 4 2 5 5v2l4 2v2l4 2v2l3 1 7 8 10 10 2 1v2l-4-2-35-35z" fill="#7EC1D8"/>
<path transform="translate(1135,1147)" d="m0 0 2 1 4 6h4l2-7h1l-1 11-7-1-10-4-1-2z" fill="#E5AB67"/>
<path transform="translate(1602,1916)" d="m0 0 4 2 4 8v3h-8z" fill="#FDFDFD"/>
<path transform="translate(1144,1192)" d="m0 0 9 1 21 6 13 3v1h-10l-13-4-20-6z" fill="#86C3D7"/>
<path transform="translate(758,813)" d="m0 0 4 1-16 8-8 6-9 9v-3l7-8 10-7z" fill="#7EC1D8"/>
<path transform="translate(900,1142)" d="m0 0h1l2 9h2v2l8 1-3 2-9 2-1-1z" fill="#E5AB67"/>
<path transform="translate(977,1354)" d="m0 0 5 2 13 9 8 4 1 2-5-1-11-6-9-7z" fill="#DD9864"/>
<path transform="translate(1057,1320)" d="m0 0 1 3-7 8-12 9-7 3h-3v-2l9-3 9-7 9-9z" fill="#E09568"/>
<path transform="translate(736,935)" d="m0 0h2l7 11 5 6 1 7-4-5-11-17z" fill="#7AC1D9"/>
<path transform="translate(1144,890)" d="m0 0h3l2 18-2 1-2-2h2l-2-15-11 4h-2v2l-3-1v-2z" fill="#DE9D64"/>
<path transform="translate(751,957)" d="m0 0 3 1 9 12v5l-4-4-8-11z" fill="#72BFD9"/>
<path transform="translate(1168 1e3)" d="m0 0 4 2 16 13 6 7-4-2-11-10-10-8z" fill="#7EC1D8"/>
<path transform="translate(1079,1282)" d="m0 0h2l-3 9-9 16-2-1 8-15z" fill="#E09B67"/>
<path transform="translate(961,1336)" d="m0 0 5 3 8 9 3 6-4-2-12-14z" fill="#DD9864"/>
<path transform="translate(1109,1294)" d="m0 0 1 2-8 17-3 3v-5h2l1-4 4-8 1-4z" fill="#E19D67"/>
<path transform="translate(800,1015)" d="m0 0 3 1 7 8 10 10 2 1v2l-4-2-18-18z" fill="#88C3D7"/>
<path transform="translate(1289,1232)" d="m0 0 3 1-9 4-12 3-4-1 8-3 12-3z" fill="#85C2D7"/>
<path transform="translate(1056,1363)" d="m0 0 3 1-8 5-8 3h-3v-2l7-3h5v-2z" fill="#E19C68"/>
<path transform="translate(829,1043)" d="m0 0 4 2 5 4v2l4 2 5 6-4-2-10-9-4-3z" fill="#76C0D9"/>
<path transform="translate(1041,711)" d="m0 0 4 1 9 8 3 4-1 2-12-12z" fill="#E1A165"/>
<path transform="translate(1073,1349)" d="m0 0 3 1-8 8-4 3h-2l2-4z" fill="#E39E69"/>
<path transform="translate(1252,1083)" d="m0 0 4 2 6 7-1 3-5-5-4-5z" fill="#6CBEDA"/>
<path transform="translate(1199,1029)" d="m0 0 4 2 7 6v2h2v2h2l-1 3-10-10-4-3z" fill="#7DC1D8"/>
<path transform="translate(1319,1210)" d="m0 0h2l-2 4-7 8h-2l2-4z" fill="#80C2D8"/>
<path transform="translate(905,891)" d="m0 0 9 2 4 2-1 2-11-2z" fill="#E4A967"/>
<path transform="translate(977,1354)" d="m0 0 5 2 8 6-3 1-8-6z" fill="#E2A565"/>
<path transform="translate(1330,1183)" d="m0 0h1l-1 9-3 9h-1v-6z" fill="#90C4D6"/>
<path transform="translate(1147,1147)" d="m0 0h1l-1 11-5-1 1-3h2z" fill="#E0A164"/>
<path transform="translate(736,826)" d="m0 0 3 1-10 10v-3z" fill="#83C9E3"/>
</svg>
