<?xml version="1.0" encoding="UTF-8"?>
<svg version="1.1" viewBox="0 0 2048 2048" width="512" height="512" xmlns="http://www.w3.org/2000/svg">
<path transform="translate(216,160)" d="m0 0h1614l12 2 12 5 10 7 8 7 9 13 5 12 2 14v1602l-1 14-4 13-6 11-9 10-9 8-13 6-11 3-14 1h-1598l-16-2-13-5-10-7-6-5-9-12-6-12-3-14v-1616l3-12 7-14 9-11 11-9 15-7z" fill="#325068"/>
<path transform="translate(161,1312)" d="m0 0h1726l1 510-1 14-4 13-6 11-9 10-9 8-13 6-11 3-14 1h-1598l-16-2-13-5-10-7-6-5-9-12-6-12-3-14z" fill="#D3DCE4"/>
<path transform="translate(216,160)" d="m0 0h1614l12 2 12 5 10 7 8 7 9 13 5 12 2 14-1 196-88 1-1126 1v892l1135 1v1h-1647v511h-1v-1608l3-12 7-14 9-11 11-9 15-7z" fill="#526883"/>
<path transform="translate(216,160)" d="m0 0h1614l12 2 12 5 10 7 8 7 9 13 5 12 2 14-1 196-88 1h-1638l-1-202 3-12 7-14 9-11 11-9 15-7z" fill="#6382C6"/>
<path transform="translate(410,512)" d="m0 0h10l10 3 8 6 6 7 3 8 1 9 1 2 24 10 17 10 11 9 3 2v2l4 2 9 11 8 11 8 15 6 16 4 19 1 8v20l-3 19-6 19-8 16-7 11-11 13-11 11-16 11-16 8-18 6-14 3-7 1h-22l-22-4-15-5-17-8-17-12-13-13-8-9-9-14-8-18-6-21-2-14v-21l4-23 7-19 6-12 10-14 9-10 10-10 16-11 17-9 14-5h3v-10l4-10 8-9 8-5z" fill="#D3DCE4"/>
<path transform="translate(410,896)" d="m0 0h10l10 3 8 6 6 7 3 8 1 9 3 3 15 6 16 8 13 9 9 7v2l4 2 9 11 8 11 8 15 6 16 4 19 1 8v20l-3 19-5 16-5 11-8 15-13 16-12 12-16 11-16 8-18 6-13 3-8 1h-23l-26-5-20-8-19-12-13-12-5-5-8-9-9-14-8-18-6-21-2-14v-21l4-23 7-19 6-12 10-14 9-10 10-10 14-10 19-10 14-5h3v-10l4-10 8-9 9-5z" fill="#D3DCE4"/>
<path transform="translate(1081,544)" d="m0 0h12l11 4 9 8 5 9 1 4 1 23v563l-3 11-7 9-9 6-7 3h-11l-12-5-8-7-5-8-2-12v-582l2-6 6-8 7-7z" fill="#7DB24F"/>
<path transform="translate(1465,544)" d="m0 0h12l11 4 9 8 5 9 1 4 1 23v563l-3 11-7 9-9 6-7 3h-11l-12-5-8-7-5-8-2-12v-582l2-6 6-8 7-7z" fill="#7DB24F"/>
<path transform="translate(1337,1408)" d="m0 0h12l11 4 10 9 5 9 1 6v196h34l13 4 9 7 6 10 2 7v9l-4 10-7 9-5 4-7 3-6 1h-35v68l-3 10-7 9-10 7-6 2h-12l-12-5-9-9-4-9-1-6v-67h-34l-9-2-10-6-7-8-4-11v-11l4-11 8-8 11-6 4-1h37v-198l3-8 6-9 10-7z" fill="#EFAF68"/>
<path transform="translate(697,1408)" d="m0 0h12l11 4 10 9 5 9 1 6v196h34l13 4 9 7 6 10 2 7v9l-4 10-7 9-5 4-7 3-6 1h-35v68l-3 10-7 9-10 7-6 2h-12l-12-5-9-9-4-9-1-6v-67h-34l-9-2-10-6-7-8-4-11v-11l4-11 8-8 11-6 4-1h37v-198l3-8 6-9 10-7z" fill="#EFAF68"/>
<path transform="translate(1593,640)" d="m0 0h12l11 4 10 9 5 11 1 15v380l-3 10-6 9-8 6-9 4h-11l-12-5-8-7-5-8-2-9v-393l2-7 7-9 11-8z" fill="#7DB24F"/>
<path transform="translate(1209,640)" d="m0 0h12l11 4 10 9 5 11 1 18v377l-3 10-6 9-8 6-10 4h-10l-12-5-9-8-4-7-2-9v-393l2-7 7-9 11-8z" fill="#7DB24F"/>
<path transform="translate(1337,640)" d="m0 0h12l11 4 10 9 5 11 1 30v365l-3 10-6 9-8 6-9 4h-11l-12-5-9-8-4-7-2-9v-393l2-6 6-8 5-5 9-6z" fill="#7DB24F"/>
<path transform="translate(953,640)" d="m0 0h12l11 4 9 8 6 12 1 30v365l-3 10-6 9-8 6-10 4h-10l-12-5-8-7-5-8-2-12v-390l2-6 6-8 7-7z" fill="#7DB24F"/>
<path transform="translate(825,704)" d="m0 0h12l11 4 10 9 5 11 1 30v236l-2 9-6 10-9 7-10 4h-9l-11-4-6-4-7-8-3-8-1-5v-265l2-7 7-9 11-8z" fill="#7DB24F"/>
<path transform="translate(1721,704)" d="m0 0h12l11 4 9 8 5 10 1 3 1 39v226l-3 11-4 6-4 5-10 6-5 2h-11l-12-5-9-8-4-7-2-9v-265l2-7 7-9 11-8z" fill="#7DB24F"/>
<path transform="translate(1632,1536)" d="m0 0h63l1 1v228l-4 10-7 9-11 7-4 1h-12l-12-5-9-9-4-9-1-6z" fill="#536883"/>
<path transform="translate(353,1536)" d="m0 0h62l1 1v227l-3 9-6 9-9 7-8 3h-12l-12-5-9-9-4-9-1-5v-227z" fill="#536884"/>
<path transform="translate(992,1536)" d="m0 0h63l1 1v227l-3 9-6 9-9 7-8 3h-12l-12-5-9-9-4-9-1-6z" fill="#536883"/>
<path transform="translate(1017,1408)" d="m0 0h13l10 4 10 9 5 10 1 6v35h35l10 3 9 6 6 8 3 6 1 5v9l-4 10-7 9-7 5-11 3-37 1h-50l-46-1-9-2-10-6-7-8-4-11v-11l4-11 9-9 10-5 3-1h38v-38l3-8 6-9 10-7z" fill="#EFAF68"/>
<path transform="translate(377,1408)" d="m0 0h13l10 4 10 9 5 10 1 6v35h35l10 3 9 6 6 8 3 6 1 5v9l-4 10-8 10-6 4-11 3-37 1h-62l-33-1-10-2-11-7-6-7-4-11v-11l3-9 9-10 11-6 3-1h38v-38l3-8 6-9 10-7z" fill="#EFAF68"/>
<path transform="translate(1657,1408)" d="m0 0h13l10 4 10 9 5 10 1 6v35h35l12 4 9 7 6 10 2 7v9l-4 10-8 10-6 4-11 3-37 1h-47l-49-1-9-2-10-6-7-8-4-11v-11l4-11 9-9 10-5 3-1h38v-38l3-8 6-9 10-7z" fill="#EFAF68"/>
<path transform="translate(1337,1408)" d="m0 0h12l11 4 10 9 5 9 1 6v195l-26 1h-22l-16-1v-197l3-8 6-9 10-7z" fill="#526883"/>
<path transform="translate(697,1408)" d="m0 0h12l11 4 10 9 5 9 1 6v195l-26 1h-22l-16-1v-197l3-8 6-9 10-7z" fill="#526783"/>
<path transform="translate(410,512)" d="m0 0h10l10 3 8 6 6 7 3 8 1 9 1 3h-2l1 93-2 10-6 8-7 7-8 4-4 1h-11l-9-4-9-7-5-7-2-11v-76l1 3 4-2 4 2v-8l-2-11 2-4-10 1v-9l4-10 8-9 8-5z" fill="#C8C2BE"/>
<path transform="translate(410,896)" d="m0 0h10l10 3 8 6 6 7 3 8 1 9 1 3h-2l1 93-2 10-6 8-7 7-8 4-4 1h-11l-9-4-9-7-5-7-2-11v-73l2 1v5l3 1-1-6 2-2 2 1 1-6-2-9v-5-4l1-6 6-13v-6l3-4 3-2z" fill="#C8C2BE"/>
<path transform="translate(673,1696)" d="m0 0h62l1 1v67l-3 10-7 9-10 7-6 2h-12l-12-5-9-9-4-9-1-6v-66z" fill="#536883"/>
<path transform="translate(1313,1696)" d="m0 0h62l1 1v67l-3 10-7 9-10 7-6 2h-12l-12-5-9-9-4-9-1-6v-66z" fill="#536883"/>
<path transform="translate(612,255)" d="m0 0h21l16 2 10 5 5 4 6 9 2 7v11l-4 11-9 10-8 4-8 2-9 1h-23l-13-2-8-4-7-6-5-8-2-7v-14l5-10 8-8 10-5z" fill="#D3DCE4"/>
<path transform="translate(453,255)" d="m0 0h17l14 1 10 3 9 6 6 8 3 9v11l-4 11-7 8-7 5-10 3-9 1h-23l-14-2-8-4-7-6-5-8-2-7v-14l5-10 8-8 10-5z" fill="#D3DCE4"/>
<path transform="translate(294,255)" d="m0 0h16l14 1 10 3 9 6 7 10 2 7v11l-4 11-4 6-10 7-11 3-8 1h-24l-12-2-12-6-6-7-4-8-1-4v-14l5-10 8-8 10-5z" fill="#D3DCE4"/>
<path transform="translate(1017,1408)" d="m0 0h13l10 4 10 9 5 10 1 6v34l-7 1h-55l-2-1v-37l3-8 6-9 10-7z" fill="#526883"/>
<path transform="translate(1657,1408)" d="m0 0h13l10 4 10 9 5 10 1 6v34l-7 1h-55l-2-1v-37l3-8 6-9 10-7z" fill="#526883"/>
<path transform="translate(377,1408)" d="m0 0h13l10 4 10 9 5 10 1 6v34l-7 1h-54l-3-1v-37l3-8 6-9 10-7z" fill="#526883"/>
<path transform="translate(401,516)" d="m0 0 2 1-3 4-1 7-6 11-2 5h-6v-10l6-10 8-7z" fill="#D2DAE0"/>
<path transform="translate(1337,1408)" d="m0 0h12l11 4 10 9 5 9v10h-1l-1-9h-2v-2h-2l-3-5-5-5-3-2v-2l-5-1-3-2-10-1-9 2-7 4 2-4 8-4z" fill="#3A5772"/>
<path transform="translate(697,1408)" d="m0 0h12l11 4 10 9 5 9v10h-1l-1-9-4-2-2-5h-2v-2l-3-1-5-5-7-4-6-1-10 1-4 1 1-3z" fill="#395670"/>
<path transform="translate(427,900)" d="m0 0h5l10 9 4 7 1 4v11l-5-5-1-6-2-5-4-6-4-5-4-2z" fill="#D2D8DF"/>
<path transform="translate(426,515)" d="m0 0 6 1 10 9 4 7v12l-4-2-1-6-2-4-5-11-4-1z" fill="#D2D9DF"/>
<path transform="translate(377,1408)" d="m0 0h13l10 4 10 9 4 7v5l-8-10v-2h-3l-1-4h-3l-1-2-5-3-17-2z" fill="#385671"/>
<path transform="translate(1657,1408)" d="m0 0h13l10 4 10 9 3 5-1 4-6-7v-2h-3l-1-4h-3l-1-2-4-2v-2l-18-1z" fill="#38556F"/>
<path transform="translate(1017,1408)" d="m0 0h13l10 4 10 9 3 5-1 4-6-7v-2h-3l-1-4h-3l-4-4-1-2-18-1z" fill="#38556F"/>
<path transform="translate(1666,1536)" d="m0 0h29v4l-21-1-32-1v-1z" fill="#37546C"/>
<path transform="translate(1e3 1536)" d="m0 0h50v4l-21-1-32-1z" fill="#36536B"/>
<path transform="translate(706,1696)" d="m0 0h29l-1 4-19-1-33-1v-1z" fill="#37546C"/>
<path transform="translate(1347,1696)" d="m0 0h28l-1 4-19-1-33-1v-1z" fill="#37546C"/>
<path transform="translate(389,1536)" d="m0 0h26v4l-21-1h-7l-5-1v-1z" fill="#3A556E"/>
<path transform="translate(322,1144)" d="m0 0h2v2l4 2 11 10 9 6v2h-3v-2l-4-2-11-8-5-5v-2l-3-1z" fill="#405D7F"/>
<path transform="translate(1017,1408)" d="m0 0h13l6 3-2 2v-2l-18-1z" fill="#3F5B73"/>
<path transform="translate(1657,1408)" d="m0 0h13l5 2v1h-9l-10-1z" fill="#405C74"/>
<path transform="translate(377,1408)" d="m0 0h13l3 1v2l-17-1z" fill="#405C74"/>
<path transform="translate(1694,1536)" d="m0 0 1 4-13-1v-2z" fill="#335068"/>
<path transform="translate(1054,1536)" d="m0 0 1 4-13-1v-2z" fill="#335068"/>
<path transform="translate(414,1536)" d="m0 0 1 4-13-1v-2z" fill="#335068"/>
</svg>
