<?xml version="1.0" encoding="UTF-8"?>
<svg version="1.1" viewBox="0 0 2048 2048" width="512" height="512" xmlns="http://www.w3.org/2000/svg">
<path transform="translate(560)" d="m0 0h742l25 6 16 5 15 6 21 11 15 11 13 11 21 21 7 8 14 15 24 26 15 16 11 11 7 8 14 14 7 8 18 18 7 8 12 12 7 8 14 14v2h2l7 8 10 11 12 16 11 19 9 20 6 20 4 21 1 9v306h154l27 2 23 4 25 7 24 10 16 8 15 9 14 10 10 8 10 9 8 7 13 14 13 17 10 15 10 18 9 19 8 24 6 25 3 23 1 25-1 897-4 26-6 25-7 20-14 29-12 19-12 16-10 11-7 8-7 7-8 7-14 11-15 10-17 10-21 10-22 8-28 7-22 4h-620l-36-7-21-6-16-6-25-12-18-11-16-12-11-9-16-15-7-8-13-16-12-18-9-16-10-21-9-27-5-22-3-23-1-16v-28l-40 1-1 10-4 17-6 15-8 14-9 11-2 2 1 4 7 8 9 14 7 16 5 19 1 8v17l-2 13-4 15-7 16-10 15-11 12-12 10-16 9-15 6-14 3-8 1-497 1h-54l-30-1-23-3-23-5-23-7-26-11-20-11-17-11-12-9-13-11-12-11-8-8-9-11-10-12-16-24-12-23-9-21-7-23-4-17-4-25-1-13v-30l3-27 5-25 6-21 8-22 10-21 8-14 7-11 13-18 12-14 23-23 17-13 14-10 25-14 23-10 25-8 28-6 18-2-1-6v-30l4-18 6-15 8-14 9-11 3-5-10-11-11-19-5-13-4-18-1-19 3-21 6-18 9-16 10-13 11-11 14-10 16-8 17-5 14-2h48l1-1030 3-22 6-22 7-18 12-23 10-14 11-13 16-16 17-13 15-9 16-8 19-7 24-6z" fill="#010101"/>
<path transform="translate(1221,729)" d="m0 0h569l25 1 30 6 24 8 15 7 18 11 13 10 10 9 7 6 5 5 4 5v2h2l2 5h2l1 4h2l7 11 9 16 4 9 5 14 5 15 3 17 1 10 1 1 1 14v892l-1 11h-2v9l-4 22-4 10-6 16-7 14-6 10-9 13-6 8h-2l-2 4-7 8-7 7-4 3h-2v2h-2l-1 3-13 9-15 9-21 10-26 8-24 4-16 1h-567l-28-1-15-2-18-4-21-7-21-10-14-9-16-12-13-12-12-13-11-15-12-21-8-19-5-15-5-26-1-11-1-40v-850l2-29 4-19 9-27 11-22 7-11h2l2-5 1-2h2l1-4h2l2-4 9-10 11-11 14-11 15-10 23-12 21-7 16-4 17-3z" fill="#7AC98F"/>
<path transform="translate(574,64)" d="m0 0h99l44 1h597l1 259 6 12 7 6 11 5 8 1 232 1 3 9 1 8v302l-1 1-364 1-22 1-20 3-29 7-19 7-25 12-20 12-21 16-12 11-5 4-7 8-10 11-14 19-12 20-9 18-6 17-6 19-5 23-2 16-1 3-1 813-1 1-7 1h-50l-3-2-4-7-7-8 1-4h2l2-5 3-1 2-5 5-7 3-7h2l1-6 3-6 3-12 2-7v-31l-5-23-4-8-3-8-10-15-7-8v-3l5-5 10-14 4-7 3-8 3-9 4-15 1-7v-18l-4-20-3-11-5-9-3-7-9-13-6-7 2-4 11-14 10-19 5-18 2-13v-15l-2-16-5-17-4-9-8-14-9-11-6-7-16-12-17-9-22-6-8-1-290-1h-84l-1-10v-1017l4-20 3-10 5-12 7-12 12-16 12-12 14-10h2v-2l11-6 12-5 17-5z" fill="#FDD8A7"/>
<path transform="translate(368,1544)" d="m0 0h37l25 4 19 5 19 7 19 9 18 11 13 10 14 12 16 16 11 14 12 18 11 21 8 21 6 24 3 19 1 12v22l-2 17-5 25-7 22-7 17-9 17-12 18-11 14-9 10-11 11-17 13-16 10-21 11-19 7-17 5-28 5-10 1h-27l-28-4-23-6-21-8-16-8-14-8-17-12-12-11-10-9-9-10-12-16-11-18-8-16-8-21-6-22-4-24-1-14v-19l2-19 5-25 9-27 8-17 11-18 11-15 11-12 4-5h2l1-3 8-7 15-12 17-11 23-12 23-9 17-5z" fill="#E88302"/>
<path transform="translate(1219,858)" d="m0 0h578l10 2 10 6 9 8 7 14 2 12v111l-2 11-4 8-8 10-10 7-11 4-346 1-9 6-6 7-3 6-2 13-7-1-52-1-11-1-2-7-4-10-7-7-8-4-5-1-118-1-12-3-13-9-6-8-4-8-2-9v-120l2-9 5-9 7-8 11-7z" fill="#3C9BE2"/>
<path transform="translate(1741,1433)" d="m0 0h83l17 3 9 4 11 6 9 6 14 16 8 14 4 12 1 5v348l-4 15-8 16-6 9h-2l-2 4-2 3h-2v2l-11 8-4 3h-3v2l-11 5-13 4-5 1-14 1h-57l-17-2-15-5-10-6-5-2-5-5-6-4-7-8-7-10-7-12-5-17-1-7v-337l3-16 5-12 9-14 11-11 10-7 9-5 10-4z" fill="#010201"/>
<path transform="translate(1105,770)" d="m0 0m-2 1 2 1-2 11-3 9-4 24-2 26-1 20v837l1 30 3 34 7 28 6 17 4 9 4 10v2l3 1 1-35h1l1 66 2 12 5 12 7 11 7 7 14 9 16 5 10 1h114v1l-7 1-72 1-1 4 5 1 11 4 19 6 17 4 25 3 41 1h548l28-1v2l2 1-14 10-15 9-21 10-26 8-24 4-16 1h-567l-28-1-15-2-18-4-21-7-21-10-14-9-16-12-13-12-12-13-11-15-12-21-8-19-5-15-5-26-1-11-1-40v-850l2-29 4-19 9-27 11-22 7-11h2l2-5 1-2h2l1-4h2l2-4 9-10 11-11z" fill="#4DB76A"/>
<path transform="translate(1328,797)" d="m0 0h350l128 1 14 3 12 4 14 8 11 8 10 9 11 13 8 16 5 13 3 13v138l-4 18-7 15-6 11-8 10-11 11-11 8-8 4-9 4-10 4-16 3h-346l-10-4-5-5-6-7-3-7v-12l3-9 6-8 7-6 4-2 346-1 11-4 11-8 8-11 3-9 1-7v-111l-2-12-7-14-9-8-9-5-10-2h-578l-13 4-11 8-6 8-4 9-1 6v120l3 12 6 9 5 5 10 7 12 3 118 1 10 3 10 9 6 12v12l-6 12-9 8-5 3-4 1h-126l-16-3-15-5-11-6-4-2-3-3-8-6-9-9v-2l-3-1-1-4h-2l-6-9-6-12-3-8-3-12-2-48 1-95 4-18 6-14 6-10 9-12 8-8 13-10 10-6 11-5 16-4 16-1z" fill="#010201"/>
<path transform="translate(540,71)" d="m0 0 5 1v2h2l-1 1125 3 1h21l58 1h193l10 1v1h-372l-1-10v-1017l4-20 3-10 5-12 7-12 12-16 12-12 14-10h2v-2l11-6z" fill="#FEC178"/>
<path transform="translate(1176,1164)" d="m0 0h114l13 1 10 3 16 10v2l4 2 9 10 8 16 3 15v110l-2 13-5 13-8 12-9 9-11 7-12 5-11 2h-112l-13-2-13-5-11-7-8-8v-2h-2l-1-4h-2l-9-19-1-5v-127l4-13 9-14 11-11 13-8 11-4z" fill="#010201"/>
<path transform="translate(1724,1164)" d="m0 0h118l16 4 16 10 6 5 9 12 5 10 3 10 1 5v114l-3 16-8 16-8 10-7 5h-2v2l-11 6-12 4-6 1h-114l-12-2-15-6-7-5-13-13-6-11-4-9-2-10v-119l4-16 6-10 7-9 9-8 10-6 12-5z" fill="#010201"/>
<path transform="translate(1179,1433)" d="m0 0h116l14 3 13 6v2l5 2 7 6 7 8 7 12 4 13 1 8v108l-1 10-4 14-6 10-8 10-10 8-14 7-6 2-47 1h-49l-36-1-12-4-10-6-10-8-6-8-2-5h-2l-5-12-2-7v-128l4-12 8-14 10-10 11-8 16-6z" fill="#010201"/>
<path transform="translate(1184,1689)" d="m0 0h107l15 2 9 4 15 9 6 7 5 5 6 10 5 16 1 9v106l-1 10-4 14-8 13-9 10-10 7-5 3-11 4-15 1h-105l-14-2-12-4-11-7-10-9-7-10-5-11-2-7-1-8v-119l5-16 7-11 8-9 14-10 12-5z" fill="#010201"/>
<path transform="translate(1450,1164)" d="m0 0h118l16 4 15 9v2l4 2 10 11 5 8 4 11 2 16v103l-2 15-4 12-6 10-2 3h-2l-2 4-9 8-12 7-13 4-7 1h-113l-7-1v-2l-8-1-11-4-9-6v-2l-3-1-5-5-7-11v-2h-2l-3-9-2-4-1-23 1-112 4-10 9-14 8-8 10-7 10-5z" fill="#010201"/>
<path transform="translate(1447,1690)" d="m0 0h124l10 3 8 3v2l5 2 10 7 7 8 7 11 5 15 1 11v105l-2 14-4 11-7 12-9 10-10 7-10 5-6 2-14 1h-104l-16-1-13-5-11-7-8-7-2-5h-2l-5-9-5-10-1-3-1-17v-102l1-16 5-12 7-11 12-12 13-8 9-3z" fill="#010101"/>
<path transform="translate(1452,1433)" d="m0 0h112l16 3 10 5 10 7 6 5 4 5 7 10 5 13 1 4v125l-3 12-6 11-8 11-11 9-14 7-6 2-50 1-82-1-16-6-8-6-8-7-5-6-2-5h-2l-4-8-3-8-1-19v-30l1-86 5-12 7-11 12-12 13-8 12-4z" fill="#010101"/>
<path transform="translate(351,1267)" d="m0 0h476l12 3 10 6 5 4 6 8 5 10 2 7v13l-4 12-9 13-11 8-10 4-8 1h-476l-9-2-13-7-9-9-7-14-1-4v-16l3-10 6-10 8-8 13-7z" fill="#FDA334"/>
<path transform="translate(762,669)" d="m0 0h8l9 3 6 4 6 7 3 10v27l24 3 16 4 15 6 12 7 8 9 3 6v11l-5 13-7 8-6 3h-14l-12-5-16-7-19-5h-33l-9 2-12 4-9 6-5 5-6 9-3 15v11l2 11 8 12 9 8 11 6 15 7 13 5 12 4 11 5 13 5 16 8v2l4 1 4 2v2l4 1v2l4 1v2l4 2 8 7 4 6 5 5 3 5v3h2l4 10v3h2l5 22 2 9v33l-5 25-8 20-8 12-11 12-6 5h-2v2l-6 4h-3v2h-3v2l-10 4-9 4-14 3-1 3v22l-4 12-6 8-12 6h-14l-12-6-6-7-4-11v-27l-11-1-17-5-12-5-16-9-9-7-9-8-9-13-3-10v-11l4-9 5-7 9-6 4-1h8l8 4 8 7 7 8 12 10 8 5 15 5 12 2h23l10-2 13-4 11-7 7-7 6-10 4-15 1-16-2-14-4-11-2-6h-2v-3h-2l-1-4-4-2-8-7-15-9-10-5-11-4-6-3-10-3-3-2-6-2-15-6-21-11-11-8-10-9-8-10-8-14-6-21-2-17v-9l2-15 2-12 6-16 7-12 10-12h2v-2l12-9 14-8 14-5 10-3-1-4v-28l5-10 7-7 8-4z" fill="#030201"/>
<path transform="translate(451,1419)" d="m0 0h86l292 1 10 3 12 7 8 9 6 12 2 7v13l-5 13-6 9-7 7-14 7-12 2h-325l-20-8-19-6-21-5-21-3-10-1-92-1-3-5-3-13 1-11 4-12 7-9 5-5 11-7 9-3z" fill="#FB9211"/>
<path transform="translate(1741,1494)" d="m0 0h82l6 3 5 5 3 6 1 258v65l-2 10-6 10-8 6-7 2h-67l-9-5-3-2v-2h-2l-5-10-1-5v-326l3-7 8-7z" fill="#FC9311"/>
<path transform="translate(647,412)" d="m0 0h547l13 5 5 4 6 10 2 6v10l-4 11-8 9h-3v2l-7 3-6 1h-536l-12-2-9-5-5-6v-2h-2l-4-12v-8l3-9 4-6 5-5 8-5z" fill="#030301"/>
<path transform="translate(887,561)" d="m0 0h467l38 1 11 4 8 8 5 11 1 10-4 11-6 8-3 3-5 3-6 2h-530l-11-6-5-5v-3h-2l-4-10v-12l4-10 7-8 8-5 3-1z" fill="#040301"/>
<path transform="translate(384,1594)" d="m0 0h15l9 4 8 7 5 10 2 10 6 2 13 4 14 7 8 8 5 11v11l-4 10-8 9-9 5-3 1h-7l-13-4-13-5-8-2h-14l-10 4-4 5-1 7 4 8 10 6 33 14 19 10 11 9 8 9 8 15 4 11 2 12v24l-4 18-5 12-7 11-7 8-15 11-13 6-2 12-4 8-7 7-10 5-4 1h-7l-10-3-9-6-6-9-2-6-1-8-12-5-14-7-10-8-8-8-6-12-1-3v-13l3-9 9-10 6-4 3-1h14l8 4 10 10 11 7 9 3h13l11-4 5-6 2-5v-12l-3-7-3-5-10-6-21-9-17-7-16-9-11-9-9-12-5-11-4-17v-15l2-14 4-13 7-12 11-12 15-10 7-3 2-15 4-8 5-5 5-4z" fill="#010101"/>
<path transform="translate(368,1544)" d="m0 0h37l25 4 19 5-4 1-17-4-18-3h-43l-7 2v3l-9 6-5 1v2l-8 5h-2v2l-10 8-3 3h-2v2l-6 5-7 8-11 13-9 13-6 9-15 30-8 22-7 25-3 21-1 13v41l3 24 5 23 8 24 9 20 9 16 8 12 8 11 13 16 9 10 7 6v2l4 2 7 6 18 10 1 3 3 2 14 2h20l22-1v1l-17 2h-27l-28-4-23-6-21-8-16-8-14-8-17-12-12-11-10-9-9-10-12-16-11-18-8-16-8-21-6-22-4-24-1-14v-19l2-19 5-25 9-27 8-17 11-18 11-15 11-12 4-5h2l1-3 8-7 15-12 17-11 23-12 23-9 17-5z" fill="#C67102"/>
<path transform="translate(633,1878)" d="m0 0h36l159 1 11 3 8 4 9 8 7 11 4 13v10l-4 13-8 11-9 8-13 6-7 1h-262l1-3 8-7 17-17 11-14 10-13 12-19 8-14z" fill="#B16502"/>
<path transform="translate(589,1572)" d="m0 0 241 1 10 3 11 7 8 9 6 12 2 7v12l-4 12-6 10-7 7-10 6-9 3-7 1h-181l-3-5-9-20-12-22-11-16-10-13-10-11z" fill="#E88302"/>
<path transform="translate(1219,858)" d="m0 0h578v1l-76 1-420 1-19 1-4 1-1 3-2 46v88l3 29 3 9 3 7 4 1 45 1-2 4h-111l-12-3-13-9-6-8-4-8-2-9v-120l2-9 5-9 7-8 11-7z" fill="#2587CE"/>
<path transform="translate(658,1726)" d="m0 0h170l11 3 9 5 9 8 6 10 4 13v10l-4 13-7 11-9 8-13 6-17 2h-148l-15-1 1-10 3-23z" fill="#C67102"/>
<path transform="translate(1379,115)" d="m0 0 5 3 3 5 8 7 10 11 5 5 12 13 12 12 7 8 5 5 12 13 5 5 12 13 11 11 6 7v2l4 2 10 10 7 8v2l4 2 12 13 10 10v2h-160l-1-1v-26z" fill="#FEB85D"/>
<path transform="translate(1456,1224)" d="m0 0h104l3 1v107l-1 1h-107l-1-2v-103z" fill="#307B46"/>
<path transform="translate(1730,1224)" d="m0 0h96l10 1 1 1v106l-1 1h-107l-1-2v-103z" fill="#FB9311"/>
<path transform="translate(1184,1224)" d="m0 0h107l1 1v107l-2 1h-105l-1-1-1-49v-53z" fill="#2F7A45"/>
<path transform="translate(1185,1750)" d="m0 0h106l1 1v97l-1 10-11 1h-95l-2-4v-95l1-9z" fill="#2F7A45"/>
<path transform="translate(1456,1750)" d="m0 0h104l3 1v106l-1 1-64 1h-42l-2-3v-104z" fill="#2F7A45"/>
<path transform="translate(1455,1494)" d="m0 0h107l1 1v106l-1 1-75 1h-29l-3-1-1-2v-104z" fill="#2F7A45"/>
<path transform="translate(1184,1494)" d="m0 0h107l1 1v106l-1 1h-107l-1-42v-64z" fill="#2F7A45"/>
<path transform="translate(542,81)" d="m0 0 4 1-1 2-19 8-16 12-5 5h-2v2h-2l-2 4-4 5-5 7-1 3h-2v2l2 1-4 7-1 6-2 5h-2l-1 7h-2l-4 16-1 14-1 35v40l-2 90v344l1 126v173l-1 47v15l1 39 1 18v40l-1 14-1 8v6l2 7 7 2 7 1 9-1 3 2-7 1-9 1h-9l-7-4-4-3-2-15v-978l2-8 2-4 4-20 4-13 8-16 7-11 11-14 6-7h3v-2l14-9 11-6 5-2z" fill="#FFC876"/>
<path transform="translate(574,64)" d="m0 0h99l44 1h597l1 259 6 12 7 6 11 5 13 2v2l4 1-1 3-11 1v-2l-12-1-10-5-5-4-7-11-2-5-3-24-1-51v-129h-1v-33l1-11v-1l-1-4-4-1v-2l-6 1h-16v1h-30l-1 1-41 1h-426l-60-1v-1h-38l-5-1h-55l-6-1h-18l-17 1-6 1-4-1-1 2-9 1-12 5v-7h-3v-2l-4 1 3-3 13-4z" fill="#FEE1AB"/>
<path transform="translate(658,561)" d="m0 0h79l18 1 8 2 9 6 6 8 3 9v10l-5 12-5 6-7 4-7 3h-108l-9-3-8-7v-2l-3-1-3-6-1-6v-11l4-11 5-6 9-6z" fill="#040301"/>
<path transform="translate(770,403)" d="m0 0h258l68 1 29 1 10 2v2l-9 2-459 1-20 1-10 5-5 5-5 8-2 7v8l3 12h2l4 6 8 5 5 2 9 1h536l8-2 5-1v-2l5-3 6-8 3-9v-10l-2-6v-4h2v2l5 1v2l2 1-1 2h2l2 9-2 16-2 3h-2l-2 4-14 9-10 3-14 1h-31l-57 1h-20l-49 1-125-1v-2l-4 2-6-1h-13l-2 1-7-1h-180v1h-40l-5-1-5-2-10-8v-2l-3-1-6-9-3-13v-11l5-11 6-8 8-5 9-4 14-2z" fill="#FEE1AB"/>
<path transform="translate(1515,349)" d="m0 0h64l3 9 1 8v302l-1 1-364 1-22 1-20 3-29 7-19 7-25 12-20 12-21 16-12 11-5 4-7 8-10 11-14 19-4 7-2-2 1-7 3-4h2l1-4 6-9 10-11 6-8 5-6h2l1-3 4-1 2-4h2v-2l8-7 8-6 8-7 9-6h2v-2l14-8 16-8 9-4 16-6 17-4 22-5 12-2 30-1h85l36-1 14 1h56l36 1 59-2 43-1 13-2 4-3 1-3v-151l1-95h-1v-32l1-10-1-5h-2v-2h-53l-6-1 1-4-4-1z" fill="#FEE0A9"/>
<path transform="translate(925,551)" d="m0 0 185 1 97 1 29 1 9 1-4 3-9 1-57 2-288 1-24 1-8 4-7 6-4 7-2 6v12l3 10h2l3 5 9 6 4 2h530l7-3 6-4 6-8 4-11-1-10-1-7 4-1 5 5 3 8v10l-4 10-5 6-14 9-10 3h-6l-1 1-13 1-70 1h-91l-25-1h-115l-55-2-6-1v-1h-21l-1 2-23 2h-38-2l-58 1-7-2v-2l-7-2-11-7v-2h-2l-6-11-1-4-1-5 1-11 3-8h2l1-4 7-9 6-5 15-5 23-2z" fill="#FEDDA3"/>
<path transform="translate(1305,412)" d="m0 0h85l10 3 8 6 6 9 3 10-1 9-6 12-7 7-9 4h-91l-12-6-7-8-4-10v-11l4-11 6-7 8-5z" fill="#020201"/>
<path transform="translate(971,910)" d="m0 0h1v800l-1 1-7 1h-50l-3-2-4-7-7-8 1-4h2l2-5 3-1 2-5 5-7 3-7h2l1-6 3-6 3-12 2-7v-31l-2-13 2 1 2 6 5 1h33l1-677z" fill="#FEC178"/>
<path transform="translate(1739,1495)" d="m0 0 2 1-10 10v91l1 215 2 3 4 1 74-1 16-1 7 1v-310l2 3 1 258v65l-2 10-6 10-8 6-7 2h-67l-9-5-3-2v-2h-2l-5-10-1-5v-326l3-7z" fill="#E38102"/>
<path transform="translate(985,832)" d="m0 0 1 3-2 10-5 18-4 22-2 12-2 25-1 280-1 68v63l-1 13-1 18v9l1 1v5 4l-1 4v12l1 5-1 7 1 5v71l-1 22-1 10h2l-1 3v10h1v8 2 37l-2 14-4-1 1-6-1-23v-95l-1-38v-138l-1-46v-214l1-35 1-51v-18l2-16v-23l7-26 3-6 3-10h2v-7l3-5z" fill="#FEE2AD"/>
<path transform="translate(1456,1224)" d="m0 0h104l1 2-40 1-8 1-12 1-5 1h-5v-2l-3 1v-2l-6 1h-12l-5-1-1 2-8-3v66h6l2-1h75l17 1 4 1 1-2 1-66h1v107l-1 1h-107l-1-2v-103z" fill="#29723F"/>
<path transform="translate(1729,1225)" d="m0 0h1v57l1 11 12-2h22l21-1h12l19 1h9l7 3 1 2 1-3 1-67h1v106l-1 1h-107l-1-2v-103z" fill="#E58102"/>
<path transform="translate(1562,1495)" d="m0 0h1v106l-1 1-75 1h-29l-3-1-1-2v-104h1l1 66 3 1 5-3h44l45 1 7 2 1-11z" fill="#29723F"/>
<path transform="translate(1562,1751)" d="m0 0h1v106l-1 1-64 1h-42l-2-3v-104h1v68l7-3 3-1h35l54 1 6 2 1-1z" fill="#29723F"/>
<path transform="translate(1291,1751)" d="m0 0h1v97l-1 10-11 1h-95l-2-4v-95h1l1 68-1 2h2v-5l4-8 6-1h71l17 1 3 3v18l2 10-1 3h2z" fill="#29723F"/>
<path transform="translate(1291,1225)" d="m0 0h1v107l-2 1h-105l-1-1v-25l1 3 4-2-1-4 3-6 3-7h24l24-1 24 1h15l4 1v2h2v10l1 7h2z" fill="#29723F"/>
<path transform="translate(1291,1495)" d="m0 0h1v106l-1 1h-107v-27h1v7h3l1-11 2-7 1-3 10-1h48l34 1 3 3 1 13 1 2 1-11z" fill="#29723F"/>
<path transform="translate(872,945)" d="m0 0 5 2 3 5 1 7 3 4 2 15 2 4 1 19-2 27-3 16-3 11-4 9-4 6-6 8-10 10-6 4-13 10h-3v2l-13 6-17 5-2 2-1 6 1 17-4 12h-2l-2 4-11 8-10 3-4 1h-11l-9-3-8-4-5-5v-2h-2l-4-6-2-4-2-3-2-16-3-7-8-4-20-7-15-9-6-4-5-6-4-3-6-5-6-8-3-6-1-3-1-7v-6h-1v-9l2-9 8-10 5-4 1-2 6-1 2 1-1 3-6 4-3 1-2 4-4 6-2 6v11l3 10 7 10 7 8 12 9 16 9 15 6 14 4 11 2 1 27 5 12 4 5 12 6h14l12-6 6-9 3-10v-23l2-3 14-3 9-4 10-3v-2h3v-2l7-4h2v-2l6-4 9-9 7-10 5-9 7-17 5-25v-33l-3-15z" fill="#FEDFA8"/>
<path transform="translate(751,670)" d="m0 0h2l-2 4-8 7-5 10v32l-6 3-13 4-16 8-11 8-4 2v2l-5 5-8 10-6 11-5 14-3 16-1 11v9l2 17 7 23 7 12 8 10 11 10 16 10 23 11 7 3 7 2 6 3 10 3 8 4 10 4 16 9 9 7 6 5 1 4h2v3h2l5 10 3 12 1 15-1 10-5 17-7 10-7 7-12 7-14 1v-3l7-3 4-4 5-1 3-2h3v-2h2v-2h2l2-4 4-6 1-5 1-1 1-4 1-8v-9l-2-15-2-1-3-11-1-3h-2l-9-11-9-6-13-8-20-9-21-8-13-5-19-10-10-7-7-6-8-7-7-8-7-12-4-12v-4l-2-1-1-6-2-2-2-10v-34l3-9 1-7 1-6 8-16 3-5 1-2h2l2-4 5-7 16-14 10-6 9-3 4-2h10v-2l-2-1 4-4-1-16 1-1v-6h2l-1-4 5-9 2-1 3-5 4-1 2 1 1-3z" fill="#FEDFA8"/>
<path transform="translate(1415,577)" d="m0 0 4 1 4 4 3 8v10l-4 10-5 6-14 9-10 3h-6l-1 1-13 1-70 1h-91l-25-1h-115l-55-2v-2l-2-1h-47l-70-1v-1l492-1 10-4 6-4 6-8 4-11-1-10-1-7z" fill="#FEE2AD"/>
<path transform="translate(66,1793)" d="m0 0h27l21 1 2 6 9 41v3h-45l-6-15-7-25-2-10z" fill="#C57102"/>
<path transform="translate(76,1685)" d="m0 0h45l1 3-3 13-4 24-1 7-1 1h-49v-7l6-26 5-14z" fill="#C57102"/>
<path transform="translate(761,773)" d="m0 0h31l4 2-7 1-12 1-15 1-8 3-10 2-4 1v2l-6 4h-2v2h-2l-2 4-5 5 1 5v12l3 1 6 17 6 9 5 6 5 5v2l4 1 4 3v2h5v2h5v2l9 2 13 5 8 3 9 3 10 3 16 8 5 3 4 4 10 6 6 7v5l-7-2-8-6-1-2-3-1-1-2-3-1v-2l-4-1-4-2v-2l-9-3-11-6-14-5-9-4-12-4-10-4-18-8-13-9-8-9-5-8-2-11v-11l3-15 7-11 9-7 7-4 10-3z" fill="#FDDEA7"/>
<path transform="translate(971,910)" d="m0 0h1v800l-1 1-7 1h-50v-1l5-1 50-2 1-786z" fill="#D79137"/>
<path transform="translate(193,1560)" d="m0 0h3l-2 4-16 16-15 20-9 14-6 10-2 1h-17l-19-1 3-5 23-23 13-10 15-10 17-10z" fill="#C57102"/>
<path transform="translate(540,71)" d="m0 0 5 1v2h2v8l-7 1-6 2-1 2-6 2-12 7-7 5h-2v2h-3l-2 4h-2l-2 4-10 13-12 20-6 16-5 24-1 6-2 4-2 2v-26l4-18 8-20 6-10 12-16 12-12 14-10h2v-2l11-6z" fill="#FDC178"/>
<path transform="translate(1319,404)" d="m0 0h14l22 3v3l-3 1-41 1-13 3-9 6-6 9-2 7v11l5 11 6 7 13 6 5 1 24 1v3l-7 3-16 1-4-1-10-2-7-3-8-7-3-4v-2l-3-1-4-10 1-19h2l1-4 3-6h2l2-4 5-5 4-3 9-4z" fill="#FEE1AB"/>
<path transform="translate(916,1256)" d="m0 0 3 1v2l4 2 1 5h2v2h2l3 7 3 8 4 22 1 7v9l-2 11-2 13-5 16-4 8-5 7h-2v2h-2v2l-6 5-1 5 2 7 3 4v2h2l1 4-2 4-7-11-9-11 2-4 11-14 10-19 5-18 2-13v-15l-2-16-5-17-4-9-3-6z" fill="#FEE0A9"/>
<path transform="translate(136,1904)" d="m0 0h18l4 5 10 14 8 10 9 10 10 9 1 3-2 1-21-10-16-10-16-12-14-12-5-4-1-3z" fill="#C47002"/>
<path transform="translate(501,1421)" d="m0 0h186l7 1-2 3-12 2h-156l-3-1-13-1-7-2z" fill="#FFA536"/>
<path transform="translate(658,1726)" d="m0 0h170l11 3-3 1-9-2h-166v48l-3 24-2 12h149l24 1v1l-12 1h-148l-15-1 1-10 3-23z" fill="#B16502"/>
<path transform="translate(653,554)" d="m0 0h23l5 1v2h3v3h-26v2l-15 2-11 8-4 7-2 7v11l2 7 2 5 5 5 7 5 9 3 15 1 5 1-3 3-7 2h-13l-9-3-7-5-7-8-3-4-3-8-1-5v-12l4-10 7-8 5-5 6-4z" fill="#FDE0A8"/>
<path transform="translate(969,1202)" d="m0 0h1v377l-3-1v-36l-1-5 1-4h-1v-11l2-3h-2l1-45v-59l1-3-2-1 1-8-1-5v-13l1-2-1-4h2l-2-6v-11l1-21 1-11v-76z" fill="#FED9A8"/>
<path transform="translate(926,1434)" d="m0 0 2 1 1 3 2-1v2h2l2 6 3 16 1 9-5 31-6 16-4 6-4 5h-2v2h-2l-2 4-5 3v7l5 8-2 4-4-5-8-9v-3l5-5 10-14 4-7 3-8 3-9 4-15 1-7v-18l-4-20z" fill="#FCDCA3"/>
<path transform="translate(961,1602)" d="m0 0 7 1 1 6v97l-3 2-14-1-2-3 9-6 1-3v-41l1-36z" fill="#FFC876"/>
<path transform="translate(489,1502)" d="m0 0 16 1h63l93 1 2 3-21 1h-147l-6-3z" fill="#FEA230"/>
<path transform="translate(1739,1495)" d="m0 0 2 1-10 10-1 334h-1l-1-5v-326l3-7z" fill="#BB6B02"/>
<path transform="translate(591,1574)" d="m0 0h10l-1 5 10 14 5 5 2 5h2l4 6 2 1 2 4v3l4 2 2 4v4l2 1 8 16 5 9 3 2v2h2l1 3-12 1-7-15-8-17-10-17-12-17-8-10-7-8z" fill="#F48F11"/>
<path transform="translate(556,1200)" d="m0 0 72 1h193l10 1v1h-372v-1l7-1z" fill="#FFBD6C"/>
<path transform="translate(1414,425)" d="m0 0 1 2 5 2 5 9 1 3v8l-3 10-6 7h-2v2l-10 6-7 3-10 1-3-3v-3l12-2 8-5 6-7 4-9 1-9-3-10-1-4z" fill="#FEE1AA"/>
<path transform="translate(1821,1496)" d="m0 0h7l5 4 2 3 1 6v86l-1 64-2-4-1-24v-74l1-41h-2l-2-8-7-8z" fill="#FDA334"/>
<path transform="translate(778,577)" d="m0 0 6 3 4 5 2 9-1 9-3 9-8 7-12 6-8-1v-2l5-2 1-2 7-4 6-9 3-8v-10l-2-6z" fill="#FEE1AB"/>
<path transform="translate(548,1193)" d="m0 0 12 1h18l45 2 11 1-4 2-18 2h-63l-6-1 4-1v-5z" fill="#FFE4AF"/>
<path transform="translate(675,1012)" d="m0 0 7 1 1 1 10 2 6 8 4 4 5 2v2h2v2l4 2 5 6 6 4 1-2 5 4 4 2v2h3v2l3 1-1 1-8-1-10-4-12-9-13-12-5-6-8-5-13-2 4-3z" fill="#FDDDA5"/>
<path transform="translate(871,751)" d="m0 0 5 4 4 4v11l-3 9-9 10-5 4-11 2-2-1-1 2-3-3 8-4 8-5 4-5 5-13z" fill="#FDDFA7"/>
<path transform="translate(1761,1226)" d="m0 0h75v46l-2 1-2-12v-13l-2-15-2-4-5-1-4 1-19 1h-23l-9-1-7-2z" fill="#FFA536"/>
<path transform="translate(843,1201)" d="m0 0 10 2 15 5 5 2 8 3 3 3 5 1 6 4 11 11v6l-7-3-13-11-9-6-17-8-21-6v-2z" fill="#FDDDA5"/>
<path transform="translate(1832,888)" d="m0 0 2 4 1 8v111l-2 11h-1l-1-10z" fill="#2680A1"/>
<path transform="translate(208,1639)" d="m0 0 1 2-11 18-7 16-6 16-6 23-3 21-1 15v17l2 23 3 16v5l-2-3-4-21-2-22v-19l2-19 5-25 9-27 8-17 11-18z" fill="#B16502"/>
<path transform="translate(1582,366)" d="m0 0h1v140l-1 55h-1l-1-55v-42l1-13z" fill="#FAC682"/>
<path transform="translate(863,1472)" d="m0 0 1 4-2 8-6 9-7 7-14 7h-26v-1l16-1v-1l7-1 12-8 8-6 2-5h2l1-5h2v-2h2z" fill="#F79E2F"/>
<path transform="translate(863,1626)" d="m0 0h1v7l-5 9-9 10-10 6-5 2h-9l2-2 7-3 2-4 6-4 1-2 5-3 5-6 5-2z" fill="#F18C0E"/>
<path transform="translate(589,1572)" d="m0 0 241 1 10 3 1 2-12-3h-238-3z" fill="#B26602"/>
<path transform="translate(513,85)" d="m0 0h3v2l-10 6-4 5-5 6h-2l-2 5-3 1v2l-4 4-6 11h-2l-2 6-6 11-2 7-3 2v-7l5-12 7-12 12-16 12-12z" fill="#FCDA9F"/>
<path transform="translate(348,1421)" d="m0 0h16l-4 2-3 2-19 4-4 1-1 3-7 2-7 7-3 1 2-5 5-6 14-9 2-1z" fill="#F59C2E"/>
<path transform="translate(927,1591)" d="m0 0 2 1 2 6 9 4v10l-5 6-2 7-2 4h-1l-1-25z" fill="#FFC572"/>
<path transform="translate(556,1200)" d="m0 0 13 1 30 1v1h-140v-1l7-1z" fill="#DA9335"/>
<path transform="translate(1732,1834)" d="m0 0 4 2 5 7 2 5 7 4v3h2v2l-10-1-6-4v-2h-2l-2-3-1-5v-7z" fill="#F69010"/>
<path transform="translate(1751,1047)" d="m0 0h44l9 2-4 2h-37l-23-2v-1z" fill="#2686C7"/>
<path transform="translate(666,1015)" d="m0 0 4 1-1 3-6 4-3 1-2 4-4 6-2 6-1 11h-1l-1-5-3-4 2-10 8-10 5-4 1-2z" fill="#FEDEA5"/>
<path transform="translate(839,1425)" d="m0 0 6 1 9 7 6 8 4 7v5l-5-2-7-14-4-2v-3l-4-1-3-1z" fill="#F09728"/>
<path transform="translate(1007,788)" d="m0 0 1 3-8 14-7 14-6 17-2 2v-11l2-3-1-2 2-5 4-2 1-2 1-5 2-2 2-6h2l2-6z" fill="#FEDCA2"/>
<path transform="translate(917,1682)" d="m0 0h2v2l-3 3-2 1-1 7 4 5 1 8h-3l-5-5-1-6-1-3h-2v-3l-3 1v-2l6-5 5-1z" fill="#FFC776"/>
<path transform="translate(1303,664)" d="m0 0 18 1v1l17 1v1h-112v-1l68-1v-1z" fill="#FED9A8"/>
<path transform="translate(462,1757)" d="m0 0 3 3 7 15 4 16 1 16-2 13-5 18-2 2 2-9 3-15v-24l-3-15-7-16z" fill="#B76802"/>
<path transform="translate(1732,1324)" d="m0 0 5 1 3 2 17 2 1 1 8 1v1h-36v-7z" fill="#FD9412"/>
<path transform="translate(970,1707)" d="m0 0v3l-6 2h-50v-1l5-1 50-2z" fill="#E29A3C"/>
<path transform="translate(1741,1495)" d="m0 0h19l-3 2-8 3-3 1-9 5-5 3h-2l1-4z" fill="#FEA434"/>
<path transform="translate(1389,560)" d="m0 0h8l13 5 5 6 1 6-3 3-5-8-7-6-11-4z" fill="#FEDDA4"/>
<path transform="translate(938,1623)" d="m0 0 2 3-1 13-4 16-2 1 2-24h-2v2h-2l1-9h2v3l3-2z" fill="#FFC776"/>
<path transform="translate(1413,153)" d="m0 0 5 2 7 8 8 7 9 10 5 6-5-1-1-3-4-2-7-8-17-17z" fill="#F7BB66"/>
<path transform="translate(1834,1835)" d="m0 0h1v8l-6 9-7 5h-7l2-4 6-2 5-1-1-5h2v-2l2-2z" fill="#EA880C"/>
<path transform="translate(226,1897)" d="m0 0 8 6 9 10 4 3v2l4 2 3 4-5-1-9-9-8-7-6-7z" fill="#D57902"/>
<path transform="translate(830,723)" d="m0 0 11 3 15 7 1 5-12-6-11-4-5-1z" fill="#FCDAA0"/>
<path transform="translate(471,1667)" d="m0 0 2 1-1 10-4 5-6 1 2-6 4-10z" fill="#F18C0E"/>
<path transform="translate(1182,407)" d="m0 0 16 2 5 4v2l-9-2-18-2v-2z" fill="#FEDFA8"/>
<path transform="translate(821,974)" d="m0 0 2 2 3 12 1 15-1 10-2 2-1-31-5-8h3z" fill="#E39E46"/>
<path transform="translate(114,1717)" d="m0 0h1v8l-1 7-1 1h-49v-7h1v6l46-1v-5z" fill="#B16502"/>
<path transform="translate(901,1691)" d="m0 0h5v3h2l3 5v6l-2 1-7-9-2-4z" fill="#FFC47A"/>
<path transform="translate(925,1580)" d="m0 0 3 2 2-1 3 6v6l-3 4-3-6-2-5z" fill="#FAD99F"/>
<path transform="translate(1379,407)" d="m0 0 16 2 5 2 2 4-7-1-16-3z" fill="#FEE0AA"/>
<path transform="translate(739,1056)" d="m0 0h35l2 2-2 1h-23l-12-2z" fill="#E7A551"/>
<path transform="translate(1363,474)" d="m0 0h19l-1 4-8 1-7-1v-2h-3z" fill="#FEE3AE"/>
<path transform="translate(390,1681)" d="m0 0h14l14 4 2 2-11-2-4-1h-16l-7 1 4-3z" fill="#B96A02"/>
<path transform="translate(1105,770)" d="m0 0m-2 1 2 1-24 24-1-3 16-16z" fill="#62B97A"/>
<path transform="translate(988,817)" d="m0 0h3 1v6l-6 15-1-3v-8l2-3-1-2z" fill="#F7D192"/>
<path transform="translate(1485,229)" d="m0 0 4 1 3 3v2l4 2 9 9-2 1-3-1v-2h-2v-2l-4-2-9-9z" fill="#EFB059"/>
<path transform="translate(186,1945)" d="m0 0 8 6 2 4-2 1-13-6z" fill="#C06E02"/>
<path transform="translate(469,1495)" d="m0 0h6l4 3 9 2 1 4-5-1-15-5z" fill="#EF9728"/>
<path transform="translate(1287,1585)" d="m0 0h3l1 7v9h-13v-1h9z" fill="#307B46"/>
<path transform="translate(927,1591)" d="m0 0 2 1 2 6 5 2-3 1v3h-2v25h-1l-1-25z" fill="#D68F36"/>
<path transform="translate(918,1414)" d="m0 0 3 3 5 1 2 7-1 1-1 7-2-3-2-6-4-8z" fill="#F1C683"/>
<path transform="translate(513,85)" d="m0 0h3v2l-10 6-4 5-4 4-3 1v-3l11-10z" fill="#FFDBA0"/>
<path transform="translate(843,1580)" d="m0 0 5 1 8 7 2 6h-3v-2l-2-1-4-4-6-5z" fill="#E9870B"/>
<path transform="translate(1739,1495)" d="m0 0 2 1-10 10-1 31h-1v-32l7-8z" fill="#DC8009"/>
<path transform="translate(528,1913)" d="m0 0m-1 1m-1 1m-1 1m-1 1m-1 1m-1 1m-1 1m-1 1 1 2-4 5-9 6-3-1 7-6h2l1-3z" fill="#EB880C"/>
<path transform="translate(246,1596)" d="m0 0 2 1-26 26v-3l8-8 3-4h2l1-3 8-7z" fill="#B86902"/>
<path transform="translate(1185,1595)" d="m0 0 3 1 2 3 22 1v1l-28 1z" fill="#2F7A45"/>
<path transform="translate(1491,351)" d="m0 0h14l-1 2h-7v2h-14l1-2z" fill="#FFE4AF"/>
<path transform="translate(406,1822)" d="m0 0 2 1-8 4-4 1h-13l-6-2 4-1h13l10-2z" fill="#B96A02"/>
<path transform="translate(927,1427)" d="m0 0 4 2 1 2v8l-3 2-3-7v-6z" fill="#FEE2AC"/>
<path transform="translate(1834,1835)" d="m0 0h1v8l-3 5-4 2-1-5h2v-2l2-2z" fill="#F18C0E"/>
<path transform="translate(141,1592)" d="m0 0 2 1-16 15-6 6-2-1 6-7 8-7z" fill="#BA6A02"/>
<path transform="translate(1289,1316)" d="m0 0h1l1 5v10l-4-1v-11z" fill="#307B46"/>
<path transform="translate(796,711)" d="m0 0 3 1 4 5 1 3h-9z" fill="#FEE2AC"/>
<path transform="translate(532,1911)" d="m0 0 3 1-8 8-5 4-2-1 7-8z" fill="#DF8109"/>
<path transform="translate(1472,214)" d="m0 0 4 2 10 10-3 1-3-2-1-3-4-2v-2h-2z" fill="#EBAB53"/>
<path transform="translate(910,1397)" d="m0 0 3 1 2 5h2l1 4-2 4-6-10z" fill="#FEDDA5"/>
<path transform="translate(459,1194)" d="m0 0 2 3 4 2 14 1v1l-20 1z" fill="#FFE4AF"/>
<path transform="translate(974,880)" d="m0 0h1l-1 14-1 3-1 13h-1v-19z" fill="#E7AC5D"/>
<path transform="translate(176,1936)" d="m0 0 4 2 6 6-1 4-4 1-1-2 3-1-7-8z" fill="#D97B02"/>
<path transform="translate(421,1897)" d="m0 0 2 1-2 5-5 5-3-1 5-8z" fill="#F38E0F"/>
<path transform="translate(1185,1324)" d="m0 0 3 4 2 1v2l9-1 9 1v1h-23z" fill="#307B46"/>
<path transform="translate(767,665)" d="m0 0 6 1 6 4-4 1-6-2-3-3z" fill="#FEDFA7"/>
<path transform="translate(214,1882)" d="m0 0 4 2v3l4 2 1 5-4-2-5-7z" fill="#D87A02"/>
<path transform="translate(192,1562)" d="m0 0h2l-2 4-5 1-2 4h-5l2-4z" fill="#E38102"/>
<path transform="translate(1505,247)" d="m0 0 8 8v2l4 2 1 2-4-1-10-10z" fill="#F4B65F"/>
<path transform="translate(78,1835)" d="m0 0 4 1 3 5 2 2h-6l-2-1z" fill="#E07F02"/>
<path transform="translate(1737,1226)" d="m0 0h15l-4 3-5 1-6-2z" fill="#FFA536"/>
<path transform="translate(866,934)" d="m0 0 3 1 2 4 3 1-1 10-2-3-3-10h-2z" fill="#F4C886"/>
<path transform="translate(1380,116)" d="m0 0 4 2 3 6h-6l-1 2z" fill="#FAC87B"/>
<path transform="translate(823,784)" d="m0 0 7 1 2 5h-6l-3-3z" fill="#FEE0AB"/>
<path transform="translate(857,733)" d="m0 0h3v2h2v2l3 1-1 3-4-1-3-3z" fill="#FEE1AB"/>
<path transform="translate(193,1560)" d="m0 0h3l-1 3-4 1-10 5-3-1z" fill="#B66802"/>
<path transform="translate(469,141)" d="m0 0 1 4-2 6-3 2v-7z" fill="#FCDCA4"/>
<path transform="translate(826,1575)" d="m0 0h7l8 3v2l-6-1-9-3z" fill="#F9910F"/>
<path transform="translate(920,1569)" d="m0 0h2l2 2 2 4-3 3-3-5z" fill="#F7CE8E"/>
<path transform="translate(997,806)" d="m0 0 1 3-5 10-2-3 2-3 1-4z" fill="#FEDA9F"/>
<path transform="translate(481,1499)" d="m0 0 7 1 1 4-5-1-6-2z" fill="#EA9223"/>
<path transform="translate(968,1595)" d="m0 0 1 4-2 1h-9l-1-2h9v-2z" fill="#FFE4AF"/>
<path transform="translate(1043,623)" d="m0 0h5v2l11 1v1h-10l-6-2z" fill="#FED9A8"/>
<path transform="translate(771,566)" d="m0 0 7 6-1 3-3-1-3-4z" fill="#FEE0A9"/>
<path transform="translate(132,1914)" d="m0 0h2v2l4 2 4 3v2l-5-2-5-5z" fill="#D47802"/>
<path transform="translate(821,974)" d="m0 0 2 2 2 7-1 4-4-8-2-3h3z" fill="#DEA254"/>
<path transform="translate(988,825)" d="m0 0 1 2-2 9-2 2v-10z" fill="#F0C481"/>
</svg>
