<?xml version="1.0" encoding="UTF-8"?>
<svg version="1.1" viewBox="0 0 2048 2048" width="512" height="512" xmlns="http://www.w3.org/2000/svg">
<path transform="translate(989)" d="m0 0h53l25 6 16 5 20 8 23 12 11 7 17 12 17 14 15 14 17 17 7 8 11 13 13 17 13 18 17 26 17 29 13 25 10 19 15 33 15 36 15 40 14 41 9 30 1 4 9-1 53-10 37-6 41-5 32-3 20-1 50-1 40 1 26 2 32 4 27 5 32 8 32 11 20 9 23 12 18 12 14 11 12 11 13 13 10 13 10 15 10 18 10 25 6 23 3 19 2 19v17l-3 29-4 23-6 24-12 36-13 30-15 30-14 24-13 21-15 22-13 18-12 16-13 16-11 14-9 10-7 8-12 14-14 15-12 13-30 30-2 1v2l5 5 9 10 9 11 12 14 9 11 11 14 13 17 14 19 16 23 7 11 12 19 14 24 11 20 11 23 11 25 11 30 8 28 5 24 3 22 1 14v33l-2 21-4 20-1 7 5 18 2 17v25l-3 21-8 24-11 21-12 16-5 6-8 7-9 8-19 12-18 8-17 5-12 3-11 1h-17l-20-2-20-5-19-8-14-8-11-7-52 4h-52l-45-3-43-5-43-7-45-9-20-5h-2l-9 29-15 46-15 40-13 31-11 24-14 29-15 28-13 21-9 14-11 16-9 12-10 13-12 14-14 15-16 16-11 9-12 10-24 16-18 10-21 9-25 8-21 5h-48l-25-5-19-5-22-8-27-14-21-14-14-11-11-9-16-15-13-13-7-8-8-9-11-14-13-17-11-16-13-20-14-24-10-18-14-27-13-28-14-33-9-23-6-15-10-29-11-33-7-24v-4l-65 12-46 7-33 4-36 3-41 2h-37l-41-2-35-4-29-5-25-6-27-8-26-10-25-12-18-11-14-10-13-11-12-11-11-12-10-13-12-19-8-16-6-15-6-20-4-20-2-17v-34l4-31 6-28 9-29 11-29 16-33 12-23 8-13 11-18 14-21 13-18 8-11 10-13 11-14 12-14 9-11 10-11 7-8 18-20 13-13 2-3h2l2-4 16-16h2l-3-5-11-13-13-15-9-11-13-16-15-20-10-13-16-23-14-21-13-21-12-21-15-28-14-31-11-29-9-29-7-32-3-22-1-12v-30l2-21 5-24 8-24 11-23 10-16 2-7-1-8v-17l3-21 5-19 9-20 10-16 9-11 9-10 13-11 19-12 18-8 17-5 19-3 12-1h11l23 3 17 5 18 8 15 9 10 8 10 9 9 9 5 6v2l52 2 39 3 42 5 37 6 45 9 22 5 2-9 8-27 14-43 11-30 14-35 12-27 14-29 13-25 16-27 10-16 11-16 12-16 11-14 9-10 7-8 9-10 9-9 8-7 14-12 18-13 14-9 16-9 21-9 26-8zm23 120-17 2-14 4-16 8-16 10-13 11-3 2v2l-4 2-12 12-9 11-12 15-14 20-13 21-13 23-19 38-16 37-15 40-12 36-12 39 1 3 28 10 32 11 30 11 41 16 36 15 30 13 35 16 7 2 23-10 40-16 43-16 36-13 45-15 37-11 9-3-7-25-12-36-11-30-15-37-13-29-18-36-14-24-12-20-11-16-12-16-9-11-11-12-7-8-11-10-14-11-14-9-16-8-15-5-10-2zm-559 393-6 20-8 17-7 11-9 12-10 11-11 9-13 9-15 8-19 7-20 5-11 1h-16l-19-2-17-4-17-6-6-1v26l3 23 6 25 7 21 11 26 10 21 13 23 8 14 15 23 8 12 10 14 9 12 13 17 13 16 9 11 12 14 11 12 4-1 13-11 22-18 14-11 15-12 12-9 21-16 14-10 19-14 19-13 18-13 17-11 9-7 9-81 8-57 10-60 7-37-8-3-43-9-49-8-36-4-28-2zm1128 16-45 3-41 5-40 6-48 9-4 2 4 19 12 63 9 57 7 51 4 35 2 18 4 5 11 8 21 16 16 12 16 13 14 11 17 14 11 9 15 13 11 9 12 11 8 7 10 9 12 11 14 13 4 4 4-1 10-9 10-10 7-8 16-16 7-8 9-10 7-8 12-14 8-10 11-14 15-20 12-17 12-18 12-20 12-22 12-25 9-24 6-21 4-21v-34l-4-17-6-14-8-12-9-10-14-11-15-9-17-8-27-9-26-6-26-4-40-3zm-826 42-2 2-10 56-9 59v5l16-8 25-14 18-10 28-15 19-10 29-15 7-3-4-4-32-13-35-13-47-16zm528 13-30 9-31 10-54 19 1 3 27 15 17 10 26 15 28 17 21 13 18 12h2l-6-37-7-40-9-46zm-263 98-25 11-29 14-23 11-44 22-19 10-28 15-23 13-29 16-44 26-21 13-13 8-3 4-3 61-1 29v115l2 61 4 66 2 17 9 7 19 13 42 28 18 11 24 15 28 17 17 10 26 15 16 9 27 15 26 14 29 15 12 6 6-1 22-10 15-7 39-19 29-14 54-28 18-10 24-13 17-10 28-16 20-12 28-17 11-7 1-1 4-82v-140l-4-85-3-34-5-5-48-32-20-13-22-14-21-13-28-17-26-15-17-10-27-15-22-12-28-15-23-12-16-8zm-427 246-10 8-19 14-14 11-13 10-16 13-11 9-17 14 2 4 30 28 8 7 10 9 11 9 10 9 11 9 13 11 6 5h2v-20l-1-52v-98zm859 31 1 39v120l5-2 19-14 18-14 16-12 13-11 10-8 14-11 1-4-17-16-14-13-11-9-13-12-11-9-14-12-14-11zm-1048 129-29 29-7 8-7 7-7 8-10 11-9 11-13 15-10 13-14 18-12 17-16 24-15 25-14 27-9 20-9 25-6 25-2 12v31l3 15 6 16 7 11 9 11 11 9 11 8 19 10 21 8 20 6 31 6 24 3 25 2h69l40-3 43-5 50-8 37-7 4-2-14-73-8-48-9-64-6-51-5-5-19-14-13-10-18-14-13-10-17-14-10-8-13-11-11-9-15-13-8-7-10-9-14-12-13-12-7-7-8-7-6-5-2-3zm1230 44-17 14-16 13-14 11-15 12-16 12-13 10-36 26-14 10-20 14-27 18-2 2-4 40-7 59-8 55-9 51-7 36 7 3 21 5 42 8 33 5 33 4 53 3h27l2-1 5-30 5-18 6-14 8-14 10-14 12-13 13-11 15-10 19-9 20-6 21-3h34l1-2-5-19-7-23-12-29-13-27-10-18-17-28-17-25-13-18-12-16-11-14-14-17-12-14-9-10-6-8zm-894 217 6 35 10 55 5 25 8-1 42-13 56-19 6-3-4-4-11-6-28-16-29-17-23-14-26-16-9-6zm571 7-25 14-23 13-32 17-22 12-44 22 4 4 37 15 35 13 34 12 14 5h3l6-31 8-46 7-47v-3zm-295 145-11 5-53 21-41 15-40 14-46 15-30 9-3 2 1 5 13 41 10 29 17 43 13 30 16 33 11 21 16 27 14 21 14 19 12 14 7 8 19 19 17 13 13 8 16 8 17 5 20 1 19-3 18-7 13-7 14-10 14-12 16-16 7-8 11-14 13-18 12-19 13-22 15-30 8-17 7-15 11-27 11-29 12-35 11-36-1-3-43-15-42-15-41-16-41-17-30-13-37-17z" fill="#1E5A95"/>
<path transform="translate(1025)" d="m0 0h17l25 6 16 5 20 8 23 12 11 7 17 12 17 14 15 14 17 17 7 8 11 13 13 17 13 18 17 26 17 29 13 25 10 19 15 33 15 36 15 40 14 41 9 30 1 4 9-1 53-10 37-6 41-5 32-3 20-1 50-1 40 1 26 2 32 4 27 5 32 8 32 11 20 9 23 12 18 12 14 11 12 11 13 13 10 13 10 15 10 18 10 25 6 23 3 19 2 19v17l-3 29-4 23-6 24-12 36-13 30-15 30-14 24-13 21-15 22-13 18-12 16-13 16-11 14-9 10-7 8-12 14-14 15-12 13-30 30-2 1v2l5 5 9 10 9 11 12 14 9 11 11 14 13 17 14 19 16 23 7 11 12 19 14 24 11 20 11 23 11 25 11 30 8 28 5 24 3 22 1 14v33l-2 21-4 20-1 7 5 18 2 17v25l-3 21-8 24-11 21-12 16-5 6-8 7-9 8-19 12-18 8-17 5-12 3-11 1h-17l-20-2-20-5-19-8-14-8-11-7-52 4h-52l-45-3-43-5-43-7-45-9-20-5h-2l-9 29-15 46-15 40-13 31-11 24-14 29-15 28-13 21-9 14-11 16-9 12-10 13-12 14-14 15-16 16-11 9-12 10-24 16-18 10-21 9-25 8-21 5h-39v-121l1-1h13l19-3 18-7 13-7 14-10 14-12 15-15 7-8 11-14 13-18 12-19 13-22 15-30 8-17 7-15 11-27 11-29 12-35 11-36 8-30 9-34 10-45 5-25 9-49 9-60 1-3-27 15-23 13-32 17-22 12-44 22-7-1-26-11-11-5-32-14-15-7-33-16-22-11 3-3 22-10 15-7 39-19 29-14 54-28 18-10 24-13 17-10 28-16 20-12 28-17 11-7 4-82v-140l-4-85-3-34-2-31-5-47-4-34-5-35-2-16-8-48-12-63v-5l-33 10-31 10-54 19-5-1-51-27-29-15-17-8-16-8-17-8-11-6 4-3 36-15 39-15 46-17 50-17 45-14 11-3 1-1-10-33-10-30-15-40-14-33-11-24-16-32-14-24-12-20-11-16-12-16-9-11-11-12-7-8-10-9-14-11-14-9-16-8-15-5-10-2 1-121zm556 529-45 3-41 5-40 6-48 9-4 2 4 19 12 63 9 57 7 51 4 35 2 18 4 5 11 8 21 16 16 12 16 13 14 11 17 14 11 9 15 13 11 9 12 11 8 7 10 9 12 11 14 13 4 4 4-1 10-9 10-10 7-8 16-16 7-8 9-10 7-8 12-14 8-10 11-14 15-20 12-17 12-18 12-20 12-22 12-25 9-24 6-21 4-21v-34l-4-17-6-14-8-12-9-10-14-11-15-9-17-8-27-9-26-6-26-4-40-3zm-129 430 1 39v120l5-2 19-14 18-14 16-12 13-11 10-8 14-11 1-4-17-16-14-13-11-9-13-12-11-9-14-12-14-11zm182 173-17 14-16 13-14 11-15 12-16 12-13 10-36 26-14 10-20 14-27 18-2 2-4 40-7 59-8 55-9 51-7 36 7 3 21 5 42 8 33 5 33 4 53 3h27l2-1 5-30 5-18 6-14 8-14 10-14 12-13 13-11 15-10 19-9 20-6 21-3h34l1-2-5-19-7-23-12-29-13-27-10-18-17-28-17-25-13-18-12-16-11-14-14-17-12-14-9-10-6-8z" fill="#0E375C"/>
<path transform="translate(1443,800)" d="m0 0 9 6 21 16 12 9 13 10 16 13 14 11 13 11 10 8 15 13 11 9 12 11 8 7 10 9 12 11 14 13 4 4 3 1 7 8 50 50 7 8 9 9 7 8 5 6 5 5 9 10 9 11 12 14 9 11 11 14 13 17 14 19 16 23 7 11 12 19 14 24 11 20 11 23 11 25 11 30 8 28 5 24 3 22 1 14v33l-2 21-4 20-1 7 5 18 2 17v25l-3 21-8 24-11 21-12 16-5 6-8 7-9 8-19 12-18 8-17 5-12 3-11 1h-17l-20-2-20-5-19-8-14-8-11-7-52 4h-52l-45-3-43-5-43-7-45-9-20-5h-3v-5h2l4-17 10-38 8-35 5-23 18 5 46 9 39 6 33 4 53 3h29l2-19 5-23 8-20 8-14 10-14 12-13 10-9 16-11 17-9 21-7 16-3 9-1h34l-7-27-7-21-10-24-13-27-10-18-17-28-17-25-13-18-12-16-11-14-14-17-12-14-9-10-5-7-3-1-4-5v-2h-2l-7-8-12-13-7-7-7-8-30-30-8-7-9-7-3-5-13-12-7-7-11-9-13-12-11-9-10-9-11-9-16-13-2-2-2-45-6-84-1-12z" fill="#FDD19A"/>
<path transform="translate(1015,809)" d="m0 0h29l26 4 24 7 20 8 21 11 19 13 13 11 12 11 10 11 12 16 11 18 8 16 8 20 6 21 4 23 1 8v34l-4 26-6 23-8 21-8 16-8 14-10 14-11 13-11 12-8 7-15 12-21 13-23 11-17 6-18 5-31 5h-19l-23-2-23-4-21-6-24-10-20-11-17-12-13-11-20-20-13-17-11-18-12-25-7-21-5-22-2-14-1-15v-17l3-26 4-19 8-24 6-14 11-20 11-16 11-13 7-8 11-11 14-11 14-10 22-12 19-8 23-7 21-4z" fill="#B50733"/>
<path transform="translate(1608,407)" d="m0 0 47 1 26 2 32 4 27 5 32 8 32 11 20 9 23 12 18 12 14 11 12 11 13 13 10 13 10 15 10 18 10 25 6 23 3 19 2 19v17l-3 29-4 23-6 24-12 36-13 30-15 30-14 24-13 21-15 22-13 18-12 16-13 16-11 14-9 10-7 8-12 14-14 15-12 13-30 30-4 1-10-10-7-8-9-9-7-8-50-50 1-4 10-9 9-9 7-8 16-16 7-8 9-10 7-8 12-14 8-10 11-14 15-20 12-17 12-18 12-20 12-22 12-25 9-24 6-21 4-21v-34l-4-17-6-14-8-12-9-10-13-10-15-9-17-8-27-9-26-6-26-4-40-3h-59l-45 3-41 5-40 6-48 9-4 1-9-40-14-54-6-22v-2h-2l1-2 9-1 53-10 37-6 41-5 32-3 20-1z" fill="#FB681F"/>
<path transform="translate(318 1e3)" d="m0 0 5 1 2 4 3 1 7 8 14 15 16 16 7 8 31 31-1 4-26 26-7 8-7 7-7 8-10 11-9 11-13 15-10 13-14 18-12 17-16 24-15 25-14 27-9 20-9 25-6 25-2 12v31l3 15 6 16 7 11 8 9v2l4 2 9 8 13 8 15 8 21 8 20 6 31 6 24 3 25 2h69l40-3 43-5 50-8 37-7 4-1 6 24 9 38 10 36 4 16v3l2 1-65 12-46 7-33 4-36 3-41 2h-37l-41-2-35-4-29-5-25-6-27-8-26-10-25-12-18-11-14-10-13-11-12-11-11-12-10-13-12-19-8-16-6-15-6-20-4-20-2-17v-34l4-31 6-28 9-29 11-29 16-33 12-23 8-13 11-18 14-21 13-18 8-11 10-13 11-14 12-14 9-11 10-11 7-8 18-20 13-13 2-3h2l2-4z" fill="#FC8958"/>
<path transform="translate(168,500)" d="m0 0h2l2 4 3 15 4 12 8 17 10 16 13 15 8 8 13 10 17 11 2 3v25l3 23 6 25 7 21 11 26 10 21 13 23 8 14 15 23 8 12 10 14 9 12 13 17 13 16 9 11 12 14 12 13 11 12 7 8 9 10 3 3v2h2l7 8 35 35 8 6 2 1 3 5 13 12 7 7 8 7 10 9 8 7 28 24 13 11 10 8 3 2 1-4 6 98 5 55v11l-1-2-4-2-19-14-13-10-18-14-13-10-17-14-10-8-13-11-11-9-15-13-8-7-10-9-14-12-13-12-7-7-8-7-7-6-1-2h-3l-5-7-8-7-25-25-7-8-19-19-7-8-1-3-3-1-5-6-3-2-3-5-11-13-13-15-9-11-13-16-15-20-10-13-16-23-14-21-13-21-12-21-15-28-14-31-11-29-9-29-7-32-3-22-1-12v-30l2-21 5-24 8-24 11-23 10-16z" fill="#02FDEC"/>
<path transform="translate(1443,800)" d="m0 0 9 6 21 16 12 9 13 10 16 13 14 11 13 11 10 8 15 13 11 9 12 11 8 7 10 9 12 11 14 13 4 4 3 1 7 8 50 50 7 8 9 9 7 8 5 6 5 5 9 10 9 11 12 14 9 11 11 14 13 17 14 19 16 23 7 11 12 19 14 24 11 20 11 23 11 25 11 30 8 28 5 24 3 22 1 14v33l-2 21-4 20-3 3-12-24-10-14-12-13-7-7-12-9-11-7-16-8-21-7-12-3-4-17-6-21-8-21-8-18-11-23-10-18-17-28-17-25-13-18-12-16-11-14-14-17-12-14-9-10-5-7-3-1-4-5v-2h-2l-7-8-12-13-7-7-7-8-30-30-8-7-9-7-3-5-13-12-7-7-11-9-13-12-11-9-10-9-11-9-16-13-2-2-2-45-6-84-1-12z" fill="#01DEC2"/>
<path transform="translate(782,455)" d="m0 0 35 12 43 15 44 17 39 16 37 16 35 16 17 7 16 8 17 8 16 8 17 9 16 8 27 14 22 12 12 6 24 14 26 15 29 17 42 26 12 8 8 59 5 47 3 31v17l-9-5-23-16-40-26-22-14-21-13-28-17-26-15-17-10-27-15-22-12-28-15-23-12-21-10-19-10-27-13-36-16-24-11-30-12-7-3-31-13-41-15-44-15-3-2v-8l6-31 16-63z" fill="#01DEC2"/>
<path transform="translate(723,1194)" d="m0 0 11 7 11 8 27 18 23 15 19 12 21 13 28 17 17 10 26 15 16 9 27 15 26 14 29 15 21 10 16 8 33 16 33 15 17 7 15 7 22 9 6 2 31 13 40 15 37 13 17 6-8 37-8 34-11 40-2 6-36-12-50-18-41-16-41-17-30-13-37-17-15-7-41-20-24-12-42-22-18-10-15-7-4-4-11-6-28-16-29-17-23-14-26-16-9-6-3-1-4-26-4-29-4-34-3-28-2-28z" fill="#02FDEC"/>
<path transform="translate(1015,809)" d="m0 0h8l1 11v73l-1 83v88l1 121v20l-1 3v30l3 1-28-2-23-4-21-6-24-10-20-11-17-12-13-11-20-20-13-17-11-18-12-25-7-21-5-22-2-14-1-15v-17l3-26 4-19 8-24 6-14 11-20 11-16 11-13 7-8 11-11 14-11 14-10 22-12 19-8 23-7 21-4z" fill="#F61B4B"/>
<path transform="translate(311,334)" d="m0 0h11l23 3 17 5 18 8 15 9 10 8 10 9 9 9 6 8 10 16 7 15 6 18 4 22 1 9v12l-3 28h-2l-1 8-7 19-9 17-12 16-11 12-11 9-13 9-15 8-19 7-20 5-11 1h-16l-19-2-17-4-17-6-7-3-21-14-13-11-9-9-11-14-10-17-8-18-4-15-2-9-1-6-1-8v-17l3-21 5-19 9-20 10-16 9-11 9-10 13-11 19-12 18-8 17-5 19-3z" fill="#FE9E07"/>
<path transform="translate(1772,1399)" d="m0 0h17l14 2 20 6 16 7 13 8 11 8 12 11 8 8 8 10 8 13 10 20 6 22 2 17v25l-3 21-8 24-11 21-12 16-5 6-8 7-9 8-19 12-18 8-17 5-12 3-11 1h-12l-1-1-1-116v-153l1-18z" fill="#FE9E07"/>
<path transform="translate(1021,1371)" d="m0 0 5 2 29 14 33 15 15 7 43 19 15 6 6 2 31 13 40 15 37 13 17 6-8 37-8 34-11 40-2 6-36-12-50-18-41-16-41-17-30-13-37-17-3-1-2-9v-58l1-63-3-3z" fill="#01DEC2"/>
<path transform="translate(782,455)" d="m0 0 35 12 43 15 44 17 39 16 37 16 35 16 10 4-1 68-1 40v9l1 10-3 1-1 2-4-1-28-14-28-13-40-18-34-14-11-4-10-5-38-15-42-15-29-10-1-1v-8l6-31 16-63z" fill="#02FDEC"/>
<path transform="translate(299,335)" d="m0 0h12v286l-11 1-4 1-20-4-21-7-7-3-21-14-13-11-9-9-11-14-10-17-8-18-4-15-2-9-1-6-1-8v-17l3-21 5-19 9-20 10-16 9-11 9-10 13-11 19-12 18-8 17-5z" fill="#FDD19A"/>
<path transform="translate(1326,1205)" d="m0 0 2 1-1 12-7 78-5 44-3 16-13 8-29 16-22 12-28 15-27 14-19 10-9 4-7-1-26-11-11-5-32-14-15-7-33-16-22-11 3-3 22-10 15-7 39-19 29-14 54-28 18-10 24-13 17-10 28-16 20-12 28-17z" fill="#FB6820"/>
<path transform="translate(876,617)" d="m0 0 13 4 26 11 36 16 30 14 29 14 10 6-3 2-28 13-38 18-52 26-19 10-28 15-23 13-29 16-44 26-21 13-13 8-2 1 1-32 3-31 2-25 4-38 3-23 1-3h3l22-12 23-13 24-13 26-14 15-8 16-8z" fill="#FC8958"/>
<path transform="translate(1409,1515)" d="m0 0 18 5 46 9 39 6 33 4 53 3h29l1-2 1 2 1 19 4 21 7 19 7 14 7 11 7 9 7 8v2l4 2 8 7 1 3-9 2-42 3h-52l-45-3-43-5-43-7-45-9-20-5h-3v-5h2l4-17 10-38 8-35z" fill="#01DEC2"/>
<path transform="translate(430,393)" d="m0 0 51 2 39 3 42 5 37 6 45 9 22 5-6 25-11 44-9 42-2 5-36-8-38-7-34-5-40-4-35-2v-9l2-19v-12l-3-22-5-19-8-19-6-11-5-7z" fill="#03FDEC"/>
<path transform="translate(1253,466)" d="m0 0h2l6 19 9 34 8 33 4 16 2 10v6l-7 3-24 7-31 10-54 19-5-1-51-27-29-15-17-8-16-8-17-8-11-6 4-3 36-15 39-15 46-17 50-17 45-14z" fill="#FB6820"/>
<path transform="translate(603,774)" d="m0 0h1l-1 22-3 38-3 51-1 22v24l-1-3-19 14-21 16-18 14-16 13-11 9-16 13-6-3-13-12-34-34v-2h-2l-7-8-12-13-9-11-3-4 14-11 14-12 10-8 14-11 15-12 12-9 21-16 14-10 19-14 19-13 18-13 17-11z" fill="#FC8A59"/>
<path transform="translate(1548,1045)" d="m0 0 4 1 12 11 8 7 31 31 7 8 9 9 7 8 3 3v2h2l4 5-2 4-14 11-13 11-10 8-14 11-18 14-17 13-18 13-19 14-17 12-20 14-27 18h-1l1-18 3-45 2-41 1-36 1-15 9-6 16-12 21-16 13-10 17-14 14-11z" fill="#FB6820"/>
<path transform="translate(872,1428)" d="m0 0 10 4 23 12 22 12 20 10 19 10 48 24 2 2-11 5-53 21-41 15-40 14-46 15-30 9-4 2-4-16-8-29-6-22-6-26-4-19v-6l-2-1 25-7 61-20z" fill="#FC8958"/>
<path transform="translate(595,1099)" d="m0 0h2l3 43 3 50 5 55v11l-1-2-4-2 2-3-2-11-4-49-1-7-3-60z" fill="#01DEC2"/>
<path transform="translate(723,1194)" d="m0 0 5 3-1 4-1 5 2 26 1 3 3 33 1 4 2 22 2 10 2 21 2 9 1 14h-2l-3-16-5-38-4-34-3-28-2-28z" fill="#01DEC2"/>
<path transform="translate(1308,706)" d="m0 0 2 3 3 22 5 37 4 34 4 49v12h-2l-2-31-5-47-4-34-5-35z" fill="#1D5A96"/>
<path transform="translate(664,423)" d="m0 0 2 1-16 64-9 40-2 9-2 2-1-3 7-30 7-31 6-21 6-26z" fill="#01DEC2"/>
<path transform="translate(782,455)" d="m0 0 2 1-3 10-7 25-5 22-7 29-4 19-1 9-2 1v-8l6-31 16-63z" fill="#02DDC1"/>
<path transform="translate(1642,959)" d="m0 0 2 1v4l5 5 6 7 7 6 5 6 7 6 6 7 21 21 7 8v3l-11-11-7-8-50-50 1-4z" fill="#FCA571"/>
<path transform="translate(1036,556)" d="m0 0 7 1 50 25v2l-6-2-21-10-30-15z" fill="#FCA774"/>
<path transform="translate(1041,1380)" d="m0 0 8 1v2l9 3 16 8 15 7 3 3-4-1-24-11-23-11z" fill="#FCA875"/>
<path transform="translate(332,1012)" d="m0 0 4 2 7 8 2 4 3 1 7 8 5 5v2l-4-2-17-17-7-8z" fill="#02EED8"/>
<path transform="translate(764,525)" d="m0 0h1l-1 9-6 27-1 9-2 1v-8l6-31z" fill="#01DEC2"/>
<path transform="translate(1680 1e3)" d="m0 0h2l7 8 12 12 7 8v3l-11-11-7-8-10-10z" fill="#FCAB78"/>
<path transform="translate(1065,570)" d="m0 0 8 2 20 10v2l-6-2-21-10z" fill="#FCAD79"/>
<path transform="translate(297,621)" d="m0 0h14l1 1 12 1v1h-16l-11-2z" fill="#FC915F"/>
<path transform="translate(1101,588)" d="m0 0 6 1 15 8v2l-6-2-15-8z" fill="#FCAC78"/>
<path transform="translate(1101,1408)" d="m0 0 7 1 10 5 3 3-5-1-15-7z" fill="#FCAD79"/>
<path transform="translate(332,1012)" d="m0 0 4 2 7 8 2 4-8-6-5-5z" fill="#01E5CB"/>
<path transform="translate(723,1194)" d="m0 0 5 3-1 4-2 4-2-1z" fill="#01E1C6"/>
<path transform="translate(415,929)" d="m0 0 5 4 7 8v3l-13-13z" fill="#01E9D1"/>
<path transform="translate(1041,1380)" d="m0 0 8 1v2l6 2v2l-6-2-8-4z" fill="#FCAA76"/>
<path transform="translate(1697,1019)" d="m0 0 12 12-1 2-11-11z" fill="#FCA774"/>
<path transform="translate(1141,609)" d="m0 0 5 1 8 4v2l-6-2-7-4z" fill="#FCAD79"/>
</svg>
