<?xml version="1.0" encoding="UTF-8"?>
<svg version="1.1" viewBox="0 0 2048 2048" width="512" height="512" xmlns="http://www.w3.org/2000/svg">
<path transform="translate(1787,64)" d="m0 0h9l10 3 8 6 6 7 3 7 1 7v162h39l15 2 13 4 16 8 13 10 10 10 9 13 8 17 4 15 1 8v15l-2 15-6 18-9 16-11 13-10 9-13 8-14 6-11 3-20 2h-32v32h72l14 2 15 5 14 7 14 11 8 8 10 14 8 17 4 17 1 10v1027l-1 17-5 19-8 16-8 11-10 11-14 10-14 7-17 5-6 1-16 1h-733v96h194l10 2 8 5 5 5 5 8 2 10v129l-1 10-6 11-7 7-11 4-14 1h-634l-11-2-8-5-7-7-4-9-1-4v-139l4-11 7-8 14-7h199v-96h-734l-17-1-16-4-12-5-12-7-14-12-10-12-8-14-5-12-3-13-1-8v-1042l4-20 6-14 9-14 11-12 9-8 13-8 11-5 15-4 9-1 72-1 1-293 4-11 7-8 8-5 6-2h650l9 2 8 5 5 5 5 8 2 10v290l191-1 1-31h-65l-11-2-10-6-6-8-4-11v-139l4-10 6-8 9-6 6-2 70-1 1-37 4-11 7-8 8-5 6-2 224-1 16-4 87-27 56-17 42-13 175-54 36-11z" fill="#3880ED"/>
<path transform="translate(1787,64)" d="m0 0h9l10 3 8 6 6 7 3 7 1 7v162h39l15 2 13 4 16 8 13 10 10 10 9 13 8 17 4 15 1 8v15l-2 15-6 18-9 16-11 13-10 9-13 8-14 6-11 3-20 2h-32v32h72l14 2 15 5 14 7 14 11 8 8 10 14 8 17 4 17 1 10v1027l-1 17-5 19-8 16-8 11-10 11-14 10-14 7-17 5-6 1-16 1h-733v96h194l10 2 8 5 5 5 5 8 2 10v129l-1 10-6 11-7 7-11 4-14 1h-634l-11-2-8-5-7-7-4-9-1-4v-139l4-11 7-8 14-7h199v-96h-734l-17-1-16-4-12-5-12-7-14-12-10-12-8-14-5-12-3-13-1-8v-1042l4-20 6-14 9-14 11-12 9-8 13-8 11-5 15-4 9-1 72-1 1-293 4-11 7-8 8-5 6-2h650l9 2 8 5 5 5 5 8 2 10v290l191-1 1-31h-65l-11-2-10-6-6-8-4-11v-139l4-10 6-8 9-6 6-2 70-1 1-37 4-11 7-8 8-5 6-2 224-1 16-4 87-27 56-17 42-13 175-54 36-11zm-447 448-3 17-12 84-11 76-4 24-5 10-3 3v2l-12 6-5 1h-105l-10-3-9-6-6-9-2-9-1-163-1-1h-222l-1 1-1 163-3 10-6 9-9 6-7 2h-650l-10-3-9-6-6-9-2-9-1-163-1-1h-70l-12 6-8 8-5 12v933l1 1h1789l2-1v-929l-3-12-6-8-7-6-6-3-7-1h-66l-1 1-1 67-3 10-6 8-8 6-9 3h-9l-19-5-266-82-84-26-40-12-9-2z" fill="#010000"/>
<path transform="translate(216,864)" d="m0 0h845l10 3 8 6 6 9 3 10v520l-3 10-6 9-8 6-9 3h-842l-10-3-9-6-6-7-3-11v-522l3-10 7-9 8-6z" fill="#010000"/>
<path transform="translate(1176,800)" d="m0 0h589l10 3 8 6 6 9 3 9v101l25-1 13 1 11 4 9 8 5 11 1 4v393l-3 10-6 9-8 6-9 3h-554l-10-3-9-6-6-8-2-5-1-6-1-99-68-1-11-4-8-6-6-9-2-8v-394l3-10 7-9 9-6z" fill="#010000"/>
<path transform="translate(289,224)" d="m0 0h574l1 1v446l-1 1h-574l-1-1v-446z" fill="#77B8EC"/>
<path transform="translate(256,954)" d="m0 0 4 1 16 10 25 15 16 10 169 104 21 13 18 11 44 27 21 13 24 15 12 7 10 3h8l11-4 16-9 24-15 28-17 24-15 28-17 24-15 28-17 24-15 23-14 21-13 78-48 28-17 16-10 4-3h3v421l-2 1h-765l-1-1z" fill="#826BF7"/>
<path transform="translate(1314,992)" d="m0 0h477l1 1v318l-4 1h-476v-318z" fill="#E94557"/>
<path transform="translate(128,1568)" d="m0 0h1791l1 1v31l-2 11-5 9-5 5-6 4-6 2-8 1h-1729l-12-2-10-7-6-9-3-8z" fill="#E6E5FC"/>
<path transform="translate(1758,139)" d="m0 0 2 1v424l-8-1-29-9-41-13-182-56-81-25-10-3-1-1v-208l7-3 64-20 152-47 121-37z" fill="#F8CA54"/>
<path transform="translate(339,928)" d="m0 0h602v2l-16 9-22 14-47 29-23 14-42 26-23 14-19 12-20 12-21 13-60 37-6 4-5-1-28-17-73-45-24-15-20-12-21-13-11-7-20-12-21-13-23-14-9-6-15-9-21-13-13-7z" fill="#B6ADF1"/>
<path transform="translate(505,320)" d="m0 0h12l14 5 180 90 13 8 8 9 4 10v12l-4 10-9 10-23 12-172 86-13 4h-7l-12-4-8-6-5-7-3-10v-202l4-11 7-8 9-6z" fill="#010000"/>
<path transform="translate(1218,864)" d="m0 0h302l207 1 1 25v36l-1 1-41 1-414 1-8 3-10 9-5 10-1 5v226l-1 1-15 1-16-1v-317z" fill="#A02649"/>
<path transform="translate(737,1856)" d="m0 0h574l1 1v62l-2 1h-572l-2-1v-62z" fill="#E5E5FC"/>
<path transform="translate(1184,256)" d="m0 0h159l1 1v190l-1 1h-159z" fill="#E8E6FC"/>
<path transform="translate(1504,1056)" d="m0 0h224v64h-224z" fill="#010000"/>
<path transform="translate(960,1696)" d="m0 0h127l1 1v94l-8 1h-117l-3-1z" fill="#A19EC3"/>
<path transform="translate(1568,1184)" d="m0 0h160v64h-160z" fill="#010000"/>
<path transform="translate(1377,1184)" d="m0 0h127v64h-128v-63z" fill="#010000"/>
<path transform="translate(1216,512)" d="m0 0h59l-1 13-17 119-4 26-3 2h-34z" fill="#7AB7EC"/>
<path transform="translate(1376,1056)" d="m0 0h64v64h-64z" fill="#010000"/>
<path transform="translate(545,404)" d="m0 0 19 9 15 8 23 11 28 14 1 3-66 33-19 10-2-1v-86z" fill="#E74457"/>
<path transform="translate(1825,320)" d="m0 0h35l8 2 8 5 8 9 3 7 1 5v10l-4 10-8 9-11 6-5 1h-36v-63z" fill="#E74457"/>
<path transform="translate(1090,320)" d="m0 0h29l1 1v62l-2 1h-29l-1-1v-62z" fill="#E54356"/>
<path transform="translate(1234,599)" d="m0 0h5l1 3-1 7 3-1 2 4 3 3v26l1 13-4 7h-3v2l-6 1h-7l-2-6 1-17 1-7 2-6v-6l1-3 2-16z" fill="#A2A1C5"/>
<path transform="translate(737,1902)" d="m0 0h1l2 8 6 7 541 1v1h-551v-9z" fill="#FDFDFD"/>
<path transform="translate(1302,1856)" d="m0 0h9l1 1v62h-25l2-2 10-2 4-3 3-8 3-27v-11l-3-5-2-2-3 1-4-3z" fill="#E8DBEA"/>
<path transform="translate(1272,522)" d="m0 0 2 1-7 52-13 90-2 6h-1v-9l1-6h-2v-5h3l3-26 2-9 2-19 2-8 2-19 2-9 2-16 2-11z" fill="#9E85B5"/>
<path transform="translate(737,1902)" d="m0 0h1l2 8 6 7 21 1v1h-31v-9z" fill="#F8FAFC"/>
<path transform="translate(1255,639)" d="m0 0h1v11l-3 20-2 1v-9l1-6h-2v-5h3z" fill="#9F8AB7"/>
<path transform="translate(1916,1603)" d="m0 0h2v8l-5 9-3 2 1-10z" fill="#EDF1F9"/>
<path transform="translate(1272,522)" d="m0 0 2 1-5 37-2-3v-8l2-7 2-17z" fill="#9E7EAD"/>
<path transform="translate(1918,1568)" d="m0 0 2 1v31l-2 1-1-31z" fill="#D0D0E8"/>
<path transform="translate(1302,1856)" d="m0 0h9l1 2-1 9-2-1-3-5-2-2-3 1-4-3z" fill="#FAFAFD"/>
<path transform="translate(1259,619)" d="m0 0 1 4-3 21h-1l-1-5v-8l2-8z" fill="#9F7CA8"/>
<path transform="translate(149,1627)" d="m0 0 9 1 6 2v1h-13l-3-3z" fill="#F1F3FA"/>
<path transform="translate(1267,557)" d="m0 0h1v10l-2 10h-2v-7z" fill="#9F8BB6"/>
<path transform="translate(1185,257)" d="m0 0h9v3l-7 2h-2z" fill="#FDFDFD"/>
<path transform="translate(737,1857)" d="m0 0h8l1 3-7 2h-2z" fill="#FDFDFD"/>
</svg>
