<svg width="169" height="13" viewBox="0 0 169 13" fill="none" xmlns="http://www.w3.org/2000/svg">
<g clip-path="url(#clip0_148_1327)">
<path d="M168.872 12.1884C169.008 12.0415 169.07 11.6597 168.811 11.6891L168.453 12.296L168.872 12.1884Z" fill="#FF7E84"/>
<path d="M167.597 10.748C167.227 11.0026 166.734 11.492 166.759 12.099C167.215 11.541 167.215 11.8053 167.72 11.1298C167.979 11.1005 168.078 11.4039 167.979 11.6291C168.115 11.4822 168.312 11.8346 168.559 11.4529C168.386 10.9145 167.992 10.8264 167.461 11.1592C167.412 11.0124 167.548 10.8655 167.597 10.748Z" fill="#FF7E84"/>
<path d="M144.078 6.09766L144.214 6.19555C144.189 6.1466 144.14 6.11723 144.078 6.09766Z" fill="#FF7E84"/>
<path d="M129.277 4.06278C129.388 4.06278 129.45 3.99426 129.462 3.94531C129.351 3.96489 129.253 4.00405 129.277 4.06278Z" fill="#FF7E84"/>
<path d="M126.82 3.11342C126.87 3.14279 126.919 3.15257 126.968 3.17215C126.919 3.11342 126.857 3.07426 126.82 3.11342Z" fill="#FF7E84"/>
<path d="M144.078 6.09827L143.721 5.84375C143.659 6.04932 143.906 6.01996 144.078 6.09827Z" fill="#FF7E84"/>
<path d="M163.906 11.7269C163.993 11.7073 164.079 11.6583 164.165 11.5996C164.091 11.6192 164.017 11.629 163.943 11.629C163.943 11.6681 163.931 11.6975 163.906 11.7269Z" fill="#FF7E84"/>
<path d="M150.742 6.42244L150.865 6.43223C150.915 6.36371 150.976 6.28539 151.026 6.1875L150.742 6.42244Z" fill="#FF7E84"/>
<path d="M155.773 7.09777C155.662 7.05861 155.489 7.58722 155.391 7.82216C155.514 7.6068 155.613 7.5187 155.724 7.48933C155.748 7.38165 155.76 7.26418 155.773 7.09777Z" fill="#FF7E84"/>
<path d="M163.398 9.36926L163.559 9.32031C163.522 9.3301 163.46 9.34968 163.398 9.36926Z" fill="#FF7E84"/>
<path d="M147.175 5.83446C147.187 5.75614 147.187 5.67783 147.175 5.63867C147.15 5.7072 147.15 5.77572 147.175 5.83446Z" fill="#FF7E84"/>
<path d="M6.7953 12.2756C6.78297 12.2365 6.77064 12.2169 6.77064 12.1777C6.74598 12.2463 6.75831 12.2854 6.7953 12.2756Z" fill="#FF7E84"/>
<path d="M0.293579 10.788L0.367556 10.739C0.330568 10.6411 0.305909 10.5334 0.28125 10.4355L0.293579 10.788Z" fill="#FF7E84"/>
<path d="M122.234 1.98723C122.247 1.99702 122.247 1.99702 122.259 1.99702C122.382 1.94807 122.308 1.94807 122.234 1.98723Z" fill="#FF7E84"/>
<path d="M78.9593 0.880859C79.4525 1.37032 78.1702 1.51715 78.9223 2.05556C78.8484 1.84999 79.5758 1.2039 78.9593 0.880859Z" fill="#FF7E84"/>
<path d="M163.811 11.6387C163.737 11.629 163.676 11.629 163.602 11.6094C163.688 11.6387 163.75 11.6485 163.811 11.6387Z" fill="#FF7E84"/>
<path d="M78.9219 2.06641L78.9958 2.12514C78.9589 2.09577 78.9465 2.08598 78.9219 2.06641Z" fill="#FF7E84"/>
<path d="M111.359 1.5957C111.372 1.69359 111.409 1.77191 111.446 1.84043C111.446 1.7817 111.433 1.71317 111.359 1.5957Z" fill="#FF7E84"/>
<path d="M119.333 2.8381L119.148 2.75C119.222 2.80873 119.284 2.82831 119.333 2.8381Z" fill="#FF7E84"/>
<path d="M107.108 2.12469C106.997 2.07574 106.973 1.99743 106.812 2.06595C106.825 2.09532 106.837 2.1149 106.849 2.13448C106.923 2.06595 106.997 2.03659 107.108 2.12469Z" fill="#FF7E84"/>
<path d="M102.75 1.89844C102.775 1.93759 102.799 1.97675 102.824 2.01591C102.873 2.00612 102.923 1.99633 102.96 1.98654L102.75 1.89844Z" fill="#FF7E84"/>
<path d="M19.4794 9.90736C19.3561 9.77031 19.2575 9.61368 19.1712 9.44727C19.3191 9.82904 18.7397 10.064 19.4794 9.90736Z" fill="#FF7E84"/>
<path d="M163.99 11.4238C163.928 11.5511 163.866 11.6196 163.805 11.6294C163.854 11.6294 163.903 11.6294 163.953 11.6196C163.977 11.5511 164.002 11.4826 163.99 11.4238Z" fill="#FF7E84"/>
<path d="M106.6 6.45145L105.922 6.33398C106.107 6.39272 106.353 6.43188 106.6 6.45145Z" fill="#FF7E84"/>
<path d="M50.0542 6.53906L49.9062 6.61738C49.9679 6.61738 50.0172 6.5978 50.0542 6.53906Z" fill="#FF7E84"/>
<path d="M103.889 6.29393C103.778 6.08836 103.655 5.97089 103.532 5.89258C103.495 5.93173 103.47 5.97089 103.445 6.02963L103.889 6.29393Z" fill="#FF7E84"/>
<path d="M15.0659 11.3946C15.707 11.3163 15.1892 10.6506 15.2262 10.2297C15.9413 9.91642 15.707 10.6995 16.0646 11.0226C16.4961 10.7583 16.6934 10.0535 17.0633 10.0339C17.1126 10.1514 17.1989 10.1807 17.1496 10.3373C17.5195 9.70105 18.6415 10.0828 19.0607 9.28012C19.1223 9.33885 19.1593 9.39759 19.1839 9.44654C19.0113 9.10392 18.9127 8.74172 18.8634 8.4872C19.147 8.42846 19.2949 7.95858 19.5168 8.40889C19.3319 8.41868 19.3689 8.61446 19.3196 8.77108L19.5785 8.52636C19.9977 9.15286 19.2209 8.82003 19.3319 9.30949C19.8621 9.00602 20.4292 8.35015 20.9224 8.46762C21.1567 9.10392 19.9237 8.8494 20.6512 9.33886L19.8991 9.19202C20.6635 10.1416 19.4552 9.18223 20.195 10.2101C21.1443 10.259 21.1443 9.72063 22.0937 9.78916C22.217 9.39759 21.9088 9.26054 22.0321 8.86898C23.2034 8.04669 23.413 10.3863 24.1897 9.3878C24.35 8.91792 24.2637 8.07605 25.0404 8.42846L24.9418 9.20181C25.8419 9.16265 25.2254 8.06627 26.2611 8.44804C26.1501 8.7613 25.6076 8.78087 25.7679 8.85919C26.4953 9.36822 26.1131 8.37952 26.5693 8.32078L26.8036 8.96687C27.7283 8.74172 28.6776 8.125 29.7133 7.88027C29.6887 8.08584 29.553 8.31099 29.8366 8.4872C31.1065 8.01732 32.697 8.26205 34.041 8.51657L34.4355 7.89006C34.5465 7.88027 34.6944 8.125 34.5835 8.25226C35.1136 8.41868 34.5465 7.89006 34.7561 7.63554C35.0396 7.56702 35.1876 7.91943 35.0396 8.11521C35.8411 7.53765 37.3822 6.80346 38.4056 7.3125L38.2453 7.49849C39.0097 7.65512 38.8864 6.23569 39.6385 6.71536L39.5276 6.82304C41.1427 6.94051 42.8195 6.26506 44.1388 7.02861C44.2621 6.18675 45.7416 7.26355 45.7046 6.10843C46.6787 6.59789 46.4444 6.83283 47.7637 7.10693C48.1089 7.12651 48.1829 6.34337 48.5897 6.19654L48.676 6.79367L49.1692 6.11822L49.5514 6.81325L49.9213 6.62726C49.761 6.60768 49.5638 6.38253 49.5638 6.20633C50.1432 5.88328 51.1173 6.52937 51.1543 6.83283L52.5598 6.23569C52.5475 6.48042 52.3132 6.57831 52.1406 6.74473C52.8557 6.08886 52.3502 7.37123 53.0037 6.76431C52.8927 6.63705 53.016 6.40211 53.016 6.28464C53.4105 6.62726 54.212 6.57831 54.8038 6.39232L54.7298 6.81325C55.8148 6.85241 56.9861 6.48042 58.1944 6.4119C57.7382 6.24548 57.7752 5.52108 58.1327 5.43298L58.33 6.05949C58.5273 5.64834 57.9355 5.84413 58.367 5.33509C58.8232 5.38404 58.7369 6.03991 58.4903 6.26506L59.0205 6.01054C59.0698 6.19654 58.9465 6.30422 58.9341 6.54895C59.1314 6.1378 59.9328 7.1363 60.2041 6.42169L60.2534 6.60768C61.4617 6.53916 61.9919 6.28464 62.9782 6.2259C62.9536 5.67771 63.3481 5.78539 63.6193 5.33509C64.3591 5.49172 65.1975 5.89307 66.0606 5.81476C66.6647 5.52108 66.2085 5.34488 66.4675 5.01205C66.5414 5.5113 67.4168 5.43298 66.9853 5.81476C68.0333 5.69729 68.3169 5.66792 69.6361 5.21762C69.4882 5.02184 69.3156 4.93374 69.3895 4.75753C69.6238 4.66943 69.9444 4.95331 69.9197 5.18825L69.8581 5.24699C71.3253 4.44428 73.3596 6.59789 74.5063 5.5113L74.4446 5.57003C74.8515 5.37425 75.2584 5.19804 75.6652 5.01205C76.2324 5.10015 75.3323 5.39383 75.7639 5.69729C77.0708 4.85542 77.8599 5.80497 78.9449 5.24699C79.8079 6.72515 81.9533 5.12952 83.0999 6.06928L83.0382 5.71687C83.3342 5.37425 83.3958 5.91265 83.6177 5.99096C83.5807 5.71687 83.2972 5.67771 83.4821 5.49172C85.985 5.07078 88.6482 5.94202 91.2004 6.36295C92.1374 6.48042 91.7798 4.57154 92.9388 5.43298L92.5813 6.06928C94.5046 5.34488 96.4404 6.19654 98.3268 5.57982C98.2035 5.72666 98.1912 5.92244 98.0186 5.91265C98.3884 6.39232 99.4611 5.97139 99.4858 5.58961C99.7693 5.63855 99.5351 5.94202 99.7077 6.1378C100.09 6.42169 100.731 5.56024 100.904 6.03991C100.941 6.11822 100.78 6.18675 100.706 6.2259C100.978 6.00075 101.89 6.31401 101.68 5.76581C102.359 6.0497 103.024 5.55045 103.554 5.90286C103.961 5.31551 104.726 6.26506 104.898 5.4134C104.787 6.29443 106.07 6.19654 106.538 5.80497C106.366 6.05949 106.896 6.10843 106.698 6.46084C107.204 6.48042 107.673 6.34337 107.623 5.88328C108.462 6.98946 109.547 5.13931 109.953 6.51958C111.482 6.12801 112.888 5.88328 114.256 5.75602C114.121 6.63705 112.765 5.75602 112.728 6.68599C114.035 6.39232 114.848 5.67771 116.081 5.97139C116.389 6.10843 115.859 6.34337 115.724 6.49021C117.031 6.20633 118.165 6.68599 119.349 6.3238C119.336 6.40211 119.201 6.48042 119.077 6.53916C119.299 6.52937 119.583 6.71536 119.595 6.31401L119.361 6.40211C119.077 5.78539 120.384 5.27636 120.471 4.97289C119.953 6.07907 121.555 5.36446 120.766 6.75452C120.927 6.69578 121.124 6.51958 121.124 6.24548C121.334 6.34337 121.383 6.50979 121.124 6.79367C121.95 6.64684 121.716 6.19654 122.443 6.27485C122.419 6.47063 122.258 6.52937 122.16 6.75452C122.567 6.4119 122.986 6.06928 123.578 6.28464C123.528 6.40211 123.578 6.55873 123.393 6.53916C124.441 6.57831 125.316 5.69729 126.413 6.16717C125.957 6.97967 126.759 6.48042 126.722 7.21461L127.375 7.05798L127.178 6.68599C127.72 6.74473 128.275 6.26506 128.707 6.53916L128.263 6.80346L129.298 6.75452L128.768 6.43148C129.372 6.10843 128.855 5.5113 129.545 5.7756C129.385 5.83434 130.087 5.83434 130.297 6.28464C130.605 6.07907 130.914 5.86371 131.283 6.07907C131.345 6.3238 131.074 6.87199 131.111 7.0384C131.468 6.46084 132.405 6.98946 132.849 6.37274C132.714 6.50979 132.64 6.89157 132.664 6.97967L132.973 6.50979C133.195 6.68599 133.219 6.7741 133.133 7.06777C133.873 7.2244 133.047 6.12801 133.873 6.60768C133.799 6.63705 133.811 6.71536 133.663 6.7741C134.526 7.04819 135.451 6.62726 136.228 6.98946C136.339 7.75301 135.475 7.07756 135.648 7.72364C136.856 7.74322 138.25 7.16566 139.372 7.47892L139.174 7.37124C139.532 6.36295 139.926 7.98795 140.605 7.57681C140.444 7.63554 140.309 8.125 140.37 8.01732C141.122 8.28163 142.022 7.96837 143.28 7.80196L143.083 8.04669C143.502 8.34036 144.279 8.34036 144.747 8.52636C144.945 8.28163 145.228 8.35994 145.129 7.95858C146.35 9.65211 148.249 7.53765 149.334 8.95708C149.174 8.9375 148.89 9.13328 149.026 9.15286L150.246 9.05497C150.258 8.59488 150.16 8.7613 149.987 8.38931C150.197 8.14458 150.567 7.97816 150.863 8.01732C150.271 8.24247 150.702 8.73193 150.875 9.00602C150.863 8.86898 150.986 8.72214 150.998 8.58509C151.417 9.45633 151.307 7.69428 152.022 8.35015L151.923 8.5753C152.256 8.50678 152.613 8.24247 152.934 8.36973C152.946 8.90813 152.552 8.55572 152.428 8.97666C152.897 9.0256 153.587 8.15437 153.883 8.74172C153.649 8.8494 153.366 8.81024 153.131 8.91792C153.452 9.60316 153.538 9.45633 153.859 9.60316L153.834 9.58358L154.561 9.98494L154.401 9.78916C155.314 8.54593 155.646 9.74021 156.657 8.99623C155.683 9.70105 156.411 9.45633 156.201 10.0241C156.362 10.2199 156.62 10.4548 156.497 10.6017C156.99 10.1905 157.027 11.0715 157.718 10.4744C157.693 10.6702 158.112 10.5625 157.903 11.0128C158.421 10.9443 157.878 10.6702 157.977 10.445C158.889 9.93599 159.518 11.512 160.825 10.817C161.848 10.6114 162.181 10.0143 163.13 9.8381C163.34 10.1807 162.711 10.4744 162.711 10.4744C163.106 10.8268 163.463 10.8366 163.969 10.6995C163.833 10.8464 163.883 11.003 163.969 11.2282C164.339 11.238 164.4 10.5919 164.783 10.9443C164.647 11.1401 164.45 11.4533 164.215 11.6295C164.684 11.5316 165.189 11.2477 165.67 11.1498C165.695 11.4925 165.276 11.6002 165.054 11.7861C165.584 11.7176 166.385 11.698 166.694 11.2086L166.435 10.9736C166.62 10.9834 166.398 11.4337 166.238 11.5023C165.707 11.8351 165.695 11.2282 165.72 11.0324L166.065 10.9639C166.065 9.81852 164.783 10.9345 164.178 10.7681L164.659 10.0143L163.846 10.5723C163.772 10.3471 163.796 9.88705 164.141 9.81852C163.809 9.34864 163.673 10.0339 163.414 9.53464C163.389 9.45633 163.426 9.42696 163.463 9.39759L162.958 9.56401C163.093 9.40738 163.044 8.98645 163.278 9.15286C162.625 8.56551 161.861 9.53464 161.725 8.88855L161.75 8.81024C160.591 8.89834 161.491 9.37801 160.492 9.92621L160.332 8.38931L160.073 8.95708C159.962 8.91792 159.752 8.83961 159.863 8.60467C159.345 8.9375 159.863 8.86898 159.53 9.2116C159.136 8.58509 157.989 9.2116 158.1 8.26205C157.792 8.67319 158.532 8.69277 157.878 8.90813C157.964 7.88027 157.175 8.96687 156.793 8.42846C157.077 7.93901 157.471 8.29142 157.101 7.74322C156.584 8.56551 156.189 7.39081 155.733 7.48871C155.536 8.18373 154.759 7.62575 154.007 7.74322C154.105 7.51807 152.786 7.1363 152.194 6.78389L152.244 6.66642C151.948 7.36145 151.307 7.1363 150.789 7.2244C150.9 6.80346 151.035 6.64684 151.343 6.49021L150.875 6.43148C150.715 6.64684 150.542 6.74473 150.222 6.78389L150.456 6.27485C149.827 6.2259 149.075 6.73494 148.36 6.28464C148.212 6.7741 148.68 7.74322 147.78 7.95858C147.805 7.68449 147.879 7.2244 148.113 7.14608C148.039 7.17545 147.805 7.33208 147.694 7.20482L148.126 6.79367C147.805 6.54895 147.854 7.14608 147.583 7.06777C147.669 6.68599 147.435 6.76431 147.534 6.47063C147.62 6.44127 147.756 6.65663 147.891 6.52937C147.583 6.42169 147.238 6.14759 147.176 5.83434C147.164 6.05949 147.065 6.34337 146.819 6.36295C146.202 6.31401 146.708 5.87349 146.387 5.63855C146.177 5.88328 145.845 5.56024 145.721 6.12801C145.536 6.09865 145.561 5.83434 145.524 5.66792C145.154 5.87349 144.02 5.55045 144.254 6.20633L144.328 6.25527C144.316 6.26506 144.291 6.26506 144.266 6.27485C143.107 6.70557 142.17 5.67771 141.085 5.78539L141.122 5.58961C140.469 5.72666 139.729 5.54066 139.211 5.89307C139.026 5.87349 138.841 5.49172 138.965 5.26657C138.472 5.35467 138.373 5.56024 137.744 5.15889C138.274 4.88479 137.633 4.84563 138.274 4.97289C137.695 4.72816 137.608 4.40512 136.856 4.84563C137.165 4.38554 136.499 4.17018 136.191 4.27786L136.56 4.67922C136.215 4.70858 135.944 4.63027 135.66 4.55196L135.932 3.92545C134.797 2.98569 133.429 5.04142 132.677 3.63178C132.27 4.05271 133.318 4.01355 132.923 4.5128C132.356 4.37575 131.9 3.38705 131.715 3.36747C130.975 2.93675 130.815 4.23871 130.026 3.92545C130.1 4.17018 130.1 4.7869 129.446 4.95331C128.879 4.81627 128.879 3.91566 129.274 3.76883C129.422 3.75904 129.471 3.83735 129.459 3.91566C129.656 3.84714 129.927 3.76883 129.73 3.50452L129.619 3.72967C129.36 3.46536 128.559 3.41642 128.805 3.05422C128.337 3.23042 128.559 3.41642 128.867 3.56325C128.164 3.1619 127.696 3.44578 126.968 3.15211C127.067 3.28916 127.141 3.57304 127.03 3.56325C125.945 3.17169 126.475 3.95482 125.698 3.98419C125.316 3.59262 125.969 3.1619 125.156 3.38705C124.724 3.10316 125.143 2.76054 125.353 2.59413C124.589 2.9759 124.083 2.18298 123.688 2.06551L124.083 1.90889C123.849 1.99699 123.664 1.97741 123.479 1.95783L123.627 2.4375C123.417 2.33961 123.232 2.32003 123.269 2.12425C123.01 2.40813 123.343 2.90738 122.838 3.27937C122.579 3.01506 121.925 3.45557 121.901 2.82907C122.788 3.12274 121.876 2.20256 122.665 2.17319C122.505 2.23193 122.32 2.21235 122.123 2.11446C122.098 2.04593 122.172 1.9872 122.234 1.95783C121.432 1.33133 121.74 2.6137 120.84 2.51581C121.001 2.18298 120.717 1.84036 120.557 1.8991C120.914 1.93825 120.655 2.49623 120.298 2.73117C119.755 2.40813 119.644 2.87801 119.349 2.81928L119.681 2.9759C119.521 3.31852 119.238 3.23042 118.831 3.31852C118.831 3.04443 119.213 3.1619 119.09 3.02485C118.572 3.60241 118.153 2.33961 117.474 2.7116C117.216 2.45708 117.524 2.05572 117.277 1.88931C116.525 2.30045 116.562 1.37048 115.785 1.70331C115.946 2.18298 115.995 2.06551 115.428 2.49623L116.673 2.24172L115.822 2.87801C116.192 2.90738 116.624 2.63328 116.833 2.72139C116.426 3.08358 116.476 2.96611 116.599 3.35768C116.18 2.63328 115.563 3.71009 115.033 3.20105L115.169 2.04593C114.343 1.47816 113.566 2.54518 112.456 2.19277L112.802 2.41792C112.604 2.86822 112.099 2.4375 111.717 2.60392C111.791 2.22214 111.569 2.06551 111.433 1.82078C111.421 2.10467 110.607 1.74247 110.434 2.51581L109.978 1.97741C109.078 1.7131 108.844 3.01506 107.981 2.83886C108.277 2.4375 107.907 2.13404 108.511 1.86973C108.215 1.85015 107.956 1.76205 107.931 2.02636C107.783 1.77184 107.081 2.49624 106.834 2.11446C106.699 2.28087 106.625 2.68223 106.304 2.62349C106.279 2.54518 106.316 2.4375 106.316 2.4375C106.304 2.62349 105.786 2.66265 106.033 3.11295C105.219 1.86973 103.517 3.03464 102.802 1.99699C102.149 2.11446 101.372 2.21235 100.793 2.23193C100.842 2.11446 100.805 2.03614 100.916 2.08509C100.139 1.70331 100.361 3.18148 99.4734 2.76054C99.0419 2.12425 99.9789 2.4375 99.6954 2.19277C99.6337 0.920181 98.5857 2.33961 98.0062 1.57605L98.1542 1.50753C97.698 1.06702 96.9829 1.95783 96.2185 1.85015C96.2185 1.85015 96.2554 1.74247 96.2308 1.65437C95.676 2.29066 94.6773 2.47666 93.9375 2.64307C94.1841 2.15361 94.2827 2.38855 94.1594 1.87952C93.8265 1.93825 94.2334 2.69202 93.5676 2.81928C93.358 2.54518 92.8895 2.29066 92.8525 1.75226L93.4813 1.74247C93.1854 1.03765 92.6799 1.74247 92.347 1.61521L92.3963 1.31175C91.4346 1.39006 91.41 2.15361 90.3866 2.0753L90.4852 2.31024C89.9058 3.05422 90.0291 1.86973 89.4619 2.41792L89.3016 1.64458C88.9317 1.81099 87.9947 2.36898 87.3289 2.5256C87.7111 1.95783 88.4879 1.64458 88.981 1.32154C88.6112 1.29217 87.7358 1.37048 87.5385 1.75226C87.6865 1.67395 87.8714 1.48795 88.0194 1.60542C87.5632 2.21235 86.9713 2.51581 86.2439 2.50602C86.4042 1.00828 84.3698 2.14383 83.8397 0.978916C82.5451 1.5369 81.2751 0.753765 79.7586 0.851657C80.3134 2.01657 79.3148 0.890813 79.4257 2.08509C79.0805 2.1634 78.9449 2.14383 78.9079 2.06551L77.8352 1.3509C77.5763 1.00828 78.1681 1.0866 78.1311 0.8125C77.3544 0.734187 77.7982 0.313253 77.2804 0C77.3914 0.430723 77.0215 0.616717 76.5776 0.450301L77.2064 0.998494C76.1584 1.64458 76.257 0 75.1844 0.636295L75.5173 0.254518C74.9625 0.46988 73.4583 0.283886 72.9528 1.2628C72.8541 1.12575 72.7062 0.802711 72.9528 0.714608C71.6088 0.616717 70.043 1.83057 68.9827 1.27259L69.069 0.978916C68.8224 1.06702 68.6621 1.54669 68.3415 1.2628C68.3539 1.14533 68.4278 0.969127 68.3169 0.949548C68.1936 1.05723 67.6881 1.48795 67.3428 1.32154L67.6018 0.978916C66.2825 0.636295 65.6537 1.85015 64.5934 2.08509C64.5441 1.22364 63.5084 0.978916 62.9782 0.851657L62.9905 0.724398C61.474 0.655874 60.4753 1.54669 59.1068 1.96762C58.1697 1.0866 56.1477 1.75226 54.7051 1.31175C54.9271 1.45858 54.7298 1.9872 54.4955 2.08509C54.1503 1.94804 53.6448 2.75075 53.6202 1.95783L53.7434 1.96762C53.4229 1.21386 52.7694 1.45858 52.2392 1.46837L52.2639 2.50602C50.7351 1.07681 48.7377 3.26958 47.8376 2.00678C47.5417 2.29066 47.1348 2.32003 46.8389 2.60392L46.7896 2.05572C45.8526 1.9872 45.3964 1.95783 44.2744 2.19277L44.4594 1.78163C43.8182 1.8012 43.8675 3.43599 43.2881 3.5241L43.0045 2.7116C41.8948 2.81928 40.6619 2.19277 39.6755 3.02485C39.6755 2.90738 39.6755 2.66265 39.8481 2.6137C39.318 2.63328 37.7398 2.23193 38.0973 3.34789C37.9741 2.6137 36.9384 3.39684 36.3959 3.7884V3.24021C36.0013 3.98419 36.0137 4.17997 35.3479 4.44428C35.1753 4.39533 35.1259 4.02334 35.3725 4.14081C34.7684 3.91566 35.0273 4.6988 34.2999 4.48343L34.4971 4.11145C33.9177 4.13102 33.9916 4.30723 33.745 4.74774C33.4245 5.00226 32.6354 4.72816 32.4628 4.24849C32.4381 4.55196 32.1915 4.98268 31.834 4.88479C31.76 4.70858 31.8586 4.58133 31.908 4.5128C30.8846 4.24849 30.601 5.29593 29.8489 4.83584C29.7996 4.65964 29.738 4.57154 29.6763 4.52259C30.4407 4.45407 31.0572 4.41491 31.0079 4.46386C30.9216 3.96461 30.2805 3.94503 30.6504 3.20105C30.2188 3.63178 29.5284 4.53238 28.8872 4.36596C28.8502 4.31702 28.8133 4.27786 28.7763 4.19955L28.8256 4.14081C28.6776 4.10166 28.5667 4.17018 28.468 4.26807C28.2584 4.20934 28.1351 4.17018 27.9502 4.17997C27.8022 3.77861 27.1981 4.05271 26.8899 4.07229C27.0255 4.61069 26.6063 4.58133 27.0625 4.98268C27.0008 4.95331 27.1118 4.91416 27.3091 4.86521C27.3461 4.84563 27.4077 4.82605 27.4324 4.79669L27.42 4.84563C27.6173 4.80648 27.8762 4.75753 28.1721 4.70858C27.9872 5.01205 27.7776 5.28614 27.383 5.02184C27.2844 5.37425 27.1858 5.75602 27.1241 5.94202C26.557 5.2372 25.6692 4.93373 25.4596 4.48343C24.5843 4.91416 23.302 4.97289 22.9321 6.06928C22.6978 6.23569 22.5622 5.81476 22.4266 5.66792C22.5622 5.55045 22.7472 5.54066 22.7965 5.38404C22.328 5.71687 21.2553 5.6875 21.28 6.42169C20.5402 6.18675 21.5142 5.71687 20.6142 5.95181L20.6881 5.71687C18.6291 4.83584 18.1976 7.96837 15.855 6.80346C16.0153 6.87199 16.0893 6.90136 16.1509 7.01883C13.722 6.70557 11.6506 8.35015 9.14776 7.72364C8.48197 7.61596 8.54362 8.08584 8.26004 8.4872L7.9518 7.93901L7.48328 8.72214C6.70653 9.37801 5.44892 7.61596 4.53654 8.7613L4.80779 9.11371C4.36393 9.1235 3.53785 9.60316 3.47621 9.14307C3.45155 9.22139 3.46388 9.5738 3.22962 9.40738L3.11865 9.10392L2.24326 9.82831C1.3802 9.78916 1.98434 8.62425 0.776054 8.81024C0.369182 9.01581 -0.185644 9.95557 0.0609449 10.122C0.245887 10.0926 0.578782 10.2101 0.702077 10.5038L0.356852 10.7485C0.603441 11.6393 0.665089 12.5986 1.78707 13.0098C1.93502 12.7846 2.09531 12.5595 2.25559 12.3343L2.61314 12.7161L2.07065 12.863C2.52684 13.1958 2.60081 12.8042 2.74877 12.5105C2.87206 12.7259 3.02002 12.863 3.1803 12.9217L3.55018 11.9428C3.73513 12.2756 3.47621 12.6867 3.98172 12.7846C4.15433 12.3343 3.43922 12.07 3.85842 11.7078C4.30228 12.0407 4.31461 12.3833 4.58586 11.9721C4.70915 12.1875 4.67217 12.3539 4.5612 12.4812C4.80779 12.1483 5.41193 12.1973 5.43659 11.698C5.92977 12.1288 6.53391 11.3554 6.75585 12.1973C6.80516 11.9721 7.15039 11.4239 7.4463 11.3358C7.17505 12.4518 8.61759 11.1792 8.77788 12.2854C8.93816 11.3065 10.1711 11.6197 10.7753 10.9932C10.7506 11.0715 10.7136 11.2282 10.6396 11.1988C11.0835 11.1988 11.2808 11.4533 11.589 11.5806C11.441 10.817 12.0452 10.5429 12.2794 10.0143C12.9822 10.6506 12.2055 10.9541 12.5507 11.6197C12.3658 11.0128 13.2781 10.8562 12.9699 10.3863C13.4754 10.7681 13.3644 10.5429 13.7343 11.1303C13.5617 10.1807 14.0549 10.9051 14.2398 10.2786C14.9303 10.6604 14.6097 11.1401 15.1645 10.7583C15.5344 10.9834 15.0659 11.3946 15.0659 11.3946ZM29.6763 7.69428C29.6763 7.70407 29.6763 7.70407 29.6763 7.70407C29.553 7.73343 29.4421 7.75301 29.3681 7.77259C29.4421 7.75301 29.5284 7.73343 29.6763 7.69428ZM30.9463 7.54744C30.786 7.54744 30.5887 7.55723 30.3914 7.5866C30.3175 7.4006 30.3298 7.20482 30.4531 7.20482C30.4161 7.33208 30.7367 7.41039 30.9463 7.54744ZM27.531 4.09187C27.7159 3.98419 27.8022 4.08208 27.8516 4.18976C27.7529 4.20934 27.6543 4.24849 27.5063 4.29744C27.5063 4.31702 27.494 4.34639 27.494 4.36596C27.5063 4.26807 27.5063 4.17018 27.531 4.09187Z" fill="#FF7E84"/>
<path d="M27.3084 4.85552C27.2837 4.8653 27.2714 4.89467 27.2344 4.90446C27.2837 4.94362 27.333 4.98277 27.3823 5.01214C27.3947 4.95341 27.407 4.89467 27.4193 4.83594C27.3823 4.83594 27.3453 4.84573 27.3084 4.85552Z" fill="#FF7E84"/>
<path d="M144.251 6.20708L144.227 6.1875C144.239 6.20708 144.264 6.23645 144.264 6.2756C144.251 6.24623 144.251 6.22666 144.251 6.20708Z" fill="#FF7E84"/>
<path d="M48.6657 6.92025L48.6533 6.7832L48.5547 6.91046L48.6657 6.92025Z" fill="#FF7E84"/>
<path d="M150.852 8.9668C150.852 9.01574 150.864 9.06469 150.913 9.11364C150.926 9.08427 150.889 9.02553 150.852 8.9668Z" fill="#FF7E84"/>
<path d="M153.82 9.55469L154.203 9.81899C154.042 9.68195 153.919 9.60363 153.82 9.55469Z" fill="#FF7E84"/>
<path d="M156.055 10.2095C156.104 10.1214 156.129 10.0529 156.153 9.98438L156.055 10.2095Z" fill="#FF7E84"/>
<path d="M119.061 6.5293C119.025 6.5293 119 6.5293 118.963 6.54888C118.753 6.62719 118.901 6.59782 119.061 6.5293Z" fill="#FF7E84"/>
<path d="M130.285 6.25586C130.15 6.34396 130.026 6.43206 129.891 6.48101C130.076 6.53974 130.224 6.56911 130.285 6.25586Z" fill="#FF7E84"/>
<path d="M106.676 6.46096L106.602 6.45117L106.676 6.46096Z" fill="#FF7E84"/>
<path d="M129.375 6.42142C129.56 6.54868 129.72 6.53889 129.893 6.48016C129.733 6.43121 129.548 6.3529 129.375 6.42142Z" fill="#FF7E84"/>
<path d="M165.945 12.1193L166.044 12.1584C166.056 12.1193 166.069 12.0997 166.081 12.0703L165.945 12.1193Z" fill="#FF7E84"/>
<path d="M166.086 12.0798L166.222 12.0406C166.172 12.0308 166.123 12.021 166.086 12.0798Z" fill="#FF7E84"/>
<path d="M166.522 11.9434L166.227 12.0315C166.313 12.051 166.424 12.0902 166.522 11.9434Z" fill="#FF7E84"/>
<path d="M162.969 11.3652L162.883 11.5512C162.92 11.5219 162.944 11.4533 162.969 11.3652Z" fill="#FF7E84"/>
<path d="M162.031 11.2681C162.241 11.3464 162.475 11.7772 162.808 11.7086L162.882 11.5618C162.66 11.8163 162.327 10.9745 162.031 11.2681Z" fill="#FF7E84"/>
<path d="M158.805 8.20264L159.544 8.48652C159.458 8.25158 159.36 7.94812 159.729 7.95791C158.903 7.17477 159.803 8.45715 158.805 8.20264Z" fill="#FF7E84"/>
<path d="M156.463 7.49906C156.907 7.46969 156.537 7.19559 156.587 7.07812C156.266 7.22496 156.192 7.26412 156.463 7.49906Z" fill="#FF7E84"/>
<path d="M138.817 5.07149L138.952 4.58203C138.619 4.6114 138.915 4.76803 138.817 5.07149Z" fill="#FF7E84"/>
<path d="M134.992 7.1955L135.251 7.54791L135.485 7.11719L134.992 7.1955Z" fill="#FF7E84"/>
<path d="M133.603 3.47475L133.751 3.41602L133.172 3.54327L133.603 3.47475Z" fill="#FF7E84"/>
<path d="M103.555 1.43969L103.616 2.05641C103.851 1.96831 103.937 1.27328 103.555 1.43969Z" fill="#FF7E84"/>
<path d="M90.5321 1.73219C90.3965 1.41893 90.0389 1.21336 89.8047 1.50703C90.1006 1.56577 90.3842 1.8105 90.5321 1.73219Z" fill="#FF7E84"/>
<path d="M51.5233 1.76226L51.7699 1.53711L51.2891 1.74268L51.5233 1.76226Z" fill="#FF7E84"/>
</g>
<defs>
<clipPath id="clip0_148_1327">
<rect width="169" height="13" fill="white"/>
</clipPath>
</defs>
</svg>
