<svg width="145" height="27" viewBox="0 0 145 27" fill="none" xmlns="http://www.w3.org/2000/svg">
<path d="M23.1164 0.589111H16.4383L11.5582 10.395L6.67806 0.589111H0L8.62277 16.2422V26.0117H14.4936V16.2422L23.1164 0.589111Z" fill="#0C1327"/>
<path d="M30.2814 26.5202C35.6753 26.5202 40.005 22.3436 40.005 16.9322C40.005 11.5208 35.6753 7.34427 30.2814 7.34427C24.8876 7.34427 20.5579 11.5208 20.5579 16.9322C20.5579 22.3436 24.8876 26.5202 30.2814 26.5202ZM30.2814 21.2178C27.8964 21.2178 26.0618 19.5108 26.0618 16.9322C26.0618 14.3536 27.8964 12.6467 30.2814 12.6467C32.6665 12.6467 34.5011 14.3536 34.5011 16.9322C34.5011 19.5108 32.6665 21.2178 30.2814 21.2178Z" fill="#0C1327"/>
<path d="M54.9699 7.85272V17.7675C54.9699 20.3461 53.5755 21.5083 51.5574 21.5083C49.7962 21.5083 48.3652 20.4551 48.3652 18.2034V7.85272H42.8613V19.0024C42.8613 23.9053 46.0168 26.5202 49.7228 26.5202C52.1445 26.5202 53.9791 25.6486 54.9699 24.3048V26.0117H60.4737V7.85272H54.9699Z" fill="#0C1327"/>
<path d="M81.4831 0.589111V12.0656C79.9787 9.26912 77.1534 7.45322 73.5942 7.45322C68.3472 7.45322 64.0908 11.5572 64.0908 16.9322C64.0908 22.3073 68.3472 26.4112 73.5942 26.4112C77.1534 26.4112 79.9787 24.5953 81.4831 21.7988V26.0117H83.3178V0.589111H81.4831ZM73.7043 24.668C69.3379 24.668 65.9255 21.2541 65.9255 16.9322C65.9255 12.6104 69.3379 9.19648 73.7043 9.19648C78.0707 9.19648 81.4831 12.6104 81.4831 16.9322C81.4831 21.2541 78.0707 24.668 73.7043 24.668Z" fill="#0C1327"/>
<path d="M97.2071 7.45322C91.5931 7.45322 87.7037 11.5935 87.7037 16.9322C87.7037 22.4162 91.7032 26.4112 97.3538 26.4112C100.986 26.4112 103.848 24.7769 105.353 22.3073L103.738 21.363C102.674 23.2879 100.399 24.668 97.3905 24.668C93.2076 24.668 90.052 21.9804 89.6117 17.8765H106.233C106.233 17.5859 106.27 17.2954 106.27 17.0049C106.27 12.0293 102.784 7.45322 97.2071 7.45322ZM97.2071 9.19648C100.803 9.19648 103.959 11.6661 104.362 16.0969H89.6117C89.9786 12.0656 93.0241 9.19648 97.2071 9.19648Z" fill="#0C1327"/>
<path d="M130.152 7.45322C127.694 7.45322 125.345 8.6154 124.024 11.1577C123.07 8.76067 120.979 7.45322 118.3 7.45322C115.952 7.45322 113.751 8.47012 112.393 10.9761V7.85272H110.558V26.0117H112.393V15.879C112.393 11.2303 115.071 9.19648 118.08 9.19648C120.906 9.19648 122.777 11.0487 122.777 14.4989V26.0117H124.612V15.879C124.612 11.2303 127.033 9.19648 130.115 9.19648C132.977 9.19648 134.996 11.0487 134.996 14.4989V26.0117H136.83V14.4989C136.83 9.95916 134.042 7.45322 130.152 7.45322Z" fill="#0C1327"/>
<path d="M142.937 3.45823C143.744 3.45823 144.404 2.80451 144.404 2.00552C144.404 1.24284 143.744 0.589111 142.937 0.589111C142.129 0.589111 141.469 1.24284 141.469 2.00552C141.469 2.80451 142.129 3.45823 142.937 3.45823ZM142.019 26.0117H143.854V7.85272H142.019V26.0117Z" fill="#0C1327"/>
<path fill-rule="evenodd" clip-rule="evenodd" d="M80.8894 0H83.914V26.6005H80.8894V23.7241C79.1715 25.7548 76.6267 27 73.5955 27C68.0213 27 63.4971 22.6339 63.4971 16.9321C63.4971 11.2302 68.0213 6.86411 73.5955 6.86411C76.6267 6.86411 79.1715 8.10931 80.8894 10.14V0ZM81.4844 12.0654C81.3046 11.7312 81.1059 11.411 80.8894 11.1062C79.2941 8.86082 76.7293 7.45305 73.5955 7.45305C68.3484 7.45305 64.0921 11.557 64.0921 16.9321C64.0921 22.3071 68.3484 26.4111 73.5955 26.4111C76.7293 26.4111 79.2941 25.0033 80.8894 22.7579C81.1059 22.4531 81.3046 22.1329 81.4844 21.7987V26.0116H83.319V0.588941H81.4844V12.0654ZM66.5217 16.9321C66.5217 20.9323 69.6714 24.0789 73.7056 24.0789C77.7397 24.0789 80.8894 20.9323 80.8894 16.9321C80.8894 12.9318 77.7397 9.78526 73.7056 9.78526C69.6714 9.78526 66.5217 12.9318 66.5217 16.9321ZM106.174 22.1024L105.864 22.6112C104.241 25.2756 101.174 27 97.3551 27C91.3773 27 87.1099 22.7428 87.1099 16.9321C87.1099 11.2831 91.2507 6.86411 97.2083 6.86411C103.184 6.86411 106.866 11.7774 106.866 17.0047C106.866 17.1684 106.856 17.3292 106.847 17.4696L106.847 17.4772C106.838 17.6256 106.83 17.7525 106.83 17.8763V18.4653H90.3011C90.9524 21.8856 93.7265 24.0789 97.3918 24.0789C100.214 24.0789 102.272 22.7905 103.218 21.0802L103.513 20.5461L106.174 22.1024ZM89.6963 18.4653C90.3628 22.2355 93.4124 24.6678 97.3918 24.6678C100.234 24.6678 102.421 23.4363 103.552 21.6774C103.618 21.5743 103.681 21.4694 103.74 21.3629L105.354 22.3071C105.252 22.4755 105.143 22.64 105.028 22.8003C103.456 24.992 100.74 26.4111 97.3551 26.4111C91.7044 26.4111 87.7049 22.4161 87.7049 16.9321C87.7049 11.5933 91.5944 7.45305 97.2083 7.45305C102.786 7.45305 106.271 12.0291 106.271 17.0047C106.271 17.15 106.262 17.2952 106.253 17.4405C106.244 17.5858 106.235 17.7311 106.235 17.8763H89.613C89.6344 18.076 89.6622 18.2724 89.6963 18.4653ZM103.69 15.5078C103.085 11.7889 100.319 9.78526 97.2083 9.78526C93.5666 9.78526 90.8752 12.1164 90.2898 15.5078H103.69ZM104.292 15.5078C103.674 11.4477 100.642 9.19631 97.2083 9.19631C93.2321 9.19631 90.2837 11.7889 89.6868 15.5078C89.6558 15.7011 89.6311 15.8975 89.613 16.0967H104.363C104.345 15.8964 104.321 15.7001 104.292 15.5078ZM136.831 26.0116H134.997V14.4987C134.997 11.0485 132.979 9.19631 130.117 9.19631C127.035 9.19631 124.613 11.2301 124.613 15.8788V26.0116H122.778V14.4987C122.778 11.0485 120.907 9.19631 118.082 9.19631C115.073 9.19631 112.394 11.2301 112.394 15.8788V26.0116H110.56V7.85255H112.394V10.9759C112.578 10.6372 112.777 10.3257 112.989 10.0402C114.35 8.21364 116.271 7.45305 118.302 7.45305C120.721 7.45305 122.661 8.51924 123.717 10.4911C123.83 10.7029 123.933 10.9251 124.026 11.1575C124.142 10.9346 124.265 10.7223 124.396 10.5205C125.759 8.42038 127.911 7.45305 130.153 7.45305C134.043 7.45305 136.831 9.95899 136.831 14.4987V26.0116ZM124.081 9.92976C125.567 7.83649 127.823 6.86411 130.153 6.86411C132.229 6.86411 134.062 7.53529 135.376 8.86106C136.69 10.1869 137.426 12.1081 137.426 14.4987V26.6005H134.402V14.4987C134.402 12.8867 133.932 11.7201 133.2 10.9603C132.469 10.2025 131.415 9.78526 130.117 9.78526C128.712 9.78526 127.509 10.245 126.651 11.1883C125.788 12.1381 125.208 13.651 125.208 15.8788V26.6005H122.183V14.4987C122.183 12.8752 121.744 11.7065 121.049 10.9498C120.36 10.1996 119.358 9.78526 118.082 9.78526C116.714 9.78526 115.457 10.2452 114.541 11.1999C113.625 12.1547 112.989 13.6665 112.989 15.8788V26.6005H109.965V7.26361H112.989V9.11019C114.428 7.53746 116.326 6.86411 118.302 6.86411C120.807 6.86411 122.884 7.93521 124.081 9.92976ZM141.426 26.6005V7.26361H144.45V26.6005H141.426ZM145.001 2.00535C145.001 3.1296 144.074 4.04701 142.938 4.04701C141.802 4.04701 140.875 3.1296 140.875 2.00535C140.875 0.907789 141.812 0 142.938 0C144.064 0 145.001 0.907789 145.001 2.00535ZM143.855 26.0116H142.021V7.85255H143.855V26.0116ZM65.9267 16.9321C65.9267 21.2539 69.3391 24.6678 73.7056 24.6678C78.072 24.6678 81.4844 21.2539 81.4844 16.9321C81.4844 12.6102 78.072 9.19631 73.7056 9.19631C69.3391 9.19631 65.9267 12.6102 65.9267 16.9321ZM144.406 2.00535C144.406 2.80434 143.745 3.45806 142.938 3.45806C142.131 3.45806 141.47 2.80434 141.47 2.00535C141.47 1.24267 142.131 0.588941 142.938 0.588941C143.745 0.588941 144.406 1.24267 144.406 2.00535Z" fill="#0C1327"/>
</svg>
