<svg width="20" height="20" viewBox="0 0 20 20" fill="none" xmlns="http://www.w3.org/2000/svg">
<path d="M7.63021 9.05768C7.54687 9.04935 7.44687 9.04935 7.35521 9.05768C5.37187 8.99102 3.79688 7.36602 3.79688 5.36602C3.79687 3.32435 5.44687 1.66602 7.49687 1.66602C9.53854 1.66602 11.1969 3.32435 11.1969 5.36602C11.1885 7.36602 9.61354 8.99102 7.63021 9.05768Z" stroke="#7B7B8A" stroke-width="1.5" stroke-linecap="round" stroke-linejoin="round"/>
<path d="M13.6786 3.33398C15.2953 3.33398 16.5953 4.64232 16.5953 6.25065C16.5953 7.82565 15.3453 9.10898 13.787 9.16732C13.7203 9.15898 13.6453 9.15898 13.5703 9.16732" stroke="#7B7B8A" stroke-width="1.5" stroke-linecap="round" stroke-linejoin="round"/>
<path d="M3.46563 12.134C1.44896 13.484 1.44896 15.684 3.46563 17.0256C5.75729 18.559 9.51563 18.559 11.8073 17.0256C13.824 15.6757 13.824 13.4757 11.8073 12.134C9.52396 10.609 5.76562 10.609 3.46563 12.134Z" stroke="#7B7B8A" stroke-width="1.5" stroke-linecap="round" stroke-linejoin="round"/>
<path d="M15.2812 16.666C15.8813 16.541 16.4479 16.2993 16.9146 15.941C18.2146 14.966 18.2146 13.3577 16.9146 12.3827C16.4562 12.0327 15.8979 11.7993 15.3063 11.666" stroke="#7B7B8A" stroke-width="1.5" stroke-linecap="round" stroke-linejoin="round"/>
</svg>
