<svg xmlns="http://www.w3.org/2000/svg" xmlns:xlink="http://www.w3.org/1999/xlink" width="40" zoomAndPan="magnify" viewBox="0 0 375 374.999991" height="40" preserveAspectRatio="xMidYMid meet" version="1.0"><defs><clipPath id="445ac13790"><path d="M 0 21.75 L 0 353.25 C 0 365.261719 9.738281 375 21.75 375 L 353.25 375 C 365.261719 375 375 365.261719 375 353.25 L 375 21.75 C 375 9.738281 365.261719 0 353.25 0 L 21.75 0 C 9.738281 0 0 9.738281 0 21.75 Z M 0 21.75 " clip-rule="nonzero"/></clipPath><clipPath id="27f4faa8cb"><path d="M 109 94 L 265 94 L 265 281 L 109 281 Z M 109 94 " clip-rule="nonzero"/></clipPath><clipPath id="2470d1a5f2"><path d="M 0 21.75 L 0 353.25 C 0 365.261719 9.738281 375 21.75 375 L 353.25 375 C 365.261719 375 375 365.261719 375 353.25 L 375 21.75 C 375 9.738281 365.261719 0 353.25 0 L 21.75 0 C 9.738281 0 0 9.738281 0 21.75 Z M 0 21.75 " clip-rule="nonzero"/></clipPath></defs><rect x="12.5" width="350" fill="#ffffff" y="20.499999" height="350" fill-opacity="1"/><g clip-path="url(#445ac13790)"><path fill="#000000" d="M 0 187.5 L 0 375 L 375 375 L 375 0 L 0 0 Z M 171.96875 119.269531 C 186.835938 140.902344 199.039062 158.652344 199.148438 158.652344 C 199.261719 158.652344 214.460938 140.902344 233.097656 119.269531 L 266.828125 79.882812 L 285.464844 79.882812 L 283.246094 82.324219 C 282.027344 83.765625 264.496094 104.179688 244.195312 127.8125 L 207.359375 170.746094 L 249.1875 231.546875 C 272.152344 264.941406 291.457031 293.011719 292.121094 293.675781 C 292.898438 294.785156 286.6875 295.117188 261.722656 295.117188 L 230.214844 295.007812 L 201.921875 253.511719 C 186.390625 230.660156 173.296875 212.019531 172.855469 212.019531 C 172.410156 211.910156 155.878906 230.660156 136.242188 253.511719 L 100.40625 295.117188 L 91.863281 295.117188 C 87.09375 295.117188 83.210938 294.785156 83.210938 294.453125 C 83.210938 294.121094 101.074219 273.039062 122.929688 247.632812 C 144.675781 222.226562 162.871094 200.925781 163.425781 200.148438 C 163.980469 199.148438 158.988281 191.050781 149.445312 177.292969 C 110.945312 121.597656 83.210938 81.101562 83.210938 80.546875 C 83.210938 80.214844 97.078125 79.882812 114.054688 79.882812 L 144.894531 79.882812 Z M 171.96875 119.269531 " fill-opacity="1" fill-rule="nonzero"/></g><g clip-path="url(#27f4faa8cb)"><g clip-path="url(#2470d1a5f2)"><path fill="#000000" d="M 113.5 99.519531 C 116.828125 104.179688 196.152344 219.5625 226.664062 264.164062 L 237.980469 280.585938 L 251.628906 280.695312 C 262.722656 280.695312 265.050781 280.363281 264.386719 279.253906 C 263.941406 278.367188 235.097656 236.425781 200.371094 186.058594 L 137.242188 94.304688 L 109.617188 94.304688 Z M 113.5 99.519531 " fill-opacity="1" fill-rule="nonzero"/></g></g></svg>
