<?xml version="1.0" standalone="no"?>
<!DOCTYPE svg PUBLIC "-//W3C//DTD SVG 20010904//EN"
 "http://www.w3.org/TR/2001/REC-SVG-20010904/DTD/svg10.dtd">
<svg version="1.0" xmlns="http://www.w3.org/2000/svg"
 width="338.000000pt" height="338.000000pt" viewBox="0 0 338.000000 338.000000"
 preserveAspectRatio="xMidYMid meet">

<g transform="translate(0.000000,338.000000) scale(0.100000,-0.100000)"
fill="#000000" stroke="none">
<path d="M0 1690 l0 -1690 1690 0 1690 0 0 1690 0 1690 -1690 0 -1690 0 0
-1690z m1550 615 c134 -195 244 -355 245 -355 1 0 138 160 306 355 l304 355
84 0 84 0 -20 -22 c-11 -13 -169 -197 -352 -410 l-332 -387 377 -548 c207
-301 381 -554 387 -560 7 -10 -49 -13 -274 -13 l-284 1 -255 374 c-140 206
-258 374 -262 374 -4 1 -153 -168 -330 -374 l-323 -375 -77 0 c-43 0 -78 3
-78 6 0 3 161 193 358 422 196 229 360 421 365 428 5 9 -40 82 -126 206 -347
502 -597 867 -597 872 0 3 125 6 278 6 l278 0 244 -355z"/>
<path d="M1023 2483 c30 -42 745 -1082 1020 -1484 l102 -148 123 -1 c100 0
121 3 115 13 -4 8 -264 386 -577 840 l-569 827 -125 0 -124 0 35 -47z"/>
</g>
</svg>
